<?xml version="1.0" encoding="iso-8859-1"?>
<!-- Generator: Adobe Illustrator 22.0.0, SVG Export Plug-In . SVG Version: 6.00 Build 0)  -->
<svg version="1.1" id="&#x56FE;&#x5C42;_1" xmlns="http://www.w3.org/2000/svg" xmlns:xlink="http://www.w3.org/1999/xlink" x="0px"
	 y="0px" viewBox="0 0 1000 1000" width="1000" heigh="1000" style="enable-background:new 0 0 1000 1000;" xml:space="preserve">
<style type="text/css">
	.st0{fill:#3D9970;}
	.st1{fill:#F2F2F2;}
	.st2{fill:none;}
</style>
<g>
	<path class="st0" d="M631.1,338.9L631.1,338.9L631.1,338.9L631.1,338.9L631.1,338.9L631.1,338.9
		C631.1,338.9,631.1,338.9,631.1,338.9C631.1,338.9,631.1,338.9,631.1,338.9C631.1,338.9,631.1,338.9,631.1,338.9
		C631.1,338.9,631.1,338.9,631.1,338.9L631.1,338.9C631.1,338.9,631.1,338.9,631.1,338.9L631.1,338.9
		C631.1,338.9,631.1,338.9,631.1,338.9C631.1,338.9,631.1,338.9,631.1,338.9C631.1,338.9,631.1,338.9,631.1,338.9
		C631.1,338.9,631.1,338.9,631.1,338.9C631.1,338.9,631.1,338.9,631.1,338.9C631.1,338.9,631.1,338.9,631.1,338.9L631.1,338.9
		C631.1,338.9,631.1,338.9,631.1,338.9L631.1,338.9C631.1,338.9,631.1,338.9,631.1,338.9C631.1,338.9,631.1,338.9,631.1,338.9
		L631.1,338.9C631.1,338.9,631.1,338.9,631.1,338.9C631.1,338.9,631.1,338.9,631.1,338.9C631.1,338.9,631.1,338.9,631.1,338.9
		C631.1,338.9,631.1,338.9,631.1,338.9L631.1,338.9C631.1,338.9,631.1,338.9,631.1,338.9C631.1,338.9,631.1,338.9,631.1,338.9
		C631.1,338.9,631.1,338.9,631.1,338.9C631.1,338.9,631.1,338.9,631.1,338.9C631.1,338.9,631.1,338.9,631.1,338.9
		C631.1,338.9,631.1,338.9,631.1,338.9C631.1,338.9,631.1,338.9,631.1,338.9C631.1,338.9,631.1,338.9,631.1,338.9
		C631.1,338.9,631.1,338.9,631.1,338.9C631.1,338.9,631.1,338.9,631.1,338.9C631.1,338.9,631.1,338.9,631.1,338.9L631.1,338.9
		C631.1,338.9,631.1,338.9,631.1,338.9C631.1,338.9,631.1,338.9,631.1,338.9C631.1,338.9,631.1,338.9,631.1,338.9
		C631.1,338.9,631.1,338.9,631.1,338.9C631.1,338.9,631.1,338.9,631.1,338.9C631.1,338.9,631.1,338.9,631.1,338.9
		C631,338.9,631,338.9,631.1,338.9L631.1,338.9C631,338.9,631,338.9,631.1,338.9C631,338.9,631,338.9,631.1,338.9L631.1,338.9
		C631,338.9,631,338.9,631.1,338.9c-0.1,0-0.1,0-0.1,0l0,0c0,0,0,0,0,0c0,0,0,0,0,0c0,0,0,0,0,0c0,0,0,0,0,0c0,0,0,0,0,0
		c0,0,0,0,0,0c0,0,0,0,0,0c0,0,0,0,0,0c-0.8,0.1-4.3,0.7-9.7,1.6l0.3,1.6c4.8-0.8,8.1-1.4,9.3-1.6L631.1,338.9z M614.7,341.6
		c-1.6,0.3-3.2,0.5-4.9,0.8c0,0-0.1,0-0.1,0c0,0-0.1,0-0.1,0c0,0,0,0,0,0c0,0,0,0-0.1,0c0,0,0,0,0,0c-1.5,0.2-3,0.5-4.6,0.7l0.3,1.6
		c3.3-0.5,6.6-1,9.9-1.6L614.7,341.6z M598.2,344.2c-1.9,0.3-3.9,0.6-5.9,0.9c0,0,0,0,0,0c0,0,0,0,0,0c0,0,0,0,0,0c0,0,0,0,0,0
		c0,0,0,0,0,0c0,0,0,0,0,0c-0.9,0.1-1.8,0.3-2.7,0.4c-0.4,0.1-0.8,0.1-1.2,0.2l0.2,1.6c3.2-0.5,6.6-1,9.9-1.5L598.2,344.2z
		 M581.7,346.6c-1.6,0.2-3.2,0.5-4.8,0.7c-1.7,0.2-3.4,0.5-5.1,0.7l0.2,1.7c3.2-0.4,6.6-0.9,9.9-1.4L581.7,346.6z M565.2,348.9
		c-1.9,0.3-3.9,0.5-5.8,0.8c0,0,0,0,0,0c0,0,0,0-0.1,0c0,0,0,0,0,0c0,0,0,0-0.1,0c0,0,0,0,0,0c0,0,0,0,0,0c0,0-0.1,0-0.1,0l0,0
		c-1.3,0.2-2.6,0.3-3.8,0.5l0.2,1.7c3.2-0.4,6.6-0.8,9.9-1.3L565.2,348.9z M548.7,351c-1,0.1-2,0.2-3,0.4c0,0,0,0,0,0
		c0,0-0.1,0-0.1,0c0,0,0,0,0,0c0,0,0,0-0.1,0c0,0,0,0,0,0c0,0,0,0-0.1,0c0,0,0,0,0,0c0,0,0,0,0,0l-0.1,0c0,0,0,0,0,0
		c-2.2,0.2-4.3,0.5-6.5,0.7l0.2,1.7c3.2-0.3,6.5-0.7,10-1.1L548.7,351z M532.1,352.8c-3.1,0.3-6.2,0.6-9.2,0.8c0,0,0,0,0,0
		c0,0,0,0-0.1,0c0,0,0,0,0,0c0,0,0,0,0,0c0,0,0,0-0.1,0c0,0,0,0,0,0c0,0,0,0-0.1,0c0,0,0,0,0,0c0,0,0,0-0.1,0c0,0,0,0,0,0
		c-0.1,0-0.3,0-0.4,0l0.1,1.7c3.2-0.3,6.5-0.6,10-0.9L532.1,352.8z M515.5,354.2c-1,0.1-2,0.1-3,0.2c0,0,0,0,0,0c0,0,0,0,0,0
		c0,0,0,0,0,0c0,0,0,0,0,0c0,0,0,0,0,0c0,0,0,0,0,0c0,0,0,0,0,0c0,0,0,0,0,0l0,0h0c-1.4,0.1-2.7,0.2-4.1,0.2l0,0c0,0,0,0,0,0h0
		c0,0,0,0,0,0l0,0c0,0,0,0,0,0c0,0,0,0,0,0c0,0,0,0,0,0c0,0,0,0,0,0c0,0,0,0,0,0c0,0,0,0,0,0c0,0,0,0,0,0c0,0,0,0,0,0c0,0,0,0,0,0
		c-0.8,0-1.7,0.1-2.5,0.1l0.1,1.7c3.1-0.1,6.5-0.3,10-0.5L515.5,354.2z M488.9,354.8l0,1.7c3,0.1,5.9,0.1,8.5,0.1c0.5,0,1,0,1.5,0
		l0-1.7c-0.2,0-0.5,0-0.7,0h0c0,0,0,0,0,0h0c0,0,0,0,0,0h0h0c0,0,0,0,0,0h0c0,0,0,0,0,0h0h0c0,0,0,0,0,0h0h0c0,0,0,0,0,0h0h0
		c0,0,0,0,0,0h0h0c0,0,0,0,0,0h0h0h0h0c0,0,0,0,0,0h0h0h0c0,0,0,0,0,0h0h0h0h0h0h0c0,0,0,0,0,0h0h0h0h0h0h0h0h0h0c0,0,0,0,0,0h0h0h0
		h0h-0.1h0h0h0h0c0,0,0,0,0,0h0h0h0h0h0h0h0C494.5,354.9,491.7,354.8,488.9,354.8z M472.2,354.2l-0.1,1.7c3.5,0.2,6.8,0.3,10,0.4
		l0.1-1.7C479,354.5,475.6,354.4,472.2,354.2 M455.6,353.3l-0.1,1.7c3.4,0.2,6.8,0.4,10,0.6l0.1-1.7c-1.3-0.1-2.7-0.1-4-0.2
		c0,0,0,0,0,0c0,0,0,0,0,0c0,0,0,0,0,0l0,0c0,0,0,0-0.1,0c0,0,0,0,0,0c-1.7-0.1-3.4-0.2-5.1-0.3c0,0,0,0,0,0c0,0,0,0-0.1,0
		c0,0,0,0,0,0c0,0,0,0,0,0C456,353.3,455.8,353.3,455.6,353.3 M439,352.1l-0.1,1.7c3.4,0.3,6.7,0.5,10,0.7l0.1-1.7
		c-3.2-0.2-6.3-0.5-9.5-0.7c0,0,0,0,0,0c0,0-0.1,0-0.1,0c0,0,0,0,0,0c0,0-0.1,0-0.1,0c0,0,0,0-0.1,0
		C439.1,352.1,439,352.1,439,352.1C439,352.1,439,352.1,439,352.1 M422.3,350.7l-0.2,1.7c3.3,0.3,6.7,0.6,10,0.9l0.1-1.7
		c-1.1-0.1-2.1-0.2-3.2-0.3c0,0,0,0,0,0c0,0,0,0-0.1,0c0,0,0,0,0,0c0,0,0,0-0.1,0l0,0c0,0,0,0-0.1,0c0,0,0,0,0,0c0,0,0,0-0.1,0
		c-1.8-0.2-3.7-0.3-5.5-0.5c0,0,0,0,0,0c0,0,0,0,0,0C423,350.7,422.6,350.7,422.3,350.7 M405.8,349.1l-0.2,1.7c3.3,0.3,6.6,0.7,10,1
		l0.2-1.7c-0.8-0.1-1.6-0.1-2.3-0.2c0,0,0,0,0,0c0,0,0,0,0,0C410.8,349.6,408.2,349.3,405.8,349.1 M389.2,347.2l-0.2,1.7
		c3.2,0.4,6.5,0.8,10,1.1l0.2-1.7c-0.9-0.1-1.9-0.2-2.8-0.3c0,0,0,0,0,0c0,0,0,0,0,0c0,0,0,0,0,0c0,0,0,0,0,0
		C393.8,347.8,391.4,347.5,389.2,347.2 M372.7,345l-0.2,1.6c2.9,0.4,6.3,0.9,9.9,1.4l0.2-1.7c-1.8-0.2-3.5-0.5-5.2-0.7l0,0
		c0,0,0,0,0,0C375.7,345.5,374.1,345.3,372.7,345 M362.3,343.2c0,0,0.4,2.1,1.1,6l1.6-0.3c-0.3-1.4-0.5-2.7-0.6-3.6
		c0.4,0.1,0.9,0.2,1.4,0.3l0.3-1.6C364.6,343.7,363.3,343.4,362.3,343.2 M366.2,355.5l-1.6,0.3c0.2,0.9,0.3,1.8,0.5,2.8c0,0,0,0,0,0
		c0,0,0,0.1,0,0.1c0.3,1.6,0.6,3.2,0.9,5c0.1,0.6,0.2,1.3,0.4,2l1.6-0.3C367.2,361.7,366.7,358.4,366.2,355.5 M369,371.9l-1.6,0.3
		c0.5,3.1,1.1,6.4,1.7,9.8l1.6-0.3C370.2,378.3,369.6,375,369,371.9 M371.9,388.3l-1.6,0.3c0.1,0.8,0.3,1.5,0.4,2.3c0,0,0,0,0,0
		c0,0,0,0,0,0c0.4,2.4,0.9,4.9,1.3,7.5l1.6-0.3C373.1,394.8,372.5,391.5,371.9,388.3 M374.8,404.7l-1.6,0.3c0.1,0.4,0.1,0.8,0.2,1.2
		c0.3,2,0.7,4,1.1,6c0,0,0,0,0,0.1c0,0,0,0.1,0,0.1c0,0,0,0.1,0,0.1c0,0,0,0,0,0c0,0,0,0.1,0,0.1c0,0,0,0,0,0.1c0,0,0,0,0,0
		c0,0,0,0,0,0c0,0,0,0,0,0.1c0,0,0,0,0,0c0,0,0,0.1,0,0.1c0,0,0,0,0,0c0,0.1,0,0.2,0,0.3c0,0,0,0,0,0c0,0,0,0.1,0,0.1c0,0,0,0,0,0
		c0,0,0,0,0,0c0,0,0,0,0,0c0,0,0,0,0,0.1c0,0,0,0,0,0c0,0,0,0,0,0c0.1,0.4,0.1,0.8,0.2,1.2l1.6-0.3C376,411.2,375.4,408,374.8,404.7
		 M377.8,421.2l-1.6,0.3c0.1,0.7,0.3,1.5,0.4,2.2c0.4,2.5,0.9,5.1,1.4,7.6l1.6-0.3C378.9,427.7,378.3,424.4,377.8,421.2
		 M380.7,437.6l-1.6,0.3c0.5,3,1.1,6,1.6,9c0.1,0.3,0.1,0.6,0.1,0.8l1.6-0.3C381.9,444.1,381.3,440.8,380.7,437.6 M383.6,454
		l-1.6,0.3c0.6,3.3,1.2,6.6,1.8,9.8l1.6-0.3C384.8,460.5,384.2,457.3,383.6,454 M386.6,470.4l-1.6,0.3c0.4,2.3,0.8,4.7,1.3,7
		c0,0,0,0,0,0.1c0,0,0,0,0,0c0,0,0,0.1,0,0.1c0,0.1,0,0.2,0,0.3c0,0.2,0.1,0.3,0.1,0.5c0,0,0,0,0,0c0.1,0.6,0.2,1.2,0.3,1.8l1.6-0.3
		C387.7,477,387.2,473.7,386.6,470.4 M389.5,486.8l-1.6,0.3c0.2,1.1,0.4,2.2,0.6,3.3c0.4,2.2,0.8,4.4,1.2,6.5l1.6-0.3
		C390.7,493.4,390.1,490.1,389.5,486.8 M392.5,503.2l-1.6,0.3c0.6,3.3,1.2,6.6,1.8,9.8l1.6-0.3C393.7,509.8,393.1,506.5,392.5,503.2
		 M395.5,519.6l-1.6,0.3c0.6,3.4,1.2,6.6,1.8,9.8l1.6-0.3C396.7,526.2,396.1,522.9,395.5,519.6 M398.5,536l-1.6,0.3
		c0.6,3.4,1.2,6.7,1.8,9.8l1.6-0.3C399.8,542.7,399.1,539.4,398.5,536 M401.6,552.3l-1.6,0.3c0,0.1,0,0.2,0,0.3
		c0.4,1.9,0.7,3.7,1,5.5c0,0,0,0,0,0c0,0,0,0.1,0,0.1c0,0,0,0,0,0c0,0,0,0,0,0.1l0,0c0,0,0,0,0,0c0.3,1.3,0.5,2.6,0.7,3.8l1.6-0.3
		C402.9,559.2,402.3,555.9,401.6,552.3 M404.8,568.7l-1.6,0.3c0.3,1.3,0.5,2.5,0.7,3.7c0,0,0,0,0,0c0,0,0,0.1,0,0.1c0,0,0,0,0,0
		c0,0,0,0,0,0l0,0c0,0,0,0,0,0c0,0,0,0,0,0c0,0,0,0,0,0c0,0,0,0,0,0c0,0,0,0,0,0c0.3,1.5,0.6,2.9,0.9,4.1c0,0,0,0,0,0l0,0
		c0,0,0,0,0,0c0,0,0,0,0,0c0,0,0,0,0,0c0,0,0,0,0,0c0,0,0,0,0,0c0,0,0,0,0,0c0.1,0.6,0.3,1.2,0.4,1.7l1.6-0.4
		C406.3,576.2,405.6,573,404.8,568.7 M419,578.8c-4.3,0.5-7.8,0.9-9.9,1.2l0.2,1.7c0.2,0,0.3,0,0.5-0.1c0,0,0,0,0,0c0,0,0,0,0,0
		c2.3-0.3,5.5-0.7,9.4-1.1L419,578.8z M435.6,576.9c-3.2,0.4-6.6,0.8-9.9,1.1l0.2,1.7c3.1-0.4,6.4-0.7,9.9-1.1L435.6,576.9z
		 M452.2,575.1c-3.2,0.3-6.5,0.7-10,1.1l0.2,1.7c3.2-0.4,6.6-0.7,9.9-1.1L452.2,575.1z M468.8,573.4c-3.1,0.3-6.5,0.6-10,1l0.2,1.7
		c3.4-0.3,6.7-0.7,10-1L468.8,573.4z M485.4,572.1c-3,0.2-6.4,0.5-10,0.8l0.1,1.7c1.2-0.1,2.4-0.2,3.5-0.3c0,0,0,0,0,0c0,0,0,0,0,0
		c0,0,0.1,0,0.1,0c0,0,0,0,0,0c1.5-0.1,3.1-0.2,4.5-0.3c0,0,0,0,0,0c0,0,0,0,0,0c0,0,0,0,0,0c0,0,0,0,0,0c0.6,0,1.2-0.1,1.8-0.1
		L485.4,572.1z M499.9,571.4c-2.1,0-4.7,0.1-7.8,0.2l0.1,1.7c0.3,0,0.6,0,0.9,0c0,0,0,0,0,0c0,0,0,0,0,0c0,0,0,0,0,0c0,0,0,0,0,0
		c2.2-0.1,4.3-0.2,6-0.2h0c0,0,0,0,0.1,0s0,0,0.1,0h0c0,0,0,0,0,0h0h0c0,0,0,0,0,0h0h0h0c0,0,0,0,0,0h0h0c0,0,0,0,0,0h0h0h0
		c0,0,0,0,0,0h0c0,0,0,0,0,0h0h0h0c0,0,0,0,0,0h0h0h0h0c0,0,0,0,0,0h0h0h0h0c0,0,0,0,0,0h0h0h0h0h0h0h0h0c0,0,0,0,0,0h0h0h0h0h0h0h0
		h0h0.1h0.1h0h0h0h0h0h0h0h0c0.7,0,1.4,0,2.1,0l0-1.7C501.4,571.4,500.6,571.4,499.9,571.4 M508.9,571.5l0,1.7
		c2.4,0,4.9,0.1,7.6,0.2c0,0,0,0,0,0c0,0,0,0,0,0c0,0,0,0,0,0h0c0.8,0,1.5,0,2.3,0.1l0.1-1.7C515.4,571.7,512,571.6,508.9,571.5
		 M525.6,572l-0.1,1.7c0.4,0,0.8,0,1.2,0c0,0,0,0,0,0c0,0,0,0,0,0c1.9,0.1,3.8,0.1,5.8,0.2c0,0,0,0,0,0c0,0,0,0,0,0c1,0,2,0.1,3,0.1
		l0.1-1.7C532.2,572.2,528.9,572.1,525.6,572 M542.3,572.7l-0.1,1.7c1.3,0.1,2.6,0.1,3.9,0.2c0,0,0,0,0,0c0,0,0,0,0.1,0c0,0,0,0,0,0
		c0,0,0,0,0,0c0,0,0,0,0.1,0c0,0,0,0,0,0c1.8,0.1,3.5,0.2,5.3,0.3c0,0,0,0,0,0c0,0,0,0,0.1,0c0,0,0,0,0,0c0,0,0,0,0,0l0.4,0l0.1-1.7
		C549,573.1,545.7,572.9,542.3,572.7 M558.9,573.6l-0.1,1.7c1.4,0.1,2.8,0.2,4.1,0.3c2,0.1,3.9,0.3,5.9,0.4l0.1-1.7
		C565.8,574.1,562.4,573.9,558.9,573.6 M575.6,574.9l-0.1,1.7c0.7,0.1,1.4,0.1,2.1,0.2c0,0,0,0,0,0c0,0,0,0,0,0c0,0,0,0,0,0
		c0,0,0,0,0,0c0,0,0,0,0,0c0,0,0,0,0,0c2.8,0.3,5.4,0.5,7.8,0.8l0.2-1.7C582.7,575.5,579.3,575.2,575.6,574.9 M595.7,573.7l-0.5,3.5
		c-0.9-0.2-1.9-0.3-3-0.5l-0.2,1.6c1.8,0.3,3.3,0.5,4.6,0.8l0.2-1.7c0,0,0,0,0,0l0,0c0,0,0,0,0,0l0-0.1c0,0,0,0,0,0l0-0.1
		c0,0,0,0,0,0l0,0c0,0,0,0,0,0l0,0c0,0,0,0,0,0l0,0c0,0,0,0,0,0l0-0.1c0,0,0,0,0,0l0-0.1v0l0-0.2v0l0.4-2.9L595.7,573.7z
		 M598.1,557.2l-1.4,9.9l1.7,0.2l1.4-9.9L598.1,557.2z M600.5,540.7l-1.4,9.9l1.6,0.2l1.4-9.9L600.5,540.7z M602.8,524.2l-1.4,9.9
		l1.7,0.2l1.4-9.9L602.8,524.2z M605.2,507.7l-1.4,9.9l1.6,0.2l1.4-9.9L605.2,507.7z M607.6,491.2l-1.4,9.9l1.6,0.2l1.4-9.9
		L607.6,491.2z M609.9,474.7l-1.4,9.9l1.6,0.2l1.4-9.9L609.9,474.7z M612.3,458.2l-1.4,9.9l1.6,0.2l1.4-9.9L612.3,458.2z
		 M614.7,441.7l-1.4,9.9l1.6,0.2l1.4-9.9L614.7,441.7z M617.1,425.2l-1.4,9.9l1.6,0.2l1.4-9.9L617.1,425.2z M619.4,408.7l-1.4,9.9
		l1.6,0.2l1.4-9.9L619.4,408.7z M621.8,392.2l-1.4,9.9l1.6,0.2l1.3-8.8c0,0,0,0,0,0l0-0.1c0,0,0,0,0,0l0,0v0l0-0.3c0,0,0,0,0,0l0,0
		c0,0,0,0,0,0l0-0.1c0,0,0,0,0,0l0,0c0,0,0,0,0,0l0-0.1c0,0,0,0,0,0l0,0c0,0,0,0,0,0l0,0l0,0c0,0,0,0,0,0l0,0c0,0,0,0,0,0l0,0
		c0,0,0,0,0,0l0,0c0,0,0,0,0,0l0,0c0,0,0,0,0,0l0,0c0,0,0,0,0,0l0,0c0,0,0,0,0,0l0,0c0,0,0,0,0,0v0c0,0,0,0,0,0c0,0,0,0,0,0l0,0
		c0,0,0,0,0,0l0,0c0,0,0,0,0,0l0,0c0,0,0,0,0,0v0c0,0,0,0,0,0l0,0c0,0,0,0,0,0l0,0c0,0,0,0,0,0v0c0,0,0,0,0,0l0,0c0,0,0,0,0,0v0
		c0,0,0,0,0,0l0,0l0,0c0,0,0,0,0,0c0,0,0,0,0,0v0L621.8,392.2z M624.2,375.7l-1.4,9.9l1.6,0.2l1.4-9.9L624.2,375.7z M626.5,359.2
		l-1.4,9.9l1.7,0.2l1.4-9.9L626.5,359.2z M628.9,342.7l-1.4,9.9l1.7,0.2l0-0.3c0,0,0,0,0,0l0-0.2l0,0c0,0,0,0,0,0l0,0h0l0,0
		c0,0,0,0,0,0l0,0c0,0,0,0,0,0l0-0.1l0,0v0l0,0c0,0,0,0,0,0l0-0.1l0,0l0,0c0,0,0,0,0,0c0,0,0,0,0,0l0,0c0,0,0,0,0,0l0,0c0,0,0,0,0,0
		l0,0v0l0-0.1l0,0l0,0l0-0.1c0,0,0,0,0,0l0,0v0l0,0c0,0,0,0,0,0l0,0c0,0,0,0,0,0l0,0c0,0,0,0,0,0l0,0c0,0,0-0.1,0-0.1l0,0
		c0,0,0,0,0,0l0,0c0,0,0,0,0,0l0,0c0,0,0,0,0,0l0,0c0,0,0,0,0,0l0,0c0,0,0,0,0,0l0,0c0,0,0,0,0,0l0,0c0,0,0,0,0,0l0,0c0,0,0,0,0,0
		l0,0c0,0,0,0,0,0l0,0c0,0,0,0,0,0l0,0c0,0,0,0,0,0l0,0c0,0,0,0,0-0.1l0,0c0,0,0-0.1,0-0.1v0c0,0,0-0.1,0-0.1l0,0
		c0.4-2.8,1.2-8.2,1.2-8.2L628.9,342.7z"/>
	<path class="st1" d="M477.3,0c97.2,0,126.4,3.5,146.8,28c16.7,20.1,16.9,39.6,17.3,97.4c0.1,12,0.2,25.6,0.5,41.3
		c1.5,90.4-6.1,139.4-6.1,139.9l-0.2,1.4l-1,1c0,0-4.4,4.4-12.7,12.4l-1.5,1.4l1.6-0.3l15.3,15l-0.3,2.1
		c-0.1,0.5-6.5,47.4-16.2,120.3c-5.5,41.6-12.7,87.2-21.4,135.7c-0.5,2.6-0.8,4.6-0.9,5l-0.1,0.6c-0.3,2.1-0.8,6.1-5.3,7.1
		c-0.5,0.1-0.9,0.1-1.3,0.1c-1.7,0-7-0.4-17.1-1.1c-20.1-1.5-53.6-3.9-73.9-3.9c-24.8,0-65.8,5.5-81.2,7.6c-3.7,0.5-5.6,0.7-6.4,0.8
		c-0.4,0-0.8,0.1-1.1,0.1h0c-5,0-7.3-3.3-7.8-5.8c-4.8-16-40.8-220-48-261.5l-0.3-1.9l1.2-1.5c0.1-0.1,2.1-2.6,11.7-12.8l1-1
		l-14.5-13.5l-0.3-1.3c-10.9-51.8-14.3-200.1-14.1-205.1c0.1-1.3,0-4.5-0.1-8.2c-0.2-15.2-0.3-30.7,1.5-37.8
		c4.7-20.5,15.4-34.7,33.9-44.4C398,5.5,431,0,477.3,0H0v1000h1000V0H477.3z M884.7,413.9c-0.4,1.1-39.2,115.2-44.2,137.2
		c-5.3,22.9-42.3,137.8-49.2,156.1l-0.5,1.2c-7.1,18.7-17.7,46.9-30.7,76.3c-13.3,30-27.2,51.8-29.2,54.2c-1.2,1.5-2.4,2.9-18.6,2.9
		c-3.3,0-6-0.1-6.8-0.1c-0.1,0-0.1,0-0.2,0c-0.6,0-1.2,0.2-1.4,0.3c0.2,0.8,1,2.3,1.5,3.4c0.9,1.8,2,4,2.9,6.5
		c2.3,6.5,3.2,11.6,3.2,17.6v1.1l-0.5,1c-1.8,3.2-18.7,26.3-22,30.9l-0.7,1l-1.1,0.5c-0.6,0.3-1.8,0.6-3.9,0.6c-1,0-2.2-0.1-3.5-0.2
		c-3.7-0.4-10.7-1.4-13.4-2.2c-1.7-0.5-2.8-0.6-3.4-0.7c-0.1,0.5-0.2,1.3,0.2,2.6c1.6,5,2.6,11.3,2.5,15.4c0,2.2-0.1,3.4-0.1,5.2
		c0,1.1-0.1,2.4-0.1,4.2l0,0.9l-0.4,0.8c-2.5,5.1-31.4,29.5-33.8,30.6c-1,0.4-2,0.7-3.1,0.7c-2.2,0-4-0.9-5.8-1.8
		c-0.5-0.3-1.1-0.6-1.7-0.8c-1.9-0.9-5.3-2.8-8.5-4.7c-1.7-1-3.9-2.2-4.9-2.8c-0.1,0.1-0.3,0.2-0.4,0.3c0,0.2,0,0.5,0,0.7
		c-0.1,1.6-0.1,4.2-0.7,8.6c-1,8.3-2.5,11.7-3.5,13.9c-0.2,0.5-0.4,0.9-0.5,1.2c-1.1,3.4-2.9,4.1-5.8,5.3c-1.2,0.5-2.9,1.2-5.4,2.3
		c-8.6,3.9-23.2,7.4-24.9,7.7c-0.3,0.1-0.6,0.1-0.9,0.1c-2.8,0-5.2-2.1-8.1-4.7c-0.9-0.8-1.7-1.5-2.5-2.2c-1.8-1.5-3.6-3.4-5.5-5.4
		c-1.5-1.6-3-3.2-4.4-4.5c-0.4-0.3-0.7-0.6-0.9-0.7c0,0-0.2,0.1-0.3,0.2c-0.8,1.2-2.2,5.1-3,7.3c-0.6,1.7-1.2,3.4-1.7,4.6
		c-1.1,2.5-3.2,5.7-4,7c-2.8,4.3-3.8,5.4-5.7,5.7c-0.8,0.1-16.2,1.1-19.7,1.1c-0.7,0-1.2,0-1.7-0.2c-1.1-0.3-2-0.5-3.9-3.5
		c-0.7,0.9-1.3,1.7-1.8,2.2c-1.4,1.2-3.3,1.4-6.7,1.4c-5.7,0-15-0.8-15.4-0.8l-1.4-0.1l-1-0.9c-1.1-0.9-3.6-4.2-5.5-6.9
		c-2.7-3.7-4.1-7.9-5.2-11.2c-0.7-2.1-1.3-4-2-5.1c0-0.1-0.1-0.1-0.1-0.2c-0.2,0.1-0.5,0.3-0.7,0.4c-0.2,0.2-0.6,0.7-1.2,1.3
		c-5.3,5.4-11.1,11.2-13.4,13c-2.2,1.7-4.4,3.3-7.5,3.3c-0.6,0-1.1,0-1.8-0.1c-2.8-0.4-26.5-8.4-30.1-10.4
		c-4.4-2.4-5.4-6.3-6.7-11.2c-0.2-0.6-0.3-1.3-0.5-2c-1-3.9-1.2-7.5-1.4-10.5c-0.1-1.9-0.2-3.5-0.5-4.6c-0.1-0.4-0.2-0.6-0.2-0.7
		c0,0-0.1,0-0.2,0c0,0,0,0,0,0c-1.2,0.5-4.8,2.7-7.2,4.1c-2.5,1.5-5.2,3.1-7.2,4.2c-2.9,1.5-5,2.2-6.8,2.2c-1.2,0-2.4-0.4-3.2-1
		c-1.3-0.8-5.6-3.7-14.2-11.2c-9.9-8.7-18.8-17.6-18.9-17.7l-0.9-0.9l-0.2-1.3c-0.1-0.5-0.5-3.4-0.3-11.7c0.1-5.7,1.3-10.2,2.2-13.2
		c0.3-0.9,0.6-2.1,0.6-2.6c-0.1-0.1-0.5-0.3-1-0.3c-0.1,0-0.1,0-0.2,0c-0.9,0.1-2.4,0.4-4.1,0.8c-3.6,0.8-9,2.1-16.8,2.8l-2.3,0.2
		l-1.4-1.9c-2.5-3.3-22.2-29.5-23-30.6l-0.8-1.1v-1.4c0-0.3,0-1.1,1.1-8.5c0.8-5.8,3.3-11.6,5-15.9c0.5-1.1,0.9-2.2,1.2-2.9
		c-0.3-0.1-0.8-0.3-1.5-0.4c-0.1,0-0.5-0.1-1.3-0.1c-0.9,0-1.9,0-3.1,0.1c-1.7,0.1-3.7,0.1-6.1,0.1c-4,0-7.8-0.2-11.7-0.7l-1.5-0.2
		l-1-1.1c-8.1-8.3-29.4-52.4-39.5-74.5c-12.3-26.9-38.3-99.1-44.9-118.3c-3-8.7-11.1-35-18.9-60.5c-7.8-25.3-15.9-51.6-18.8-60.1
		c-5.9-17.1-37.4-109.7-37.8-110.7l-0.8-2.4l1.8-1.8c0.2-0.2,18.7-19.5,22-23.1c1.5-1.7,3.9-3.9,6.7-3.9c0.9,0,1.8,0.2,2.5,0.6
		c6.8,1.8,56.4,15,98.5,40.7c46.4,28.3,68.7,51.2,91.5,81.3c21.8,28.7,32.2,47.9,36.6,56.1l0.8,1.5c3.8,7,18.5,36.9,19.6,40.5
		c1.1,3.4,4.6,14.3,6,18.1c0.4,1.1,1.1,3.1,1.9,4.6l-0.4-17.2l3.7-0.5c0.6-0.1,58.6-8.3,95.4-8.3c36.7,0,95.2,6.8,95.8,6.9l3.9,0.5
		l-0.7,17.1l0,0.2c0,0.1,0,0.2,0,0.3c0.2-0.3,0.3-0.7,0.5-1.3c3.2-9.1,9-24.2,17.7-45.9c6.8-17,40.7-77.9,89.7-123.9
		c21-19.7,61-48.1,133-72c1.4-0.5,2.5-0.8,3.2-1.1c7.6-2.7,10-3,11.2-3c1.7,0,2.7,0.7,3.4,1.3l27,27L884.7,413.9z"/>
	<path class="st0" d="M488.3,6.4L488.3,6.4L488.3,6.4L488.3,6.4h-0.1h0h0h0h0h0h0h0h0h0h0h0h0c0,0,0,0,0,0h0h0H488h0h0c0,0,0,0,0,0
		h0h0h0h0c0,0,0,0,0,0h0h-0.1c0,0,0,0,0,0h0h0h0h0h0c0,0,0,0,0,0c0,0,0,0-0.1,0h0c0,0,0,0,0,0h0h0c0,0,0,0,0,0h0h0h0h0h0
		c0,0,0,0,0,0c0,0,0,0,0,0h0h0c0,0,0,0,0,0h0h0h0c0,0,0,0,0,0h0c0,0,0,0,0,0h0c0,0,0,0,0,0h0h0c0,0,0,0,0,0c0,0-0.1,0-0.1,0h0
		c0,0,0,0,0,0h0c0,0-0.1,0-0.1,0c0,0,0,0,0,0h0c0,0,0,0,0,0c0,0-0.1,0-0.1,0c0,0,0,0,0,0c0,0-0.1,0-0.1,0h0c0,0,0,0,0,0h0
		c-0.1,0-0.2,0-0.3,0c0,0,0,0,0,0c0,0,0,0,0,0h0c0,0,0,0,0,0h0c0,0,0,0,0,0h0h0c0,0,0,0,0,0h0h0c0,0,0,0,0,0c0,0,0,0,0,0
		c0,0,0,0,0,0l-0.1,0c0,0-0.1,0-0.1,0h0c0,0,0,0-0.1,0h0c0,0,0,0-0.1,0c0,0,0,0,0,0c0,0-0.1,0-0.1,0h0c0,0,0,0,0,0c0,0,0,0,0,0
		c0,0,0,0,0,0c0,0,0,0,0,0c0,0,0,0,0,0h0c0,0,0,0,0,0h0c0,0,0,0,0,0h0c0,0,0,0,0,0c0,0,0,0,0,0c0,0,0,0,0,0h0c-0.1,0-0.2,0-0.2,0
		c0,0,0,0,0,0c0,0,0,0,0,0h0c0,0,0,0,0,0h0c0,0,0,0,0,0c0,0,0,0,0,0c0,0,0,0,0,0c0,0,0,0,0,0c0,0,0,0-0.1,0c0,0,0,0,0,0c0,0,0,0,0,0
		c0,0,0,0-0.1,0c0,0,0,0,0,0c0,0,0,0,0,0l0,0c0,0,0,0,0,0c0,0,0,0,0,0c0,0,0,0,0,0c0,0,0,0,0,0h0c0,0,0,0,0,0h0c0,0,0,0,0,0
		c0,0,0,0,0,0c0,0,0,0,0,0c0,0,0,0,0,0c0,0,0,0,0,0c0,0,0,0,0,0c0,0,0,0,0,0c0,0,0,0-0.1,0c0,0,0,0,0,0c0,0,0,0,0,0c0,0,0,0,0,0h0
		c0,0,0,0,0,0c0,0,0,0,0,0h0c0,0,0,0,0,0c0,0,0,0,0,0c0,0,0,0,0,0l0,0c0,0,0,0,0,0h0c0,0,0,0,0,0c0,0,0,0,0,0c0,0-0.1,0-0.1,0h0
		c0,0,0,0,0,0c0,0,0,0,0,0l0,0h0c-1.8,0-3.8,0.1-6,0.1l0.1,1.7c3.7-0.1,7.2-0.2,9.9-0.2V6.4z M471.6,6.8c-2.4,0.1-5,0.2-7.6,0.4
		c0,0,0,0,0,0c0,0,0,0,0,0c-0.8,0-1.6,0.1-2.3,0.1l0.1,1.7c3.4-0.2,6.7-0.4,10-0.5L471.6,6.8z M455,7.8c-3.3,0.2-6.6,0.5-10,0.8
		l0.1,1.7c3.2-0.3,6.6-0.5,9.9-0.8L455,7.8z M438.4,9.1c-2.2,0.2-4.4,0.4-6.6,0.7c0,0,0,0,0,0c0,0,0,0,0,0c0,0,0,0-0.1,0
		c0,0,0,0,0,0c0,0,0,0-0.1,0c0,0,0,0,0,0c0,0,0,0-0.1,0c0,0,0,0,0,0c-1,0.1-2.1,0.2-3.1,0.3l0.2,1.7c3.2-0.4,6.5-0.7,9.9-1.1
		L438.4,9.1z M421.8,11c-1.4,0.2-2.7,0.4-4,0.6c0,0,0,0,0,0c0,0-0.1,0-0.1,0c0,0,0,0,0,0c0,0,0,0-0.1,0c0,0,0,0,0,0c0,0,0,0,0,0
		c0,0,0,0,0,0c0,0,0,0,0,0c0,0,0,0,0,0c0,0,0,0,0,0c0,0,0,0,0,0c0,0,0,0-0.1,0c0,0,0,0,0,0c0,0,0,0,0,0c0,0,0,0-0.1,0l0,0
		c0,0,0,0,0,0c0,0,0,0,0,0c0,0,0,0,0,0c0,0,0,0,0,0c0,0,0,0,0,0l0,0c0,0,0,0-0.1,0c0,0,0,0,0,0c0,0,0,0,0,0c0,0,0,0,0,0c0,0,0,0,0,0
		c0,0,0,0,0,0c0,0,0,0,0,0c0,0,0,0,0,0c0,0,0,0,0,0c0,0,0,0,0,0c0,0,0,0,0,0l0,0c0,0,0,0,0,0l0,0c0,0,0,0,0,0c0,0,0,0,0,0
		c0,0,0,0,0,0c0,0,0,0,0,0c0,0,0,0,0,0l0,0c-1,0.2-2,0.3-3,0.5l0,0c0,0-0.1,0-0.1,0c0,0,0,0,0,0c0,0,0,0-0.1,0c0,0,0,0,0,0
		c0,0,0,0,0,0c0,0,0,0,0,0c0,0,0,0,0,0c0,0,0,0,0,0c0,0,0,0,0,0c0,0,0,0,0,0c0,0,0,0,0,0c0,0,0,0,0,0c0,0,0,0,0,0c0,0,0,0,0,0
		c0,0,0,0,0,0c0,0,0,0,0,0c0,0,0,0,0,0c0,0,0,0,0,0c0,0,0,0,0,0c0,0,0,0,0,0c0,0,0,0,0,0c0,0,0,0,0,0h0c0,0,0,0,0,0c0,0,0,0,0,0
		c0,0,0,0,0,0c0,0,0,0,0,0c0,0,0,0,0,0l0,0c0,0,0,0,0,0c0,0,0,0,0,0c0,0,0,0,0,0c0,0,0,0,0,0c0,0,0,0,0,0c0,0,0,0,0,0
		c-0.3,0.1-0.7,0.1-1,0.2l0.3,1.6c3.1-0.5,6.4-1,9.8-1.5L421.8,11z M405.3,13.7c-0.8,0.1-1.5,0.3-2.2,0.5c0,0,0,0,0,0c0,0,0,0,0,0
		c0,0,0,0,0,0c0,0,0,0,0,0c0,0,0,0,0,0c0,0,0,0,0,0c0,0,0,0,0,0c0,0,0,0,0,0l0,0c0,0,0,0,0,0l0,0c0,0,0,0,0,0c0,0,0,0,0,0
		c0,0,0,0,0,0c0,0,0,0,0,0c0,0,0,0,0,0c0,0,0,0,0,0l0,0c0,0,0,0,0,0c0,0,0,0,0,0c-2.5,0.5-4.9,1.1-7.1,1.7l0.4,1.6
		c2.8-0.8,6-1.5,9.6-2.2L405.3,13.7z M389.3,18c-0.2,0.1-0.4,0.2-0.6,0.2c0,0,0,0,0,0c0,0,0,0,0,0c0,0,0,0,0,0c0,0,0,0,0,0
		c0,0,0,0,0,0l0,0c-0.2,0.1-0.5,0.2-0.7,0.3l0,0c0,0,0,0,0,0c0,0,0,0,0,0c0,0,0,0,0,0c0,0,0,0,0,0c0,0,0,0,0,0c0,0-0.1,0-0.1,0
		c0,0,0,0,0,0c0,0,0,0,0,0c0,0,0,0,0,0c0,0-0.1,0-0.1,0.1c0,0,0,0,0,0c-2.6,1.1-5,2.3-7.2,3.6l0.8,1.5c2.3-1.3,4.8-2.5,7.4-3.7
		c0.4-0.2,0.9-0.4,1.4-0.6L389.3,18z M374.6,25.8c-2.9,1.9-5.6,3.9-8,6l1.1,1.3c2.4-2.1,5-4,7.8-5.9L374.6,25.8z M361.8,36.5
		c-2.4,2.6-4.4,5.2-6,7.9l1.4,0.9c1.7-2.7,3.6-5.3,5.9-7.7L361.8,36.5z M352.7,50.3c-0.1,0.3-0.3,0.7-0.4,1c0,0,0,0,0,0
		c0,0,0,0,0,0.1c0,0,0,0,0,0c0,0,0,0,0,0.1c0,0,0,0,0,0c0,0,0,0,0,0c0,0,0,0,0,0c0,0,0,0,0,0c0,0,0,0,0,0c0,0,0,0,0,0c0,0,0,0,0,0
		c0,0,0,0,0,0c0,0,0,0,0,0l0,0c0,0,0,0,0,0c0,0,0,0,0,0c0,0,0,0,0,0c0,0,0,0,0,0l0,0c0,0,0,0,0,0c0,0,0,0,0,0c0,0,0,0,0,0
		c0,0,0,0,0,0c0,0,0,0,0,0c0,0,0,0,0,0c0,0,0,0,0,0c0,0,0,0,0,0c0,0,0,0,0,0c0,0,0,0,0,0c0,0,0,0,0,0c0,0,0,0,0,0c0,0,0,0,0,0
		c0,0,0,0,0,0c0,0,0,0,0,0c0,0,0,0,0,0c0,0,0,0,0,0c0,0,0,0,0,0c0,0,0,0,0,0c0,0,0,0,0,0c0,0,0,0,0,0c0,0,0,0,0,0c0,0,0,0,0,0
		c0,0,0,0,0,0c0,0,0,0,0,0c0,0,0,0,0,0c0,0,0,0,0,0c0,0,0,0,0,0c0,0,0,0,0,0c0,0,0,0,0,0c0,0,0,0,0,0c0,0,0,0,0,0c0,0,0,0,0,0
		c0,0,0,0,0,0.1c0,0,0,0,0,0c0,0,0,0.1,0,0.1c0,0,0,0,0,0c-1,2.4-1.7,4.9-2.2,7.3l1.6,0.4c0.7-3.2,1.7-6.2,3-9.2L352.7,50.3z
		 M348.5,66.4c0,0.1,0,0.2,0,0.3c0,0,0,0,0,0l0,0c0,0,0,0,0,0c0,0,0,0,0,0c0,0,0,0,0,0c0,0,0,0,0,0c0,0,0,0,0,0c0,0,0,0,0,0
		c0,0,0,0,0,0c0,0,0,0,0,0c0,0,0,0,0,0c0,0,0,0,0,0c0,0,0,0,0,0l0,0c0,0,0,0,0,0c0,0,0,0,0,0c0,0,0,0,0,0c0,0,0,0,0,0c0,0,0,0,0,0
		c0,0,0,0,0,0c0,0,0,0,0,0c0,0,0,0,0,0c0,0,0,0,0,0c-0.1,1.6-0.2,3.4-0.4,5.4c0,0,0,0,0,0c0,0,0,0,0,0c0,0,0,0.1,0,0.1c0,0,0,0,0,0
		c0,0,0,0,0,0c0,0,0,0,0,0c0,0,0,0,0,0c0,0,0,0,0,0c0,0,0,0,0,0c0,0,0,0,0,0l0,0c0,0,0,0,0,0c0,0,0,0,0,0c0,0,0,0,0,0c0,0,0,0,0,0
		c0,0,0,0,0,0c0,0,0,0,0,0c0,0,0,0,0,0c0,0,0,0,0,0c-0.1,1.1-0.1,2.3-0.2,3.5l1.7,0.1c0.2-3.6,0.3-6.7,0.6-9.3c0-0.2,0-0.4,0-0.5
		L348.5,66.4z M347.6,83c0,1.4-0.1,2.8-0.1,4.3c0,0,0,0,0,0c0,0,0,0,0,0c0,0,0,0,0,0c0,0,0,0,0,0c0,0,0,0,0,0c0,0,0,0,0,0
		c0,0,0,0,0,0c0,0,0,0,0,0c0,0,0,0,0,0c0,0,0,0,0,0.1c0,0,0,0,0,0c0,0,0,0,0,0c0,0,0,0,0,0c0,0,0,0,0,0c0,0,0,0,0,0c0,0,0,0,0,0
		c0,0,0,0,0,0c0,0,0,0,0,0c0,0,0,0,0,0c0,0,0,0,0,0c0,0,0,0,0,0c0,0,0,0,0,0c0,0,0,0,0,0.1c0,0,0,0,0,0c0,0.4,0,0.8,0,1.2
		c0,0,0,0,0,0c0,0.1,0,0.2,0,0.3c0,0,0,0,0,0c0,0,0,0,0,0c0,0,0,0,0,0c0,0,0,0,0,0c0,0,0,0,0,0c0,0,0,0,0,0.1c0,0,0,0,0,0
		c0,0,0,0,0,0c0,0,0,0,0,0c0,0,0,0,0,0c0,0,0,0,0,0.1c0,0,0,0,0,0c0,0,0,0,0,0.1c0,0,0,0,0,0c0,0,0,0,0,0.1c0,0,0,0,0,0c0,0,0,0,0,0
		c0,0,0,0,0,0c0,0,0,0,0,0c0,0,0,0,0,0c0,1,0,2,0,3l1.7,0c0-3.5,0.1-6.9,0.2-10L347.6,83z M347.4,99.7c0,3.2,0,6.5,0,10l1.7,0
		c0-3.4,0-6.8,0-10L347.4,99.7z M349.2,116.3l-1.7,0c0,1,0,2.1,0,3.1c0,0,0,0,0,0c0,0,0,0,0,0c0,0,0,0,0,0c0,0,0,0,0,0l0,0
		c0,0,0,0,0,0c0,0,0,0,0,0.1c0,0,0,0,0,0c0,2.2,0.1,4.4,0.1,6.6l1.7,0C349.2,122.9,349.2,119.6,349.2,116.3 M349.5,133l-1.7,0
		c0,1.3,0.1,2.7,0.1,4c0,0,0,0,0,0c0,0,0,0,0,0.1c0,0,0,0,0,0c0,0.1,0,0.2,0,0.2c0,0,0,0,0,0c0,0,0,0,0,0.1c0,0,0,0,0,0c0,0,0,0,0,0
		c0,0,0,0,0,0c0,0.1,0,0.2,0,0.2c0,0,0,0,0,0c0,0.2,0,0.5,0,0.7c0,0,0,0,0,0c0,0,0,0,0,0c0,0,0,0,0,0c0,0.1,0,0.1,0,0.2v0
		c0,0,0,0,0,0c0,0,0,0,0,0c0,0,0,0,0,0c0,0,0,0,0,0c0,0,0,0,0,0c0,0,0,0.1,0,0.1c0,0,0,0,0,0c0,0,0,0,0,0.1c0,0,0,0,0,0
		c0,0,0,0,0,0.1v0c0,1.3,0.1,2.5,0.1,3.8l1.7-0.1C349.7,139.6,349.6,136.2,349.5,133 M350,149.6l-1.7,0.1c0,1,0.1,2,0.1,3.1
		c0,0,0,0,0,0c0,0,0,0,0,0.1c0,0,0,0,0,0c0,0,0,0,0,0c0,0,0,0,0,0.1c0,0,0,0,0,0c0.1,1.8,0.2,3.7,0.2,5.6c0,0.4,0,0.7,0,1.1l1.7-0.1
		C350.3,156.2,350.1,152.9,350,149.6 M350.7,166.2l-1.7,0.1c0,0.5,0,0.9,0.1,1.4c0.1,2.9,0.3,5.7,0.4,8.6l1.7-0.1
		c-0.1-2.8-0.3-5.7-0.4-8.6L350.7,166.2z M351.6,182.9l-1.7,0.1c0.1,1.8,0.2,3.6,0.3,5.4c0.1,1.5,0.2,3.1,0.2,4.6l1.7-0.1
		C351.9,189.6,351.7,186.2,351.6,182.9 M352.4,199.5l-1.7,0.1c0.1,1,0.1,2,0.2,3c0.1,1.7,0.2,3.4,0.3,5.1v0c0,0,0,0,0,0.1
		c0,0.6,0.1,1.2,0.1,1.8l1.7-0.1C352.8,206.3,352.6,202.9,352.4,199.5 M353.4,216.1l-1.7,0.1c0.2,3.4,0.4,6.7,0.6,10l1.7-0.1
		C353.8,222.9,353.6,219.6,353.4,216.1 M354.4,232.8l-1.7,0.1c0.2,2.5,0.3,5,0.5,7.5c0,0,0,0,0,0c0,0,0,0,0,0.1c0,0,0,0,0,0
		c0,0,0,0,0,0c0,0,0,0,0,0.1c0,0,0,0,0,0c0.1,0.8,0.1,1.5,0.2,2.3l1.7-0.1C354.9,239.6,354.7,236.2,354.4,232.8 M355.6,249.4
		l-1.7,0.1c0.3,3.4,0.5,6.7,0.8,10c0,0,0,0,0,0l1.7-0.1C356.2,256.2,355.9,252.8,355.6,249.4 M357,266l-1.7,0.2c0.1,1,0.2,2,0.3,3
		c0,0,0,0,0,0c0,0,0,0,0,0.1c0,0,0,0,0,0c0,0,0,0,0,0c0,0,0,0,0,0c0,0,0,0,0,0c0,0,0,0,0,0c0,0,0,0,0,0c0,0,0,0,0,0c0,0,0,0,0,0
		c0,0,0,0,0,0c0.1,0.7,0.1,1.4,0.2,2.2c0,0,0,0,0,0c0,0.1,0,0.2,0,0.3c0,0,0,0,0,0c0,0,0,0,0,0c0,0,0,0,0,0c0,0,0,0,0,0c0,0,0,0,0,0
		c0,0,0,0,0,0c0,0,0,0,0,0l0,0c0,0,0,0,0,0c0,0,0,0,0,0c0,0,0,0.1,0,0.1c0,0,0,0,0,0c0,0,0,0,0,0l0,0c0.1,1.3,0.3,2.6,0.4,3.9
		l1.7-0.2C357.6,272.8,357.3,269.4,357,266 M358.7,282.5l-1.7,0.2c0.4,3.5,0.8,6.8,1.3,9.9l1.7-0.2
		C359.5,289.4,359.1,286.1,358.7,282.5 M361,298.9l-1.6,0.3c0.2,1.4,0.5,2.7,0.7,3.9v0c0,0,0,0,0,0c0,0,0,0,0,0c0,0,0,0,0,0l0,0
		c0,0,0,0,0,0c0,0,0,0,0,0c0,0,0,0,0,0c0,0,0,0,0,0c0,0,0,0,0,0c0,0,0,0,0,0c0,0,0,0,0,0c0.4,2.1,0.8,4,1.3,5.8l1.6-0.4
		C362.2,305.9,361.6,302.7,361,298.9 M374.7,307.3c-4.4,1-7.7,1.9-9.7,2.4l0.4,1.6c1.7-0.5,4.2-1.1,7.3-1.8c0,0,0,0,0,0c0,0,0,0,0,0
		l0,0c0,0,0.1,0,0.1,0c0,0,0,0,0,0c0,0,0,0,0,0c0.7-0.2,1.5-0.4,2.3-0.5L374.7,307.3z M391,303.8c-3.3,0.7-6.6,1.4-9.8,2.1l0.4,1.6
		c3-0.7,6.2-1.3,9.8-2L391,303.8z M407.5,300.8c-3.3,0.6-6.6,1.1-9.9,1.8l0.3,1.6c3.1-0.6,6.4-1.2,9.8-1.7L407.5,300.8z M424,298.2
		c-3.3,0.5-6.6,1-9.9,1.5l0.3,1.6c1.8-0.3,3.7-0.6,5.7-0.9c0,0,0,0,0,0c0,0,0,0,0,0c0,0,0,0,0,0c0,0,0,0,0,0c0,0,0,0,0,0
		c0,0,0,0,0,0c0,0,0,0,0,0c0,0,0,0,0,0c0,0,0,0,0,0c0,0,0,0,0,0c0,0,0,0,0,0c0,0,0,0,0,0c0,0,0,0,0,0c0,0,0,0,0,0c0,0,0,0,0,0
		c0,0,0,0,0,0c0,0,0,0,0,0c0,0,0,0,0,0c0,0,0,0,0,0c0,0,0,0,0,0c0,0,0,0,0,0c0,0,0.1,0,0.1,0c0,0,0,0,0,0c0,0,0,0,0,0
		c0.1,0,0.1,0,0.2,0l0,0c0,0,0,0,0,0c0,0,0,0,0,0l0,0c0,0,0,0,0,0c0,0,0,0,0,0l0,0c0,0,0,0,0,0l0,0c0.2,0,0.4-0.1,0.7-0.1l0,0
		c0.1,0,0.1,0,0.2,0c0,0,0,0,0,0c0,0,0,0,0,0h0c0.2,0,0.5-0.1,0.7-0.1l0,0c0,0,0.1,0,0.1,0l0,0c0.1,0,0.1,0,0.2,0l0,0c0,0,0,0,0,0
		c0,0,0,0,0,0c0,0,0,0,0,0c0,0,0,0,0,0c0,0,0,0,0,0c0,0,0,0,0,0c0,0,0,0,0,0c0,0,0,0,0,0c0,0,0,0,0,0c0,0,0,0,0,0c0,0,0,0,0.1,0
		c0,0,0.1,0,0.1,0c0,0,0,0,0,0c0,0,0,0,0,0c0,0,0,0,0,0c0,0,0,0,0,0c0,0,0,0,0,0c0,0,0,0,0.1,0c0,0,0,0,0,0c0,0,0,0,0,0c0,0,0,0,0,0
		c0.3,0,0.6-0.1,0.9-0.1L424,298.2z M440.6,296.2c-3.3,0.4-6.7,0.8-10,1.2l0.2,1.7c0.2,0,0.4,0,0.6-0.1c0,0,0,0,0,0c0,0,0,0,0,0
		c0,0,0,0,0.1,0c0,0,0,0,0,0c1.3-0.2,2.5-0.3,3.8-0.5l0,0c0,0,0,0,0.1,0c0,0,0,0,0,0c0,0,0,0,0.1,0c0,0,0,0,0,0c0,0,0,0,0,0
		c0,0,0,0,0,0c0,0,0,0,0.1,0l0,0c0,0,0,0,0,0c0,0,0,0,0.1,0c0,0,0,0,0,0c1.6-0.2,3.3-0.4,5-0.6L440.6,296.2z M457.2,294.5
		c-3.3,0.3-6.7,0.6-10,0.9l0.2,1.7c1.3-0.1,2.7-0.3,4.1-0.4c0,0,0,0,0,0c0,0,0,0,0.1,0c0,0,0,0,0,0c0,0,0,0,0.1,0c0,0,0,0,0,0
		c0,0,0,0,0,0c0,0,0,0,0,0c0,0,0,0,0,0c1.8-0.2,3.6-0.3,5.5-0.5c0,0,0,0,0,0c0,0,0,0,0,0c0,0,0,0,0.1,0c0,0,0,0,0,0L457.2,294.5z
		 M473.9,293.4c-3.3,0.2-6.7,0.4-10,0.6l0.1,1.7c1.3-0.1,2.6-0.2,3.9-0.3h0c0.1,0,0.1,0,0.2,0c0,0,0,0,0,0c0,0,0.1,0,0.1,0
		c0,0,0,0,0,0c0,0,0.1,0,0.2,0c0,0,0,0,0,0c0,0,0.1,0,0.1,0c0,0,0,0,0.1,0c0,0,0,0,0,0c0,0,0,0,0.1,0h0c0,0,0,0,0.1,0c0,0,0,0,0,0
		c0,0,0,0,0.1,0c0,0,0,0,0,0c0,0,0,0,0.1,0l0,0c0,0,0.1,0,0.1,0c0,0,0,0,0,0c0,0,0.1,0,0.1,0c0,0,0,0,0,0c1.6-0.1,3.2-0.2,4.8-0.3
		L473.9,293.4z M490.6,292.7c-3.3,0.1-6.7,0.2-10,0.3l0.1,1.7c0.6,0,1.2-0.1,1.9-0.1c0,0,0,0,0,0c0,0,0,0,0.1,0l0,0c0,0,0,0,0.1,0
		c0,0,0,0,0,0c0,0,0,0,0,0c0,0,0,0,0,0c0,0,0,0,0,0c0,0,0,0,0.1,0c0,0,0,0,0,0c2.5-0.1,5-0.2,7.6-0.2l0,0c0.1,0,0.1,0,0.2,0
		c0,0,0,0,0,0c0,0,0,0,0,0L490.6,292.7z M505.6,292.5c-2.8,0-5.6,0-8.4,0.1l0,1.7c0.9,0,1.9,0,2.8,0c0,0,0,0,0,0l0.1,0h0
		c0.1,0,0.1,0,0.2,0c0,0,0,0,0,0c0,0,0,0,0,0c0,0,0,0,0,0c0,0,0,0,0,0c0,0,0,0,0,0c0,0,0,0,0,0c0,0,0,0,0.1,0c0,0,0,0,0,0
		c0,0,0.1,0,0.1,0h0l0.1,0c0,0,0,0,0,0c0,0,0,0,0.1,0c0,0,0,0,0,0c0,0,0,0,0.1,0c0,0,0,0,0,0c0,0,0,0,0.1,0h0c0.9,0,1.7,0,2.6,0
		c0,0,0,0,0,0c0.1,0,0.2,0,0.3,0h0c0,0,0,0,0.1,0h0c0.1,0,0.2,0,0.2,0h0c0,0,0,0,0.1,0h0c0.1,0,0.2,0,0.3,0h0h0.1h0c0,0,0,0,0.1,0h0
		c0,0,0,0,0.1,0h0h0.1h0c0,0,0,0,0.1,0h0h0.1h0c0,0,0,0,0.1,0h0h0.1h0h0.1h0h0.1h0h0h0c0,0,0,0,0,0h0h0.1h0.1h0c0,0,0.1,0,0.1,0h0
		h0.1h0.1h0c0.4,0,0.9,0,1.3,0l0-1.7C506.7,292.5,506.2,292.5,505.6,292.5 M514,292.6l0,1.7c2.1,0,4.2,0.1,6.2,0.1l0,0
		c0,0,0,0,0.1,0c0,0,0,0,0,0c0,0,0,0,0,0c0,0,0,0,0.1,0c0,0,0,0,0,0c1.2,0,2.4,0.1,3.6,0.1l0-1.7C520.7,292.7,517.3,292.6,514,292.6
		 M530.7,293l-0.1,1.7c1.1,0,2.2,0.1,3.2,0.1c0,0,0,0,0,0c0,0,0,0,0.1,0c0,0,0,0,0,0c0,0,0,0,0.1,0c0,0,0,0,0,0c0,0,0,0,0.1,0
		c0,0,0,0,0,0c0,0,0,0,0,0c0,0,0,0,0,0c0,0,0,0,0,0c0,0,0,0,0,0c0,0,0,0,0,0c0,0,0,0,0,0c0,0,0,0,0,0c0,0,0,0,0,0c0,0,0,0,0,0
		c0,0,0,0,0.1,0l0,0c0.8,0,1.6,0.1,2.5,0.1c0,0,0,0,0,0c0,0,0,0,0,0c0,0,0,0,0.1,0c0,0,0,0,0,0c0,0,0,0,0,0c0,0,0,0,0,0
		c0,0,0,0,0.1,0c0,0,0,0,0,0c0,0,0,0,0.1,0c0,0,0,0,0,0c0,0,0,0,0.1,0c0,0,0,0,0,0c1.1,0.1,2.1,0.1,3.2,0.2l0.1-1.7
		C537.4,293.3,534,293.2,530.7,293 M547.4,293.9l-0.1,1.7c2.2,0.1,4.4,0.3,6.6,0.5l0,0c0,0,0.1,0,0.1,0c0,0,0,0,0,0c0,0,0,0,0,0
		c1.1,0.1,2.1,0.2,3.1,0.2l0.1-1.7C554.1,294.3,550.7,294.1,547.4,293.9 M564,295.2l-0.1,1.7c3.4,0.3,6.7,0.6,10,1l0.2-1.7
		C570.7,295.8,567.4,295.5,564,295.2 M580.7,296.9l-0.2,1.7c3.2,0.4,6.2,0.7,9.1,1.1h0c0,0,0,0,0,0c0.3,0,0.5,0.1,0.8,0.1l0.2-1.7
		C587.4,297.7,584,297.3,580.7,296.9 M597.2,299.1l-0.2,1.6c3.5,0.5,6.8,1.1,9.9,1.6l0.3-1.6C604,300.1,600.7,299.6,597.2,299.1
		 M613.7,301.8l-0.3,1.6c3.8,0.7,7.1,1.4,9.8,2.1l0.4-1.6C620.8,303.3,617.5,302.6,613.7,301.8 M629,297c-0.4,3.9-0.8,7.2-1.2,9.8
		l1.6,0.3c0.2-1,0.3-2.1,0.5-3.2c0,0,0,0,0,0c0,0,0,0,0,0l0,0c0,0,0,0,0,0l0,0c0,0,0,0,0-0.1v0c0,0,0,0,0,0c0,0,0,0,0,0l0,0l0,0
		c0,0,0,0,0,0c0,0,0,0,0,0c0,0,0,0,0,0c0,0,0,0,0,0c0,0,0,0,0,0v0c0,0,0,0,0,0c0,0,0,0,0,0c0,0,0,0,0,0l0,0c0,0,0,0,0-0.1
		c0,0,0,0,0,0c0,0,0,0,0,0c0,0,0,0,0,0l0,0c0,0,0,0,0,0c0,0,0,0,0,0c0.1-1.1,0.3-2.3,0.4-3.5c0,0,0,0,0,0c0,0,0,0,0,0v0c0,0,0,0,0,0
		c0,0,0,0,0,0c0,0,0,0,0,0c0,0,0,0,0,0c0,0,0,0,0,0c0,0,0,0,0-0.1c0,0,0,0,0,0c0,0,0,0,0,0l0,0c0,0,0,0,0,0l0,0
		c0.1-0.8,0.2-1.7,0.3-2.6L629,297z M630.4,280.4c-0.2,3.6-0.5,6.9-0.8,9.9l1.7,0.1c0.3-3,0.5-6.2,0.7-9.6c0,0,0,0,0,0c0,0,0,0,0,0
		c0,0,0,0,0,0c0,0,0,0,0,0c0,0,0,0,0,0c0,0,0,0,0,0c0,0,0,0,0-0.1c0,0,0,0,0,0c0,0,0,0,0,0c0,0,0,0,0,0c0,0,0,0,0,0c0,0,0,0,0,0
		c0,0,0,0,0,0c0,0,0,0,0,0c0,0,0,0,0,0c0,0,0,0,0,0L630.4,280.4z M631.4,263.8c-0.2,3.5-0.4,6.8-0.6,10l1.7,0.1
		c0.2-3.2,0.4-6.5,0.6-10L631.4,263.8z M632.2,247.2c-0.1,3.4-0.3,6.8-0.5,10l1.7,0.1c0.1-1.7,0.2-3.5,0.2-5.3v0c0,0,0,0,0,0
		c0.1-1.5,0.1-3.1,0.2-4.6L632.2,247.2z M632.8,230.5c-0.1,3.4-0.2,6.7-0.4,10l1.7,0.1c0.1-2.6,0.2-5.1,0.3-7.7c0,0,0,0,0,0
		c0,0,0,0,0,0c0-0.7,0.1-1.5,0.1-2.2L632.8,230.5z M633.3,213.9c-0.1,3.3-0.2,6.7-0.3,10l1.7,0.1c0-0.1,0-0.2,0-0.3v0
		c0,0,0-0.1,0-0.1c0,0,0,0,0,0c0,0,0-0.1,0-0.1c0,0,0,0,0-0.1c0,0,0,0,0-0.1c0.1-2.8,0.2-5.6,0.2-8.4c0,0,0,0,0,0c0,0,0-0.1,0-0.1
		c0,0,0-0.1,0-0.1c0,0,0,0,0-0.1c0,0,0-0.1,0-0.1c0,0,0,0,0,0c0,0,0-0.1,0-0.1c0,0,0,0,0,0c0,0,0-0.1,0-0.1c0,0,0,0,0,0
		c0-0.1,0-0.1,0-0.2L633.3,213.9z M633.7,197.2c-0.1,3.3-0.1,6.7-0.2,10l1.7,0c0.1-2.7,0.1-5.3,0.2-7.9c0-0.7,0-1.4,0-2L633.7,197.2
		z M634,180.6c0,3.3-0.1,6.7-0.2,10l1.7,0c0-1.6,0.1-3.2,0.1-4.8c0,0,0,0,0,0c0,0,0,0,0,0c0,0,0,0,0-0.1v0c0-0.9,0-1.8,0-2.7
		c0,0,0,0,0,0v0c0-0.8,0-1.5,0-2.3L634,180.6z M634.1,163.9c0,3.3,0,6.6-0.1,10l1.7,0c0-2.5,0-4.9,0.1-7.4c0-0.9,0-1.8,0-2.6
		L634.1,163.9z M635.8,147.3l-1.7,0l0,1.7c0,2.7,0,5.4,0,8.3l1.7,0c0-2.8,0-5.6,0-8.3C635.8,148.4,635.8,147.8,635.8,147.3
		 M635.7,130.6l-1.7,0c0,3.2,0.1,6.6,0.1,10l1.7,0C635.8,137.1,635.7,133.8,635.7,130.6 M635.5,113.9l-1.7,0c0.1,3.2,0.1,6.6,0.2,10
		l1.7,0c0-0.4,0-0.7,0-1c0,0,0,0,0,0c0,0,0,0,0,0c0-2.2-0.1-4.3-0.1-6.3C635.5,115.6,635.5,114.8,635.5,113.9 M635,97.3l-1.7,0.1
		c0.1,3.2,0.2,6.5,0.3,10l1.7,0c0-0.8,0-1.5-0.1-2.3C635.2,102.3,635.1,99.7,635,97.3 M634.2,80.6l-1.7,0.1c0.2,3.1,0.4,6.4,0.5,10
		l1.7-0.1C634.6,86.9,634.4,83.6,634.2,80.6 M632.8,64l-1.7,0.2c0.4,2.7,0.7,6,1,9.9l1.7-0.1c-0.1-1.3-0.2-2.6-0.3-3.7c0,0,0,0,0,0
		c0,0,0,0,0,0v0c0,0,0,0,0,0c0,0,0,0,0,0c0,0,0,0,0,0c0,0,0,0,0,0c0,0,0,0,0,0c0,0,0,0,0,0c0,0,0,0,0,0
		C633.2,67.8,633,65.7,632.8,64 M628.6,48l-1.5,0.6c1.2,2.9,2.2,6,3,9.2l1.6-0.4c-0.7-3-1.6-5.8-2.6-8.4v0c0,0,0,0,0,0c0,0,0,0,0,0
		c0,0,0,0,0,0c0,0,0,0,0,0c0,0,0,0,0,0c0,0,0,0,0,0c0,0,0,0,0,0c0,0,0,0,0,0c0,0,0,0,0,0c0,0,0,0,0,0c0,0,0,0,0,0c0,0,0,0,0,0
		c0,0,0,0,0,0c0,0,0,0,0,0c0,0,0,0,0-0.1l0,0c0,0,0,0,0,0c0,0,0,0,0,0c0,0,0,0,0,0c0,0,0,0,0,0c0,0,0,0,0,0c0,0,0,0,0,0c0,0,0,0,0,0
		c0,0,0,0,0,0c0,0,0,0,0,0c0,0,0,0,0,0c0,0,0,0,0,0c0,0,0,0,0,0c0,0,0,0,0,0c0,0,0,0,0,0c0,0,0,0,0,0c0,0,0,0,0,0c0,0,0,0,0,0
		c0-0.1-0.1-0.2-0.1-0.2v0C628.6,48.1,628.6,48,628.6,48 M619.9,33.8l-1.3,1.1c2.1,2.5,4,5.1,5.6,7.9l1.4-0.8c-0.6-1-1.2-2-1.8-3
		c0,0,0,0,0,0c0,0,0,0,0,0l0,0c0,0,0-0.1-0.1-0.1c0,0,0,0,0,0c0,0,0,0,0,0c0,0,0,0,0,0c0,0,0,0-0.1-0.1c0,0,0,0,0,0c0,0,0,0,0,0
		c0,0,0,0,0,0c0,0,0,0,0,0c0,0,0,0,0,0c0,0,0,0,0,0c0,0,0,0,0,0c0,0,0,0,0,0c0,0,0,0,0,0c0,0,0,0,0,0c0,0,0,0,0,0c0,0,0,0,0,0
		c0,0,0,0,0,0c0,0,0,0,0,0c0,0,0,0,0,0c0,0,0,0,0,0c0,0,0,0,0,0c0,0,0,0,0,0c0,0,0,0,0,0c0,0,0,0,0,0c0,0,0,0,0,0c0,0,0,0,0,0
		c0,0,0,0,0,0c0,0,0,0,0,0c0,0,0,0,0,0c0,0,0,0,0,0c0,0,0,0,0,0c0,0,0,0,0,0c0,0,0,0,0,0c0,0,0,0,0,0c0,0,0,0,0,0l0,0c0,0,0,0,0,0
		c0,0,0,0,0,0c0,0,0,0,0,0c0,0,0,0,0,0l0,0c0,0,0,0,0,0c0,0,0-0.1-0.1-0.1c0,0,0,0,0,0l0,0l0,0c0,0,0-0.1-0.1-0.1l0,0
		C622,36.5,621,35.1,619.9,33.8 M607.4,22.8l-0.9,1.4c2.8,1.8,5.3,3.9,7.6,6l1.1-1.2c0,0,0,0,0,0c0,0,0,0,0,0c0,0,0,0,0,0
		c0,0,0,0,0,0c0,0,0,0-0.1-0.1c0,0,0,0,0,0c0,0,0,0,0,0c0,0,0,0,0,0c0,0,0,0,0,0c0,0,0,0,0,0c0,0,0,0,0,0l0,0c0,0,0,0-0.1-0.1
		c0,0,0,0,0,0c0,0,0,0,0,0c0,0,0,0,0,0c0,0,0,0,0,0c0,0,0,0,0,0c0,0,0,0,0,0c0,0,0,0,0,0c0,0,0,0,0,0c0,0,0,0,0,0c0,0,0,0,0,0
		c0,0,0,0,0,0c0,0,0,0,0,0c0,0,0,0,0,0c0,0,0,0-0.1,0c0,0,0,0,0,0c0,0,0,0,0,0c0,0,0,0,0,0c0,0,0,0,0,0c0,0,0,0,0,0c0,0,0,0,0,0
		c0,0,0,0,0,0l0,0c0,0,0,0,0,0c0,0,0,0,0,0c0,0,0,0,0,0c0,0,0,0,0,0c0,0,0,0,0,0c0,0,0,0,0,0c0,0,0,0,0,0c0,0,0,0,0,0c0,0,0,0,0,0
		c0,0,0,0,0,0c0,0,0,0,0,0c0,0,0,0,0,0l0,0c0,0,0,0,0,0c0,0,0,0,0,0c0,0,0,0,0,0c0,0,0,0,0,0c0,0,0,0,0,0l0,0c0,0,0,0,0,0
		c0,0,0,0,0,0c0,0,0,0,0,0c0,0,0,0,0,0c0,0,0,0,0,0c0,0,0,0,0,0c0,0,0,0,0,0c0,0,0,0,0,0c0,0,0,0,0,0c0,0,0,0,0,0c0,0,0,0,0,0
		c0,0,0,0,0,0c0,0,0,0,0,0c0,0,0,0,0,0c0,0,0,0,0,0c0,0,0,0,0,0c0,0,0,0,0,0c0,0,0,0,0,0c0,0,0,0,0,0c0,0,0,0,0,0c0,0,0,0,0,0
		c0,0,0,0,0,0c0,0,0,0,0,0c0,0,0,0,0,0c0,0,0,0,0,0c0,0,0,0,0,0c0,0,0,0,0,0c0,0,0,0,0,0c0,0,0,0,0,0c0,0,0,0,0,0c0,0,0,0,0,0
		c0,0,0,0,0,0c0,0,0,0,0,0c0,0,0,0,0,0c0,0,0,0,0,0c0,0,0,0,0,0c0,0,0,0,0,0c0,0,0,0,0,0c0,0,0,0,0,0c0,0,0,0,0,0c0,0,0,0,0,0
		c0,0,0,0,0,0c0,0,0,0,0,0c0,0,0,0,0,0c0,0,0,0,0,0c0,0,0,0,0,0l0,0c0,0,0,0,0,0c0,0,0,0,0,0c0,0,0,0,0,0c0,0,0,0,0,0c0,0,0,0,0,0
		c0,0,0,0,0,0c0,0,0,0,0,0c0,0,0,0,0,0c0,0,0,0,0,0c0,0,0,0,0,0c0,0,0,0,0,0c0,0,0,0,0,0c0,0,0,0,0,0c0,0,0,0,0,0c0,0,0,0,0,0
		c0,0,0,0,0,0c0,0,0,0,0,0c0,0,0,0,0,0c0,0,0,0,0,0c0,0,0,0,0,0c0,0,0,0,0,0c0,0,0,0,0,0c0,0,0,0,0,0c0,0,0,0,0,0c0,0,0,0,0,0
		c0,0,0,0,0,0c0,0,0,0,0,0c0,0,0,0,0,0c0,0,0,0,0,0c0,0,0,0,0,0c0,0,0,0,0,0c0,0,0,0,0,0c0,0,0,0-0.1,0c0,0,0,0,0,0c0,0,0,0,0,0
		c0,0,0,0,0,0c0,0,0,0-0.1,0c0,0,0,0,0,0c0,0,0,0,0,0l0,0c0,0,0,0,0,0c0,0,0,0,0,0c0,0,0,0,0,0c0,0,0,0,0,0c0,0,0,0-0.1,0
		c0,0,0,0,0,0c0,0,0,0,0,0c0,0,0,0,0,0c0,0,0,0-0.1,0c0,0,0,0,0,0c-1.3-1.1-2.6-2-3.9-3c0,0,0,0,0,0l0,0c0,0,0,0,0,0c0,0,0,0,0,0h0
		c0,0,0,0,0,0c0,0,0,0,0,0c0,0,0,0-0.1,0c0,0,0,0,0,0c0,0,0,0,0,0c0,0,0,0,0,0c0,0,0,0,0,0c0,0,0,0,0,0c0,0,0,0,0,0c0,0,0,0,0,0
		c0,0,0,0,0,0c0,0,0,0,0,0c0,0,0,0,0,0c0,0,0,0,0,0l0,0c0,0,0,0,0,0c0,0,0,0,0,0c0,0,0,0,0,0c0,0,0,0,0,0c0,0,0,0,0,0c0,0,0,0,0,0
		c0,0,0,0,0,0c0,0,0,0,0,0c0,0,0,0,0,0c0,0,0,0,0,0c0,0,0,0,0,0c0,0,0,0,0,0c0,0,0,0,0,0c0,0,0,0,0,0c0,0,0,0,0,0c0,0,0,0,0,0
		c0,0,0,0-0.1,0c0,0,0,0,0,0c0,0,0,0,0,0c0,0,0,0,0,0C608,23.2,607.7,23,607.4,22.8 M592.6,15.2l-0.6,1.5c0.6,0.3,1.3,0.5,2,0.8
		c2.4,1,4.7,2.1,6.9,3.3l0.8-1.5c-2.4-1.3-4.7-2.4-7-3.4c0,0,0,0,0,0c0,0,0,0,0,0c0,0,0,0,0,0c0,0,0,0,0,0c-0.1-0.1-0.2-0.1-0.4-0.2
		c0,0,0,0-0.1,0l0,0c0,0,0,0-0.1,0c0,0,0,0,0,0c0,0,0,0-0.1,0c0,0,0,0,0,0c0,0,0,0-0.1,0c0,0,0,0,0,0c0,0,0,0-0.1,0c0,0,0,0,0,0
		c0,0,0,0,0,0c0,0,0,0,0,0c0,0,0,0,0,0c0,0,0,0,0,0c0,0,0,0,0,0c0,0,0,0,0,0c0,0,0,0,0,0c0,0,0,0,0,0c0,0,0,0,0,0c0,0,0,0,0,0
		c0,0,0,0,0,0c0,0,0,0,0,0c0,0,0,0,0,0c0,0,0,0,0,0c0,0,0,0,0,0c0,0,0,0,0,0c0,0,0,0,0,0c0,0,0,0,0,0c0,0,0,0,0,0c0,0,0,0,0,0
		c0,0,0,0,0,0c0,0,0,0,0,0l0,0c0,0,0,0,0,0c0,0,0,0,0,0c0,0,0,0,0,0c0,0,0,0,0,0c0,0,0,0,0,0c0,0,0,0-0.1,0c0,0,0,0,0,0
		C592.9,15.3,592.8,15.2,592.6,15.2 M576.6,10.6l-0.3,1.6c3.4,0.7,6.6,1.4,9.5,2.3l0.5-1.6c-1.8-0.5-3.7-1.1-5.7-1.5l0,0
		c0,0,0,0,0,0l0,0c0,0,0,0,0,0c0,0,0,0,0,0c0,0,0,0,0,0c0,0,0,0,0,0c0,0,0,0,0,0l0,0c0,0,0,0-0.1,0c0,0,0,0,0,0c0,0,0,0-0.1,0
		c0,0,0,0,0,0c0,0,0,0,0,0c0,0,0,0,0,0c0,0,0,0,0,0c0,0,0,0,0,0c0,0,0,0,0,0c0,0,0,0,0,0c0,0,0,0,0,0c0,0,0,0,0,0c0,0,0,0,0,0
		c0,0,0,0,0,0c0,0,0,0,0,0c0,0,0,0,0,0c0,0,0,0,0,0c0,0,0,0,0,0c0,0,0,0,0,0c0,0,0,0,0,0c0,0,0,0,0,0
		C579,11.1,577.9,10.8,576.6,10.6 M560.1,8.4l-0.1,1.7c3.6,0.3,6.8,0.7,9.9,1.1l0.2-1.7c-0.8-0.1-1.6-0.2-2.4-0.3c0,0,0,0,0,0
		c0,0,0,0,0,0l0,0c0,0,0,0,0,0c0,0,0,0,0,0c0,0,0,0,0,0c0,0,0,0,0,0c0,0,0,0,0,0c0,0,0,0,0,0c0,0,0,0,0,0c0,0,0,0,0,0c0,0,0,0,0,0
		l0,0c0,0,0,0,0,0c0,0,0,0,0,0l0,0c-1.1-0.1-2.2-0.3-3.3-0.4h0c0,0,0,0,0,0h0c0,0,0,0,0,0l0,0c0,0-0.1,0-0.1,0l0,0c0,0,0,0,0,0
		c0,0,0,0,0,0c0,0,0,0,0,0c0,0,0,0,0,0c0,0-0.1,0-0.1,0h0c0,0,0,0,0,0c0,0,0,0,0,0c0,0,0,0,0,0c0,0,0,0,0,0c0,0,0,0,0,0c0,0,0,0,0,0
		c0,0,0,0,0,0c0,0,0,0,0,0c0,0,0,0,0,0c0,0,0,0,0,0c0,0,0,0,0,0c0,0,0,0,0,0c0,0,0,0,0,0c0,0,0,0,0,0l0,0c0,0,0,0,0,0c0,0,0,0,0,0
		c0,0,0,0,0,0c0,0,0,0,0,0c0,0,0,0,0,0c0,0,0,0,0,0c0,0,0,0,0,0c0,0,0,0,0,0C562.3,8.6,561.2,8.5,560.1,8.4 M543.5,7.3L543.4,9
		c3.5,0.2,6.9,0.3,9.9,0.6l0.1-1.7c-2.6-0.2-5.5-0.3-8.5-0.5c0,0,0,0,0,0c0,0,0,0,0,0c0,0,0,0,0,0c0,0,0,0,0,0c0,0,0,0,0,0
		c0,0,0,0,0,0C544.4,7.4,544,7.4,543.5,7.3 M526.8,6.8l0,1.7c3.5,0.1,6.8,0.2,10,0.3l0.1-1.7c-0.1,0-0.3,0-0.4,0c0,0,0,0,0,0
		c0,0,0,0,0,0c0,0,0,0,0,0h0c-1.6-0.1-3.2-0.1-4.9-0.2l0,0c0,0,0,0,0,0h0c0,0,0,0,0,0C529.9,6.9,528.4,6.8,526.8,6.8 M510.2,6.5
		l0,1.7c3.5,0,6.8,0.1,10,0.1l0-1.7C517,6.6,513.7,6.5,510.2,6.5 M493.5,6.4l0,1.7c3.4,0,6.8,0,10,0l0-1.7
		C500.3,6.4,497,6.4,493.5,6.4"/>
	<path class="st0" d="M838.7,394.5c0,0-0.7,0.3-2,0.7c-1.6,0.6-4.2,1.6-7.4,2.8l0.6,1.6c3.7-1.4,6.6-2.5,8.1-3.1L838.7,394.5z
		 M823.2,400.4c-0.9,0.3-1.8,0.7-2.7,1c0,0,0,0,0,0c0,0,0,0,0,0c0,0,0,0,0,0c0,0,0,0,0,0c0,0,0,0,0,0c0,0,0,0,0,0
		c-2.1,0.8-4.3,1.7-6.5,2.6l0.6,1.5c3-1.2,6.1-2.4,9.3-3.7L823.2,400.4z M807.7,406.6c-0.1,0-0.2,0.1-0.4,0.1c0,0,0,0,0,0
		c0,0-0.1,0-0.1,0c0,0-0.1,0-0.1,0c0,0,0,0,0,0c0,0-0.1,0-0.1,0.1c0,0,0,0,0,0c-1.1,0.5-2.3,1-3.4,1.4c0,0,0,0,0,0
		c0,0-0.1,0-0.1,0.1c0,0,0,0,0,0c0,0-0.1,0-0.1,0.1c0,0,0,0,0,0l-0.1,0c0,0,0,0-0.1,0c0,0-0.1,0-0.1,0c0,0-0.1,0-0.1,0c0,0,0,0,0,0
		c-1.5,0.6-2.9,1.2-4.4,1.9l0.7,1.5c2.9-1.2,6-2.5,9.2-3.9L807.7,406.6z M792.4,413.2c-3.2,1.4-6.2,2.8-9.1,4.2l0.7,1.5
		c2.7-1.3,5.8-2.7,9-4.2L792.4,413.2z M777.3,420.4c-2.3,1.2-4.7,2.4-7,3.7c0,0,0,0,0,0c0,0,0,0-0.1,0c0,0,0,0,0,0c0,0,0,0,0,0
		c0,0,0,0-0.1,0c0,0,0,0,0,0c-0.5,0.3-1.1,0.6-1.6,0.9l0.8,1.5c3-1.6,5.9-3.2,8.8-4.7L777.3,420.4z M762.7,428.3
		c-0.5,0.3-0.9,0.5-1.4,0.8c0,0,0,0,0,0c0,0-0.1,0-0.1,0.1c0,0-0.1,0-0.1,0c0,0,0,0,0,0c0,0-0.1,0-0.1,0.1c0,0,0,0,0,0
		c0,0-0.1,0-0.1,0.1c0,0,0,0,0,0c0,0-0.1,0-0.1,0.1l0,0c-1.7,1-3.4,2-5.1,3c0,0,0,0,0,0c0,0-0.1,0-0.1,0.1c0,0,0,0,0,0
		c0,0-0.1,0-0.1,0.1c0,0,0,0,0,0c0,0-0.1,0-0.1,0.1c0,0,0,0,0,0c0,0,0,0-0.1,0c-0.3,0.2-0.6,0.4-1,0.6l0.9,1.4
		c2.8-1.7,5.7-3.4,8.6-5.1L762.7,428.3z M748.5,437c-1.1,0.7-2.2,1.4-3.3,2.1l0,0c0,0,0,0-0.1,0c0,0,0,0,0,0c0,0,0,0-0.1,0
		c0,0,0,0,0,0c0,0,0,0,0,0c0,0,0,0,0,0c0,0,0,0,0,0c-1.6,1.1-3.2,2.1-4.8,3.2l0.9,1.4c2.7-1.8,5.5-3.7,8.3-5.5L748.5,437z
		 M734.6,446.3c-2.8,2-5.5,4-8,6l1,1.3c2.4-1.9,5.1-3.9,7.9-6L734.6,446.3z M721.5,456.5c-0.6,0.5-1.1,1-1.7,1.5c0,0,0,0,0,0
		c0,0,0,0,0,0c0,0,0,0,0,0c0,0,0,0,0,0c0,0,0,0,0,0c0,0,0,0,0,0c0,0,0,0,0,0c0,0,0,0,0,0l0,0c0,0,0,0,0,0c-0.8,0.7-1.7,1.5-2.6,2.3
		c-0.7,0.7-1.5,1.3-2.3,2c-0.2,0.2-0.5,0.4-0.7,0.6l1.1,1.2c1-0.9,2-1.8,3-2.7c0.9-0.8,1.8-1.6,2.7-2.4c0.6-0.5,1.2-1,1.8-1.5
		L721.5,456.5z M709,467.6c-0.8,0.7-1.6,1.5-2.5,2.3c0,0,0,0,0,0c0,0,0,0-0.1,0c0,0,0,0,0,0c0,0,0,0,0,0c0,0,0,0,0,0c0,0,0,0,0,0
		c0,0,0,0,0,0c0,0,0,0,0,0c0,0,0,0,0,0c0,0,0,0,0,0c-0.6,0.6-1.2,1.2-1.9,1.8c0,0,0,0,0,0c0,0,0,0,0,0c0,0,0,0,0,0c0,0,0,0,0,0
		c0,0,0,0,0,0c0,0,0,0,0,0l0,0c0,0,0,0,0,0c0,0,0,0,0,0c0,0,0,0,0,0c0,0,0,0-0.1,0c0,0,0,0,0,0c0,0,0,0-0.1,0.1c0,0,0,0,0,0
		c-0.8,0.7-1.5,1.4-2.3,2.2l1.2,1.2c2.3-2.2,4.7-4.4,7.3-6.8L709,467.6z M697,479.1c-2.2,2.3-4.6,4.7-6.9,7.2l1.2,1.1
		c2.2-2.4,4.5-4.8,6.9-7.2L697,479.1L697,479.1z M685.6,491.3c-2.1,2.4-4.3,4.9-6.5,7.6l1.3,1.1c2.1-2.6,4.3-5.1,6.5-7.6
		L685.6,491.3z M674.9,504.1c-0.3,0.4-0.7,0.9-1,1.3l0,0c0,0-0.1,0.1-0.1,0.1c0,0,0,0,0,0c0,0,0,0,0,0c0,0,0,0,0,0c0,0,0,0,0,0
		c-1.6,2.1-3.2,4.2-4.9,6.4l1.3,1c2-2.7,4-5.3,6-7.9L674.9,504.1z M665,517.4c0,0.1-0.1,0.1-0.1,0.2c0,0,0,0,0,0c0,0,0,0,0,0
		c0,0,0,0,0,0c0,0,0,0,0,0c-1.3,1.8-2.6,3.7-3.9,5.6c0,0,0,0,0,0c0,0,0,0,0,0c0,0,0,0,0,0c0,0,0,0,0,0c0,0.1-0.1,0.1-0.1,0.1
		c0,0,0,0,0,0c0,0,0,0,0,0c0,0,0,0,0,0c0,0,0,0,0,0c0,0,0,0,0,0c0,0-0.1,0.1-0.1,0.1c0,0,0,0,0,0c0,0,0,0,0,0c0,0,0,0,0,0
		c0,0,0,0,0,0c0,0,0,0,0,0c0,0-0.1,0.1-0.1,0.1c0,0,0,0,0,0c0,0,0,0,0,0c0,0,0,0,0,0c0,0,0,0,0,0c0,0,0,0,0,0c0,0.1-0.1,0.1-0.1,0.2
		c0,0,0,0,0,0c-0.3,0.4-0.5,0.8-0.8,1.2l1.4,0.9c1.8-2.8,3.7-5.5,5.6-8.2L665,517.4z M655.7,531.3c-0.2,0.3-0.4,0.5-0.5,0.8
		c0,0,0,0,0,0c0,0,0,0.1-0.1,0.1c0,0,0,0,0,0.1c0,0,0,0,0,0c-1.6,2.5-3.2,5-4.7,7.4l1.4,0.9c1.7-2.7,3.5-5.6,5.4-8.4L655.7,531.3z
		 M646.7,545.4c-0.9,1.4-1.7,2.8-2.6,4.2l0,0c0,0,0,0,0,0.1c0,0,0,0,0,0c0,0.1-0.1,0.1-0.1,0.2c0,0,0,0,0,0c0,0,0,0,0,0.1
		c0,0,0,0,0,0c0,0.1-0.1,0.1-0.1,0.2c0,0,0,0,0,0c0,0,0,0,0,0c0,0,0,0,0,0l0,0.1c0,0,0,0,0,0l0,0c0,0,0,0,0,0.1c0,0,0,0,0,0
		c0,0,0,0.1,0,0.1c0,0,0,0,0,0c0,0,0,0,0,0.1c0,0,0,0,0,0c0,0,0,0,0,0.1c0,0,0,0,0,0c0,0,0,0.1-0.1,0.1c0,0,0,0,0,0c0,0,0,0.1,0,0.1
		c0,0,0,0,0,0c0,0,0,0.1,0,0.1c0,0,0,0,0,0c-0.6,1-1.2,2-1.8,3l1.4,0.8c1.6-2.8,3.4-5.7,5.1-8.5L646.7,545.4z M638.3,559.7
		c-1,1.8-2,3.5-3,5.3l0,0c0,0,0,0,0,0.1c0,0,0,0,0,0l0,0.1c0,0,0,0,0,0c0,0,0,0,0,0c0,0,0,0,0,0c0,0,0,0,0,0.1c0,0,0,0,0,0
		c0,0,0,0,0,0c0,0,0,0,0,0.1c0,0,0,0,0,0c0,0,0,0,0,0.1c0,0,0,0,0,0c-0.5,1-1.1,2-1.6,3l1.5,0.8c1.5-2.9,3.2-5.8,4.8-8.7
		L638.3,559.7z M630.3,574.3c-1.6,3.1-3.1,6-4.5,8.9l1.5,0.7c1.4-3,3-6,4.5-8.9L630.3,574.3z M622.9,589.3c-0.2,0.5-0.4,0.9-0.6,1.4
		c0,0,0,0,0,0c0,0,0,0,0,0c-0.9,2-1.8,3.9-2.7,5.8c0,0,0,0,0,0c0,0,0,0,0,0.1c0,0,0,0,0,0c0,0,0,0,0,0c0,0,0,0,0,0c0,0,0,0,0,0
		c0,0,0,0,0,0.1c0,0,0,0,0,0c-0.2,0.5-0.5,1.1-0.7,1.6l1.5,0.7c1.4-3.2,2.8-6.2,4.1-9.1L622.9,589.3z M616.1,604.5
		c-0.6,1.4-1.2,2.8-1.8,4.2c-0.7,1.6-1.3,3.1-1.9,4.5c-0.1,0.2-0.1,0.4-0.2,0.5l1.5,0.6c0.7-1.8,1.4-3.4,2.1-5
		c0.6-1.4,1.2-2.8,1.8-4.2L616.1,604.5z M609.6,619.8c-1.6,3.9-2.9,6.9-4,9.2l1.5,0.7c1.1-2.4,2.4-5.5,4-9.2L609.6,619.8z
		 M593.6,631.1c-0.1,1.2-0.4,4.9,5,6.1c0.5,0.1,0.9,0.2,1.3,0.2c1.3,0,2.4-0.5,3.5-1.5l-1.2-1.2c-0.3,0.3-0.7,0.6-1,0.7c0,0,0,0,0,0
		c0,0,0,0,0,0c0,0-0.1,0-0.1,0l0,0c0,0,0,0,0,0c0,0,0,0,0,0c0,0,0,0,0,0c0,0,0,0,0,0c0,0,0,0-0.1,0c0,0,0,0,0,0l0,0c0,0,0,0,0,0
		c0,0,0,0,0,0c0,0,0,0,0,0c0,0,0,0,0,0c0,0,0,0,0,0c0,0,0,0,0,0c0,0,0,0,0,0h0c0,0,0,0,0,0c0,0,0,0,0,0c0,0,0,0,0,0c0,0,0,0,0,0
		c0,0,0,0,0,0c0,0,0,0,0,0c0,0,0,0,0,0c0,0,0,0,0,0l0,0c0,0,0,0,0,0c0,0,0,0,0,0c0,0,0,0,0,0c0,0,0,0,0,0c0,0,0,0,0,0c0,0,0,0,0,0
		c0,0,0,0,0,0c0,0,0,0,0,0c0,0,0,0,0,0c0,0,0,0,0,0c0,0,0,0,0,0c0,0,0,0,0,0c0,0,0,0,0,0c0,0,0,0,0,0c0,0,0,0,0,0c0,0,0,0,0,0
		c0,0,0,0,0,0c0,0,0,0,0,0c0,0,0,0,0,0c0,0,0,0,0,0c0,0,0,0,0,0c0,0,0,0,0,0c0,0,0,0,0,0c0,0,0,0,0,0c0,0,0,0,0,0c0,0,0,0,0,0
		c0,0,0,0,0,0c0,0,0,0,0,0l0,0c0,0,0,0,0,0c0,0,0,0,0,0c0,0,0,0,0,0c0,0,0,0,0,0c0,0,0,0,0,0l0,0c0,0,0,0,0,0c0,0,0,0,0,0
		c0,0,0,0,0,0c0,0,0,0,0,0c0,0,0,0,0,0c0,0,0,0,0,0c0,0,0,0,0,0l0,0c0,0,0,0,0,0c0,0,0,0,0,0c0,0,0,0,0,0c0,0,0,0,0,0c0,0,0,0,0,0
		c0,0,0,0,0,0c0,0,0,0,0,0c0,0,0,0,0,0c0,0,0,0,0,0c0,0,0,0,0,0c0,0,0,0,0,0c0,0,0,0,0,0c0,0,0,0,0,0l0,0c0,0,0,0,0,0c0,0,0,0,0,0
		c0,0,0,0,0,0c0,0,0,0,0,0c0,0,0,0,0,0c0,0,0,0,0,0c0,0,0,0,0,0l0,0c0,0,0,0,0,0c0,0,0,0,0,0c0,0,0,0,0,0c0,0,0,0,0,0c0,0,0,0,0,0
		c0,0,0,0,0,0c0,0,0,0,0,0c0,0,0,0,0,0c0,0,0,0,0,0c0,0,0,0,0,0l0,0c0,0,0,0,0,0c0,0,0,0,0,0c0,0,0,0,0,0c0,0,0,0,0,0c0,0,0,0,0,0
		c0,0,0,0,0,0c0,0,0,0,0,0c0,0,0,0,0,0c0,0,0,0,0,0c0,0,0,0,0,0c0,0,0,0,0,0c0,0,0,0,0,0c0,0,0,0,0,0c0,0,0,0,0,0c0,0,0,0,0,0
		c0,0,0,0,0,0c0,0,0,0,0,0c0,0,0,0,0,0c0,0,0,0,0,0c0,0,0,0,0,0c0,0,0,0,0,0c0,0,0,0,0,0c0,0,0,0,0,0c0,0,0,0,0,0c0,0,0,0,0,0
		s0,0,0,0c0,0,0,0,0,0c0,0,0,0,0,0c0,0,0,0,0,0c0,0,0,0,0,0c0,0,0,0,0,0l0,0c0,0,0,0,0,0c0,0,0,0,0,0l0,0c0,0,0,0,0,0c0,0,0,0,0,0
		c0,0,0,0,0,0c0,0,0,0,0,0c0,0,0,0,0,0c0,0,0,0,0,0c0,0,0,0,0,0c0,0,0,0,0,0l0,0c0,0,0,0,0,0c0,0,0,0,0,0c0,0,0,0,0,0c0,0,0,0,0,0
		c0,0,0,0,0,0c0,0,0,0,0,0l0,0c0,0,0,0,0,0c0,0,0,0,0,0l0,0c0,0,0,0,0,0c0,0,0,0,0,0c0,0,0,0,0,0c0,0,0,0,0,0c0,0,0,0,0,0
		c0,0,0,0,0,0s0,0,0,0c0,0,0,0,0,0c0,0,0,0,0,0c0,0,0,0,0,0c0,0,0,0,0,0c0,0,0,0,0,0c0,0,0,0,0,0c0,0,0,0,0,0c0,0,0,0,0,0h0
		c0,0,0,0,0,0c0,0,0,0,0,0c0,0,0,0,0,0c0,0,0,0,0,0c0,0,0,0,0,0c0,0,0,0,0,0c0,0,0,0,0,0c0,0,0,0,0,0c0,0,0,0,0,0c0,0,0,0,0,0
		c0,0,0,0,0,0c0,0,0,0,0,0c0,0,0,0,0,0c0,0,0,0,0,0c0,0,0,0,0,0c0,0,0,0,0,0c0,0,0,0,0,0c0,0,0,0,0,0c0,0,0,0,0,0h0c0,0,0,0,0,0
		c0,0,0,0,0,0c0,0,0,0,0,0h0c0,0,0,0,0,0c0,0,0,0,0,0h0c0,0,0,0,0,0h0c0,0,0,0,0,0h0h0c0,0,0,0,0,0h0h0h0h0c-0.3,0-0.6,0-1-0.1
		c0,0,0,0,0,0c0,0,0,0,0,0c0,0,0,0,0,0c0,0,0,0,0,0c0,0,0,0,0,0c0,0,0,0,0,0c0,0,0,0,0,0c0,0,0,0,0,0c0,0,0,0,0,0c0,0,0,0,0,0
		c0,0,0,0,0,0c0,0,0,0,0,0c0,0,0,0,0,0c0,0,0,0,0,0c0,0,0,0,0,0c0,0,0,0,0,0c0,0,0,0,0,0c0,0,0,0,0,0c0,0,0,0,0,0c0,0,0,0,0,0
		c0,0,0,0,0,0c0,0,0,0,0,0c0,0,0,0,0,0c0,0,0,0,0,0c0,0,0,0,0,0c0,0,0,0,0,0c0,0,0,0,0,0c0,0,0,0,0,0c0,0,0,0,0,0c0,0,0,0,0,0
		c0,0,0,0,0,0c0,0,0,0,0,0c0,0,0,0,0,0c0,0,0,0,0,0c0,0,0,0,0,0c0,0,0,0,0,0c0,0,0,0,0,0c0,0,0,0,0,0c0,0,0,0,0,0c0,0,0,0,0,0l0,0
		c0,0,0,0,0,0c0,0,0,0,0,0c0,0,0,0,0,0c0,0,0,0,0,0c0,0,0,0,0,0c0,0,0,0,0,0c0,0,0,0,0,0c0,0,0,0,0,0l0,0c0,0,0,0,0,0c0,0,0,0-0.1,0
		c0,0,0,0,0,0c0,0,0,0,0,0h0c-3.1-0.9-3.2-2.8-3.1-4.2L593.6,631.1z M592,618.2l-0.1,1.7l2.3,0.2c-0.1,1.2-0.2,2.8-0.2,4.4l1.7,0.1
		c0.1-2.5,0.3-5,0.3-5.8c0,0,0,0,0,0c0,0,0-0.1,0-0.1c0,0,0,0,0,0c0,0,0,0,0,0v0c0,0,0,0,0,0c0,0,0,0,0,0c0,0,0,0,0,0c0,0,0,0,0,0
		c0,0,0,0,0,0c0,0,0,0,0,0c0,0,0,0,0,0c0,0,0,0,0,0c0,0,0,0,0,0c0,0,0,0,0,0c0,0,0,0,0,0c0,0,0,0,0,0c0,0,0,0,0,0c0,0,0,0,0,0
		c0,0,0,0,0,0c0,0,0,0,0,0s0,0,0,0c0,0,0,0,0,0c0,0,0,0,0,0v0c0,0,0,0,0,0c0,0,0,0,0,0c0,0,0,0,0,0v0v0c0,0,0,0,0,0v0v0v0
		c0,0,0,0,0,0L592,618.2z M575.4,616.8l-0.1,1.7l10,0.8l0.1-1.7l-9.8-0.8c0,0,0,0,0,0l0,0c0,0,0,0,0,0l0,0c0,0,0,0,0,0l0,0
		c0,0,0,0,0,0l0,0C575.5,616.8,575.5,616.8,575.4,616.8L575.4,616.8C575.4,616.8,575.4,616.8,575.4,616.8L575.4,616.8
		C575.4,616.8,575.4,616.8,575.4,616.8L575.4,616.8C575.4,616.8,575.4,616.8,575.4,616.8L575.4,616.8
		C575.4,616.8,575.4,616.8,575.4,616.8L575.4,616.8C575.4,616.8,575.4,616.8,575.4,616.8L575.4,616.8
		C575.4,616.8,575.4,616.8,575.4,616.8L575.4,616.8C575.4,616.8,575.4,616.8,575.4,616.8L575.4,616.8
		C575.4,616.8,575.4,616.8,575.4,616.8C575.4,616.8,575.4,616.8,575.4,616.8L575.4,616.8C575.4,616.8,575.4,616.8,575.4,616.8
		L575.4,616.8C575.4,616.8,575.4,616.8,575.4,616.8L575.4,616.8L575.4,616.8L575.4,616.8z M558.7,615.4l-0.1,1.7l10,0.8l0.1-1.7
		c0,0-1.8-0.1-3.8-0.3L558.7,615.4z M542.1,614l-0.1,1.7l10,0.8l0.1-1.7l-5.3-0.4c0,0,0,0,0,0l0,0c0,0,0,0,0,0l0,0c0,0,0,0,0,0l0,0
		c0,0,0,0,0,0l0,0c0,0,0,0,0,0l0,0c0,0,0,0,0,0l0,0C544.3,614.2,542.1,614,542.1,614 M525.5,612.8l-0.1,1.7c2.7,0.1,4.5,0.1,4.8,0.2
		l5.1,0.4l0.1-1.7l-5.2-0.4c0,0-0.6,0-1.7-0.1c0,0,0,0,0,0c0,0,0,0,0,0C527.8,612.9,526.8,612.9,525.5,612.8 M508.9,612.4l0,1.7
		c2.9,0.1,6.3,0.1,10,0.2l0-1.7c-1.5,0-3.1-0.1-4.7-0.1h0c0,0,0,0,0,0c0,0,0,0,0,0c0,0,0,0,0,0C512.4,612.5,510.6,612.4,508.9,612.4
		 M501.8,612.3L501.8,612.3L501.8,612.3h-0.1h0h0h0h0c0,0,0,0,0,0h0h-0.1h0c0,0,0,0,0,0h0h0h0c0,0,0,0,0,0h0h0h0c0,0,0,0,0,0h0h0
		c0,0,0,0,0,0h0h0c0,0,0,0,0,0h0h0c0,0,0,0-0.1,0h0c0,0-0.1,0-0.1,0h0c0,0-0.1,0-0.1,0c0,0,0,0,0,0c0,0,0,0,0,0h0c0,0,0,0,0,0h0
		c0,0,0,0,0,0c0,0,0,0,0,0c0,0,0,0,0,0h0c0,0,0,0,0,0h0c0,0,0,0-0.1,0c0,0,0,0,0,0c-1.6,0-3.4,0-5.3,0.1h0c0,0-0.1,0-0.1,0
		c0,0,0,0,0,0c0,0-0.1,0-0.1,0c0,0,0,0,0,0c0,0,0,0,0,0c0,0,0,0,0,0c0,0,0,0,0,0c0,0,0,0,0,0c0,0,0,0,0,0c-0.9,0-1.9,0.1-2.8,0.1
		l0.1,1.7c3.9-0.1,7.1-0.2,9.5-0.2l0.4,0l0-1.7C502,612.3,501.9,612.3,501.8,612.3 M485.5,612.8c-3.9,0.2-7.5,0.4-10,0.5l0.1,1.7
		c2.4-0.1,6-0.3,10-0.5L485.5,612.8z M468.9,613.6c-2.8,0.1-6,0.3-9.5,0.6c-0.2,0-0.3,0-0.5,0l0.1,1.7c3.9-0.3,7.2-0.5,9.9-0.6
		L468.9,613.6z M452.3,614.7c-2.8,0.3-5.7,0.5-8.6,0.9c0,0,0,0,0,0c0,0,0,0,0,0c0,0,0,0,0,0c0,0,0,0,0,0c-0.4,0-0.8,0.1-1.2,0.1
		l0.2,1.7c3.5-0.4,6.9-0.7,9.9-1L452.3,614.7z M435.7,616.5c-3.4,0.4-6.8,0.8-9.9,1.2l0.2,1.7c3.3-0.4,6.7-0.8,9.9-1.2L435.7,616.5z
		 M419.1,618.4c-4.1,0.5-7.5,1-9.8,1.3c0,0,0,0,0,0c0,0,0,0,0,0c0,0-0.1,0-0.1,0l0.2,1.6c2.4-0.3,6-0.8,9.9-1.3L419.1,618.4z
		 M408.4,623.8l-1.7,0.2c0,0.1,0,0.1,0,0.2c0,0,0,0,0,0c0,0,0,0,0,0c0,0,0,0,0,0c0,0,0,0,0,0l0,0l0,0c0,0,0,0,0,0v0
		c0,0.3,0,0.6,0.1,1c0,0.3,0,0.7,0.1,1.2c0,0.3,0,0.5,0,0.8c0.1,1.5,0.2,3.3,0,4.9c0,0,0,0,0,0c0,0,0,0,0,0c0,0,0,0,0,0c0,0,0,0,0,0
		c0,0,0,0,0,0c0,0,0,0,0,0c0,0,0,0,0,0c0,0,0,0,0,0c0,0,0,0,0,0c0,0,0,0,0,0l0,0v0c0,0,0,0,0,0l0,0c0,0,0,0,0,0c0,0,0,0,0,0
		c0,0,0,0,0,0c0,0,0,0,0,0c0,0,0,0,0,0c0,0,0,0,0,0c0,0,0,0,0,0c0,0,0,0,0,0c0,0,0,0,0,0c0,0,0,0,0,0c0,0,0,0,0,0c0,0,0,0,0,0
		c0,0,0,0,0,0c0,0,0,0,0,0c0,0,0,0,0,0c0,0,0,0,0,0c0,0,0,0,0,0c0,0,0,0,0,0c0,0,0,0,0,0c0,0,0,0,0,0c0,0,0,0,0,0v0c0,0,0,0,0,0
		c0,0,0,0,0,0l0,0c0,0,0,0,0,0l0,0c0,0,0,0,0,0c0,0,0,0,0,0c0,0,0,0,0,0c0,0,0,0,0,0c0,0,0,0,0,0c0,0,0,0,0,0c0,0,0,0,0,0
		c0,0,0,0,0,0c0,0,0,0,0,0l0,0c0,0,0,0,0,0c0,0,0,0,0,0c0,0,0,0,0,0c0,0,0,0,0,0v0c0,0,0,0,0,0v0l0,0v0c0,0,0,0,0,0c0,0,0,0,0,0
		c0,0,0,0,0,0v0c0,0,0,0,0,0v0c0,0,0,0.1,0,0.1c0,0,0,0,0,0c0,0,0,0,0,0v0c0,0,0,0,0,0v0c0,0,0,0.1,0,0.1c0,0,0,0,0,0c0,0,0,0,0,0v0
		c0,0,0,0.1,0,0.1c0,0,0,0,0,0l0,0c0,0,0,0,0,0c0,0,0,0,0,0c0,0,0,0,0,0c0,0,0,0,0,0c0,0,0,0,0,0v0c0,0.3-0.1,0.6-0.1,0.8
		c0,0,0,0,0,0c0,0,0,0,0,0l1.6,0.3c0.5-2.5,0.3-5.8,0.2-8c0-0.4,0-0.8-0.1-1.1C408.5,624.7,408.5,624.2,408.4,623.8 M396.5,628.6
		l-1.5,0.7c1.6,3.4,3.6,7.1,6.4,8.8l0.8-1.5c-1.5-0.9-2.8-2.5-4-4.5c0,0,0,0,0,0c0,0,0,0,0,0c0,0,0,0,0,0c0,0,0,0,0,0c0,0,0,0,0,0
		c0,0,0,0,0,0c0,0,0,0,0,0c0,0,0,0,0,0c0,0,0,0,0,0c0,0,0,0,0,0c0,0,0,0,0,0c0,0,0,0,0,0c0,0,0,0,0,0c0,0,0,0,0,0c0,0,0,0,0,0
		c0,0,0,0,0,0c0,0,0,0,0,0c0,0,0,0,0,0c0,0,0,0,0,0c0,0,0,0,0,0c0,0,0,0,0,0c0,0,0,0,0,0c0,0,0,0,0,0c0,0,0,0,0,0c0,0,0,0,0,0
		c0,0,0,0,0,0c0,0,0,0,0,0c0,0,0,0,0,0l0,0c0,0,0,0,0,0c0,0,0,0,0,0c0,0,0-0.1,0-0.1c0,0,0,0,0,0c0,0,0,0,0,0c0,0,0,0,0,0
		c0,0,0,0,0,0c0,0,0,0,0,0l0,0c0,0,0,0,0,0c0,0,0,0,0,0c0,0,0,0,0,0l0,0c0,0,0,0,0,0c0,0,0,0,0,0c0,0,0,0,0,0c0,0,0,0,0,0
		c0,0,0,0,0,0c0,0,0,0,0,0c0,0,0,0,0,0c0,0,0,0,0,0c0,0,0,0,0,0c0,0,0,0,0,0c0,0,0,0,0,0c0,0,0,0,0,0c0,0,0,0,0,0c0,0,0,0,0,0
		c0,0,0,0,0,0c0,0,0,0,0,0c0,0,0,0,0,0c0,0,0,0,0,0c0,0,0,0,0,0c0,0,0,0,0,0c0,0,0,0,0,0c0,0,0,0,0,0c0,0,0,0,0,0c0,0,0,0,0,0
		c0,0,0,0,0,0c0,0,0,0,0,0C397.3,630.5,396.9,629.6,396.5,628.6 M389.6,613.5l-1.5,0.7c1.2,2.6,2,4.2,2.5,5.3
		c0.6,1.2,1.2,2.5,1.7,3.7l1.5-0.6c-0.2-0.5-0.5-1.1-0.7-1.6c0,0,0,0,0,0c0,0,0,0,0,0c0,0,0,0,0,0c0,0,0,0,0,0c0,0,0,0,0,0
		c0,0,0,0,0,0c-0.3-0.7-0.6-1.4-1-2.1c0,0,0,0,0,0c0,0,0,0,0,0c0,0,0,0,0,0c0,0,0,0,0,0l0,0c0,0,0,0,0,0c0,0,0,0,0,0c0,0,0,0,0,0
		c0,0,0,0,0,0c0,0,0,0,0,0c0,0,0,0,0,0c0,0,0,0,0,0c0,0,0,0,0,0l0,0l0,0c0,0,0,0,0,0c0,0,0,0,0,0c0,0,0,0,0,0c0,0,0,0,0,0
		c0,0,0,0,0,0c0,0,0,0,0,0c0,0,0,0,0,0l0,0c0,0,0,0,0,0c0,0,0,0,0,0c0,0,0,0,0,0c0,0,0,0,0,0c0,0,0,0,0,0c0,0,0,0,0,0l0,0
		c0,0,0,0,0,0c0,0,0,0,0,0c0,0,0,0,0,0c0,0,0,0,0,0c0,0,0,0,0,0c0,0,0,0,0,0c0,0,0,0,0-0.1c0,0,0,0,0,0c0,0,0,0,0,0c0,0,0,0,0,0
		c0,0,0,0,0,0c0,0,0,0,0,0c0,0,0,0,0,0c0,0,0,0,0,0c0,0,0,0,0,0c0,0,0,0,0,0c0,0,0,0,0,0c0,0,0,0,0-0.1c0,0,0,0,0,0
		C391.3,617.1,390.5,615.4,389.6,613.5 M382.5,598.4l-1.5,0.7c1.4,3.1,2.9,6.1,4.1,8.8l0.1,0.2l1.5-0.7c0-0.1-0.1-0.1-0.1-0.2
		c-0.1-0.2-0.1-0.3-0.2-0.5c-0.9-1.9-1.8-3.8-2.7-5.8C383.3,600.1,382.9,599.2,382.5,598.4 M375.3,583.3l-1.5,0.7
		c1.3,2.5,2.7,5.5,4.4,9l1.5-0.7c-0.2-0.3-0.3-0.6-0.5-1C377.9,588.6,376.5,585.8,375.3,583.3 M367.6,568.6l-1.5,0.8
		c0.4,0.7,0.8,1.5,1.1,2.2c0.9,1.7,1.8,3.5,3.1,5.8c0.1,0.3,0.3,0.5,0.4,0.8l1.5-0.8c0-0.1-0.1-0.1-0.1-0.2c0,0,0,0,0,0c0,0,0,0,0,0
		c-0.1-0.2-0.2-0.4-0.3-0.6c0,0,0,0,0,0c-0.9-1.7-1.7-3.2-2.4-4.5c-0.6-1.1-1.1-2.1-1.6-3.1C367.8,568.8,367.7,568.7,367.6,568.6
		 M359.2,554.2l-1.4,0.9c2.1,3.3,3.8,6.1,5.2,8.5l1.4-0.8c-0.3-0.6-0.7-1.2-1.1-1.9c0,0,0,0,0,0c0,0,0,0,0,0c0,0,0,0,0,0
		c0,0,0,0,0,0c-1-1.6-2.1-3.5-3.5-5.7l0,0c0,0,0,0,0-0.1c0,0,0,0,0,0c0,0,0,0,0,0C359.6,554.7,359.4,554.4,359.2,554.2 M350.2,540.1
		l-1.4,0.9c2,3.1,3.8,5.9,5.4,8.4l1.4-0.9C354.1,546.1,352.3,543.3,350.2,540.1 M340.9,526.3l-1.4,1c1.8,2.6,3.7,5.3,5.6,8.2
		l1.4-0.9c-0.7-1-1.3-2-2-2.9c0,0,0,0,0-0.1c0,0,0,0,0,0c0,0,0,0,0-0.1c0,0,0,0,0,0c0,0,0,0,0,0c0,0,0,0,0,0c0,0,0,0,0,0
		c0,0,0,0,0,0c0,0,0,0,0,0c0,0,0,0,0,0c0,0,0,0,0,0c0,0,0,0,0,0c0,0,0,0,0,0c0,0,0,0,0,0c0,0,0,0,0,0c-0.7-1-1.4-2-2.1-3
		c0,0,0,0,0,0c0,0,0,0,0-0.1c0,0,0,0,0,0c0,0,0,0,0,0c0,0,0,0,0,0c0,0,0,0,0,0c0,0,0,0,0,0c0,0,0,0,0,0c0,0,0,0,0,0c0,0,0,0,0,0
		c0,0,0,0,0,0c0,0,0,0,0,0C341.6,527.3,341.2,526.8,340.9,526.3 M331.1,512.8l-1.3,1c1.9,2.5,3.9,5.2,5.9,8l1.4-1
		c-0.7-0.9-1.3-1.9-2-2.8c0,0,0,0,0,0c0,0,0,0,0,0c-1.1-1.5-2.3-3-3.4-4.5c0,0,0,0,0,0c0,0,0,0,0,0c0,0,0,0,0,0c0,0,0,0,0,0
		c0,0,0,0,0,0c0,0,0,0,0,0C331.4,513.2,331.2,513,331.1,512.8 M320.6,499.9l-1.3,1.1c2.1,2.5,4.3,5,6.4,7.6l1.3-1
		C324.9,504.9,322.8,502.4,320.6,499.9 M309.3,487.6l-1.2,1.2c2.4,2.4,4.6,4.8,6.8,7.2l1.2-1.1c-0.3-0.3-0.6-0.7-0.9-1l0,0
		c0,0,0,0-0.1-0.1c0,0,0,0,0,0c0,0,0,0,0-0.1c0,0,0,0,0,0c0,0,0,0-0.1-0.1l-0.2-0.2c0,0,0,0,0,0c0,0,0,0,0,0c0,0,0,0,0,0
		c0,0,0,0,0,0c0,0,0,0,0,0c0,0,0,0,0,0c0,0,0,0,0,0c0,0,0,0,0,0c0,0,0,0,0,0c0,0,0,0,0,0c0,0,0,0,0,0c0,0,0,0,0,0c0,0,0,0,0,0
		c0,0,0,0-0.1-0.1h0c0,0,0,0,0-0.1c0,0,0,0,0,0c0,0,0,0,0,0c0,0,0,0,0,0c0,0,0,0,0,0c0,0,0,0,0,0c0,0,0,0,0,0c0,0,0,0,0,0
		c0,0,0,0,0,0c0,0,0,0,0,0c0,0,0,0,0,0c0,0,0,0,0,0C312.6,491.1,311,489.4,309.3,487.6 M297.4,476l-1.1,1.2c1.3,1.2,2.7,2.5,4.2,4
		c1,1,2,1.9,3,2.9l1.2-1.2l0,0c0,0,0,0,0,0c0,0,0,0,0,0c0,0,0,0,0,0c0,0,0,0,0,0c0,0,0,0,0,0c0,0,0,0,0,0c-0.7-0.7-1.4-1.4-2.1-2
		c0,0,0,0,0,0c0,0,0,0,0,0c0,0,0,0,0,0c0,0,0,0,0,0c0,0,0,0,0,0c0,0,0,0,0,0c0,0,0,0,0,0c0,0,0,0,0,0l0,0c0,0,0,0,0,0c0,0,0,0,0,0
		c0,0,0,0,0,0c0,0,0,0,0,0c0,0,0,0,0,0c0,0,0,0,0,0c0,0,0,0,0,0c0,0,0,0,0,0c0,0,0,0,0,0c0,0,0,0,0,0c0,0,0,0,0,0c0,0,0,0,0,0
		c0,0,0,0,0,0c0,0,0,0,0,0c0,0,0,0,0,0c0,0,0,0,0,0c0,0,0,0-0.1,0c0,0,0,0-0.1-0.1c0,0,0,0,0,0C300.2,478.7,298.8,477.4,297.4,476
		 M285,464.8l-1.1,1.3c2.4,2.1,4.8,4.3,7.4,6.6l1.1-1.2c-0.6-0.5-1.1-1-1.7-1.6c0,0,0,0,0,0c0,0,0,0,0,0c0,0,0,0,0,0c0,0,0,0,0,0
		c0,0,0,0,0,0c0,0,0,0,0,0c0,0,0,0,0,0c0,0,0,0,0,0C288.8,468.1,286.9,466.5,285,464.8 M272.1,454.3l-1,1.3c2.6,2,5.2,4.1,7.8,6.2
		l1.1-1.3c-0.6-0.5-1.2-1-1.8-1.4c0,0,0,0,0,0c0,0,0,0,0,0c0,0,0,0,0,0c0,0,0,0,0,0c0,0,0,0,0,0c0,0,0,0,0,0c-1.3-1.1-2.6-2.1-4-3.2
		c0,0,0,0,0,0c0,0,0,0,0,0c0,0,0,0,0,0c0,0,0,0,0,0c0,0,0,0,0,0c0,0,0,0,0,0C273.3,455.2,272.7,454.7,272.1,454.3 M258.6,444.5
		l-0.9,1.4c2.7,1.8,5.5,3.7,8.1,5.7l1-1.3c-0.2-0.1-0.3-0.2-0.5-0.3c0,0,0,0,0,0c0,0,0,0,0,0c0,0,0,0,0,0c0,0,0,0,0,0
		c-1.5-1.1-3-2.1-4.5-3.2c0,0,0,0-0.1,0c0,0,0,0,0,0c0,0,0,0,0,0c0,0,0,0,0,0c0,0,0,0,0,0c0,0,0,0,0,0l0,0c0,0-0.1,0-0.1-0.1
		c0,0,0,0,0,0C260.5,445.8,259.6,445.2,258.6,444.5 M244.5,435.7l-0.8,1.4c2.9,1.7,5.7,3.4,8.5,5.2l0.9-1.4
		c-1.4-0.9-2.8-1.8-4.3-2.6l0,0c0,0,0,0-0.1,0c0,0,0,0,0,0c0,0,0,0-0.1,0c0,0,0,0,0,0c0,0,0,0-0.1,0c0,0,0,0,0,0c0,0,0,0,0,0l0,0
		c0,0,0,0,0,0c0,0,0,0,0,0c0,0,0,0,0,0c0,0,0,0-0.1,0c0,0,0,0,0,0c0,0,0,0,0,0c0,0,0,0,0,0c-0.6-0.4-1.3-0.8-1.9-1.1c0,0,0,0,0,0
		c0,0,0,0,0,0c0,0,0,0,0,0c0,0,0,0,0,0c0,0,0,0,0,0c0,0,0,0,0,0c0,0,0,0-0.1,0c0,0,0,0,0,0c0,0,0,0-0.1,0c0,0,0,0,0,0
		C245.5,436.3,245,436,244.5,435.7 M229.8,427.8l-0.8,1.5c3,1.5,5.9,3.1,8.8,4.6l0.8-1.5c-1.3-0.7-2.6-1.4-4-2.1c0,0,0,0,0,0
		c0,0,0,0,0,0c0,0,0,0,0,0c0,0,0,0,0,0c0,0,0,0,0,0c0,0,0,0,0,0c0,0,0,0-0.1,0c0,0,0,0,0,0c0,0,0,0-0.1,0l0,0c0,0,0,0-0.1,0
		c0,0,0,0,0,0c-0.8-0.4-1.7-0.9-2.5-1.3c0,0,0,0,0,0c0,0-0.1,0-0.1-0.1c0,0,0,0,0,0c0,0,0,0,0,0c0,0,0,0,0,0l0,0c0,0-0.1,0-0.1,0
		c0,0,0,0,0,0C230.9,428.3,230.4,428.1,229.8,427.8 M214.8,420.5l-0.7,1.5c3,1.4,6,2.8,9,4.3l0.7-1.5
		C220.7,423.3,217.7,421.9,214.8,420.5z M199.6,413.7l-0.7,1.5c3,1.3,6.1,2.6,9.1,4l0.7-1.5c-2.2-1-4.4-1.9-6.4-2.8c0,0,0,0,0,0
		c0,0,0,0,0,0C201.4,414.5,200.5,414.1,199.6,413.7 M184.2,407.4l-0.6,1.6c3,1.2,6.1,2.4,9.3,3.7l0.6-1.5c-0.5-0.2-0.9-0.4-1.4-0.6
		c0,0,0,0,0,0c0,0,0,0-0.1,0c-2.4-1-4.7-1.9-6.8-2.7c0,0,0,0,0,0c0,0,0,0,0,0c0,0,0,0,0,0c0,0,0,0,0,0c0,0,0,0,0,0c0,0,0,0,0,0
		c0,0,0,0,0,0c0,0,0,0,0,0c0,0,0,0,0,0l0,0C184.7,407.7,184.4,407.5,184.2,407.4 M168.5,401.8l-0.5,1.6c1.9,0.6,5,1.7,9.4,3.3
		l0.6-1.6c-0.1,0-0.1,0-0.2-0.1c0,0,0,0,0,0c0,0,0,0,0,0c0,0,0,0,0,0c0,0,0,0,0,0c-3.7-1.4-6.5-2.3-8.4-2.9c0,0,0,0,0,0c0,0,0,0,0,0
		c0,0,0,0,0,0c0,0,0,0,0,0c0,0,0,0,0,0c0,0,0,0,0,0C168.9,402,168.7,401.9,168.5,401.8 M169.7,405.4l-1.6,0.5c0,0,0.1,0.4,0.3,1.1
		l0,0c0,0,0,0,0,0l0,0c0,0,0,0,0,0l0,0c0,0,0,0,0,0l0,0c0,0,0,0,0,0l0,0c0,0,0,0,0,0l0,0c0,0,0,0,0,0l0,0l0,0l0,0c0,0,0,0,0,0l0,0.1
		c0,0,0,0,0,0l0,0c0,0,0,0,0,0l0,0c0,0,0,0,0,0l2.4,8.1l1.6-0.5L169.7,405.4z M174.4,421.4l-1.6,0.5l2.8,9.6l1.6-0.5L174.4,421.4z
		 M179.1,437.4l-1.6,0.5l2.8,9.6l1.6-0.5L179.1,437.4z M183.8,453.4l-1.6,0.5l0.3,1l0,0c0,0,0,0,0,0c0,0,0,0,0,0c0,0,0,0,0,0l0,0
		c0,0,0,0,0,0c0,0,0,0,0,0c0,0,0,0,0,0l0,0c0,0,0,0,0,0c0,0,0,0,0,0c0,0,0,0,0,0c0.1,0.3,1.4,3.6,3.2,8.3l1.6-0.6
		c-1.7-4.5-3-7.8-3.2-8.3L183.8,453.4z M189.6,468.9l-1.6,0.6c0.5,1.3,1,2.7,1.5,4.2c0,0,0,0,0,0c0,0,0,0,0,0.1
		c0.5,1.5,1.1,3,1.7,4.5c0.1,0.2,0.2,0.4,0.2,0.6l1.6-0.6C192,475.3,190.9,472.2,189.6,468.9 M195.3,484.5l-1.6,0.6
		c0.3,0.8,0.6,1.6,0.9,2.4c0,0,0,0,0,0l0,0c0,0,0,0,0,0c0,0,0,0,0,0c0.9,2.5,1.7,4.9,2.3,7l1.6-0.5
		C197.7,491.5,196.7,488.3,195.3,484.5 M200.6,500.4l-1.6,0.5c0.7,2.1,1.6,5.1,2.7,8.8c0,0,0,0,0,0c0,0,0,0,0,0
		c0.1,0.2,0.2,0.5,0.2,0.7l1.6-0.5C202.3,505.8,201.2,502.5,200.6,500.4 M205.5,516.4l-1.6,0.5c0.4,1.3,0.8,2.6,1.2,4c0,0,0,0,0,0
		c0,0,0,0,0,0c0.5,1.8,1.1,3.6,1.7,5.5l1.6-0.5C207.5,522.8,206.5,519.6,205.5,516.4 M210.3,532.3l-1.6,0.5c0.4,1.2,0.7,2.5,1.1,3.7
		c0,0,0,0,0,0c0,0,0,0,0,0c0.5,1.7,1,3.4,1.5,5.1c0.1,0.2,0.1,0.5,0.2,0.7l1.6-0.5C212.2,538.8,211.3,535.6,210.3,532.3
		 M214.9,548.4l-1.6,0.5c0.4,1.4,0.8,2.9,1.2,4.3c0,0,0,0,0,0c0,0,0,0.1,0,0.1c0,0,0,0,0,0.1c0,0,0,0.1,0,0.1c0,0,0,0.1,0,0.1
		c0,0,0,0,0,0c0.5,1.6,0.9,3.3,1.3,4.9l1.6-0.4C216.8,554.9,215.9,551.7,214.9,548.4 M219.4,564.4l-1.6,0.5c0.1,0.3,0.2,0.5,0.2,0.8
		c0.8,2.8,1.7,5.8,2.7,8.8l1.6-0.5C221.3,570.5,220.3,567.3,219.4,564.4 M224.3,580.3l-1.6,0.5c1,3.1,2,6.3,3,9.5l1.6-0.5
		C226.2,586.6,225.2,583.3,224.3,580.3 M229.2,596.2l-1.6,0.5c0.1,0.2,0.1,0.4,0.2,0.6c0,0,0,0,0,0c0,0,0,0,0,0.1c1,3,1.9,6,2.8,8.9
		l1.6-0.5C231.2,602.5,230.2,599.3,229.2,596.2 M234.3,612.1l-1.6,0.5c0.9,2.7,1.7,5.3,2.5,7.8c0.2,0.6,0.4,1.2,0.6,1.7l1.6-0.5
		C236.4,618.4,235.3,615.2,234.3,612.1 M239.5,627.9l-1.6,0.5c0.1,0.3,0.2,0.6,0.3,0.9c1.1,3.3,2,6.2,2.8,8.6l1.6-0.5
		C241.7,634.6,240.6,631.4,239.5,627.9 M244.7,643.7l-1.6,0.5c0,0,0,0.1,0,0.1c0,0.1,0,0.1,0.1,0.2c0,0,0,0,0,0c0,0,0,0,0,0
		c0,0,0,0,0,0c0,0,0,0,0,0c0,0,0,0,0,0c0,0,0,0,0,0c0,0,0,0,0,0c0,0,0,0,0,0c0,0,0,0,0,0c0,0,0,0,0,0v0c0,0,0,0,0,0c0,0,0,0,0,0
		c0,0,0,0,0,0c0,0,0,0,0,0c0,0,0,0,0,0.1c0,0,0,0,0,0c0.2,0.6,0.8,2.1,1.6,4.3l0,0c0,0,0,0,0,0c0,0,0,0,0,0c0,0,0,0,0,0c0,0,0,0,0,0
		c0,0.1,0.1,0.2,0.1,0.3c0,0,0,0,0,0c0,0,0,0,0,0c0,0,0,0,0,0c0,0,0,0,0,0c0,0,0,0.1,0.1,0.1c0,0,0,0,0,0c0,0,0,0,0,0c0,0,0,0,0,0
		c0,0,0,0,0,0v0c0.4,1.1,0.9,2.4,1.5,3.8l1.6-0.6c-1.4-3.7-3.1-8.1-3.4-9C244.8,643.9,244.8,643.8,244.7,643.7 M250.7,659.2
		l-1.6,0.6c0.4,1.1,0.9,2.3,1.4,3.5c0.6,1.6,1.2,3.2,1.9,4.8c0.1,0.3,0.2,0.6,0.4,1l1.6-0.6l-0.9-2.4L250.7,659.2z M256.7,674.7
		l-1.6,0.6c0.2,0.5,0.3,0.9,0.5,1.4c0.6,1.7,1.3,3.4,2,5.1c0.4,1,0.7,1.9,1.1,2.9l1.6-0.6C259.1,680.9,257.9,677.8,256.7,674.7
		 M262.7,690.3l-1.6,0.6c0.4,1.2,0.9,2.3,1.3,3.5c0.8,2,1.5,3.9,2.2,5.8l1.6-0.6C265.1,696.5,263.9,693.4,262.7,690.3 M268.7,705.9
		l-1.6,0.6c0.3,0.9,0.7,1.8,1,2.6c0.9,2.3,1.7,4.5,2.6,6.7l1.6-0.6C271.1,712.2,269.9,709.1,268.7,705.9 M274.6,721.4l-1.6,0.6
		c1.1,2.8,2,5.4,2.9,7.7c0.2,0.6,0.4,1.2,0.6,1.7l1.6-0.6C277.2,728.2,276,725.1,274.6,721.4 M280.5,737.1l-1.6,0.6
		c0.2,0.6,0.4,1.2,0.6,1.6c0,0,0,0,0,0c0,0,0,0,0,0c0,0,0,0,0,0c0,0,0,0,0,0c0,0,0,0,0,0c0,0,0,0,0,0c0,0,0,0,0,0c0,0,0,0,0,0
		c0,0,0,0,0,0c0,0,0,0,0,0c0,0,0,0,0,0c0,0,0,0,0,0c0,0,0,0,0,0c0.3,1,0.7,2.1,1.2,3.3c0,0,0,0,0,0c0,0,0,0.1,0,0.1v0c0,0,0,0,0,0
		c0,0,0,0,0,0c0,0,0,0,0,0c0,0,0,0,0,0c0,0,0,0,0,0c0,0,0,0,0,0c0,0,0,0,0,0c0,0,0,0,0,0c0,0,0,0,0,0c0,0,0,0,0,0
		c0,0.1,0,0.1,0.1,0.2c0,0,0,0,0,0c0.4,1,0.8,2,1.3,3.2c0,0,0,0,0,0c0,0,0,0,0,0c0,0,0,0,0,0c0,0,0,0,0,0c0,0,0,0,0,0c0,0,0,0,0,0
		c0,0,0,0,0,0l0,0.1c0.1,0.2,0.1,0.3,0.2,0.5l1.5-0.6c-1.3-3.1-2.3-5.6-2.9-7.6C280.9,738.3,280.7,737.7,280.5,737.1 M286.6,752.4
		l-1.5,0.7c0.8,1.8,1.7,3.7,2.5,5.6c0,0,0,0,0,0l0.1,0.1c0,0,0,0,0,0c0,0,0,0,0,0.1c0,0,0,0,0,0c0,0,0,0,0,0c0,0,0,0,0,0
		c0,0,0,0,0,0c0,0,0,0,0,0c0,0,0,0,0,0c0,0,0,0,0,0c0,0,0,0,0,0.1c0,0,0,0,0,0c0,0,0,0,0,0c0,0,0,0,0,0c0,0,0,0,0,0c0,0,0,0,0,0
		c0,0,0,0,0,0c0,0,0,0,0,0c0,0,0,0,0,0c0,0.1,0.1,0.2,0.1,0.3c0,0,0,0,0,0c0.1,0.2,0.2,0.3,0.2,0.5c0,0,0,0,0,0
		c0.1,0.1,0.1,0.2,0.2,0.4c0,0,0,0,0,0c0,0,0,0,0,0c0,0,0,0,0,0c0,0,0,0,0,0l0,0c0,0,0,0,0,0c0,0,0,0,0,0c0,0,0,0,0,0c0,0,0,0,0,0
		c0,0,0,0,0,0c0,0,0,0,0,0c0,0,0,0,0,0c0,0,0,0,0,0c0,0,0,0,0,0c0,0,0,0,0,0c0,0,0,0,0,0l0,0.1c0,0,0,0,0,0c0,0,0,0,0,0.1
		c0,0,0,0,0,0c0,0,0,0.1,0.1,0.1l0,0c0.1,0.2,0.2,0.5,0.3,0.7l1.5-0.7C289.3,758.3,287.9,755.3,286.6,752.4 M293.7,767.4l-1.5,0.7
		c0.2,0.4,0.4,0.7,0.6,1.1l0,0c0,0,0,0.1,0.1,0.1c0,0,0,0,0,0c0,0,0,0.1,0.1,0.1c0,0,0,0,0,0c0,0,0,0.1,0,0.1c0,0,0,0,0,0.1
		c0,0,0,0,0,0.1c0,0,0,0.1,0,0.1c0,0,0,0,0,0c1.2,2.4,2.4,4.8,3.6,7.2l1.5-0.8C296.7,773.4,295.2,770.5,293.7,767.4 M301.3,782.2
		l-1.5,0.8l0,0c0,0,0,0,0,0.1c0,0,0,0,0,0l0,0.1c0,0,0,0,0,0c0,0,0,0.1,0.1,0.1c0,0,0,0,0,0l0,0c0,0,0,0,0,0c0,0,0,0,0,0
		c0.8,1.5,1.6,2.9,2.4,4.3c0,0,0,0,0,0c0,0,0,0,0,0l0,0c0,0,0,0,0,0c0,0,0,0,0,0c0,0,0,0,0,0c0,0,0,0,0,0c0,0,0,0,0,0c0,0,0,0,0,0.1
		c0,0,0,0,0,0c0,0,0,0,0,0c0,0,0,0,0,0c0,0,0,0,0,0.1c0,0,0,0,0,0c0,0,0,0,0,0.1c0,0,0,0,0,0c0,0,0,0,0,0.1c0,0,0,0,0,0
		c0.7,1.2,1.3,2.3,1.9,3.4l1.4-0.8C304.6,788.3,302.9,785.4,301.3,782.2 M309.4,796.6l-1.4,0.9c0.5,0.8,1,1.7,1.6,2.7c0,0,0,0,0,0.1
		c0,0,0,0,0,0c0.7,1.2,1.5,2.4,2.3,3.8c0.2,0.3,0.4,0.6,0.6,0.9c0.2,0.3,0.4,0.7,0.6,1.1l1.4-0.9l-0.6-1.1
		C312.2,801.2,310.7,798.7,309.4,796.6 M318.1,810.9l-1.4,0.9c1,1.6,2,3.3,3.1,5.1c0.7,1.1,1.4,2.3,2.1,3.5l1.4-0.9
		C321.6,816.8,319.9,814,318.1,810.9 M326.7,825.1l-1.4,0.9c1.7,2.7,3.5,5.6,5.3,8.5l1.4-0.9C330.3,830.9,328.5,828,326.7,825.1
		 M335.6,839.2l-1.4,0.9c1.8,2.8,3.6,5.6,5.5,8.4l1.4-0.9C339.3,844.9,337.5,842,335.6,839.2 M344.8,853.1l-1.4,0.9
		c1.9,2.8,3.7,5.5,5.7,8.3l1.4-1C348.6,858.7,346.7,855.9,344.8,853.1 M354.2,866.7l-1.4,1c1.4,1.9,2.7,3.8,4.1,5.6c0,0,0,0,0,0
		c0,0.1,0.1,0.1,0.1,0.2c0,0,0,0,0,0c0,0,0,0,0,0c0,0,0,0,0,0c0,0,0,0,0,0c0,0,0,0,0,0c0.1,0.2,0.2,0.3,0.4,0.5c0,0,0,0,0,0
		c0.4,0.6,0.8,1.1,1.2,1.6l1.3-1C358.2,872.2,356.2,869.5,354.2,866.7 M364.2,880l-1.3,1c1.6,2,3.1,4,4.7,5.9c0,0,0.1,0.1,0.1,0.1
		l0,0c0,0,0,0,0,0.1c0,0,0,0,0,0c0,0,0.1,0.1,0.1,0.1c0,0,0,0,0,0l0,0c0,0,0,0,0,0c0,0,0,0,0,0c0,0,0,0,0,0c0,0,0,0,0,0.1
		c0,0,0,0,0,0c0,0,0,0,0,0c0,0,0,0,0,0c0,0,0,0,0,0c0,0,0,0,0,0c0,0,0,0,0,0c0,0,0,0,0,0.1c0,0,0,0,0,0c0,0,0,0,0,0c0,0,0,0,0,0
		c0,0,0,0,0,0c0,0,0,0,0,0c0.3,0.4,0.6,0.7,0.9,1.1l1.3-1.1C368.4,885.4,366.3,882.8,364.2,880 M374.7,892.8l-1.2,1.1
		c0.9,1,1.8,1.9,2.7,2.9l0,0c0,0,0.1,0.1,0.1,0.1c0,0,0,0,0,0c0,0,0,0,0,0c0,0,0,0,0,0c0,0,0,0,0,0c0,0,0,0,0,0c0,0,0,0,0,0
		c0,0,0,0,0,0c0,0,0,0,0,0c0,0,0,0,0,0c0,0,0,0,0,0c0,0,0,0,0,0c0,0,0,0,0,0c0,0,0,0,0,0c0,0,0,0,0,0l0,0c0,0,0,0,0,0c0,0,0,0,0,0
		c0,0,0,0,0,0l0,0.1c0,0,0,0,0,0c0,0,0,0,0,0c0,0,0,0,0,0c0,0,0,0,0,0c0,0,0,0,0,0c0,0,0,0,0.1,0.1l0,0c0,0,0,0,0,0.1c0,0,0,0,0,0
		c0,0,0,0,0,0c0,0,0,0,0,0c0,0,0.1,0.1,0.1,0.1c0,0,0,0,0,0c0,0,0,0,0.1,0.1l0,0c0.1,0.1,0.1,0.1,0.2,0.2l0,0
		c0.1,0.1,0.2,0.2,0.3,0.3l0,0c0.3,0.3,0.6,0.6,0.9,0.9l0,0c0.1,0.1,0.1,0.1,0.2,0.2c0,0,0,0,0,0c0,0,0,0,0.1,0.1l0,0
		c0,0,0.1,0.1,0.1,0.1c0,0,0,0,0,0c0,0,0,0,0,0l0,0c0,0,0.1,0.1,0.1,0.1l0,0c0,0,0,0,0,0c0,0,0,0,0,0c0,0,0.1,0.1,0.1,0.1
		c0,0,0,0,0,0l0,0l0,0c0,0,0,0,0,0l0,0c0,0,0,0,0,0c0,0,0,0,0,0l0,0c0,0,0,0,0,0c0,0,0,0,0,0l0,0c0,0,0,0,0,0c0,0,0,0,0,0l0,0
		c0,0,0,0,0,0c0,0,0,0,0,0c0,0,0,0,0,0c0,0,0,0,0,0c0,0,0,0,0.1,0.1l0,0c0,0,0,0,0,0l0,0c0.2,0.2,0.4,0.4,0.5,0.5l1.2-1.2
		C379.2,897.6,376.9,895.2,374.7,892.8 M386.4,904.5l-1.1,1.2c0.9,0.8,1.9,1.7,2.8,2.5c0,0,0,0,0,0c0,0,0,0,0,0c0,0,0,0,0,0
		c0,0,0,0,0,0c0,0,0,0,0,0c0,0,0.1,0.1,0.1,0.1c0,0,0,0,0,0c0,0,0,0,0,0c0,0,0,0,0,0c0,0,0,0,0,0c0,0,0,0,0,0c0,0,0,0,0,0
		c0,0,0,0,0,0c0,0,0,0,0.1,0.1c0,0,0,0,0,0c0,0,0,0,0,0c0,0,0,0,0,0c0,0,0,0,0,0c0,0,0,0,0,0c0,0,0,0,0,0c0,0,0,0,0,0c0,0,0,0,0,0
		c0,0,0,0,0,0c0,0,0,0,0,0c0,0,0,0,0,0c0,0,0,0,0,0l0,0c0,0,0,0,0,0c0,0,0,0,0,0c0,0,0,0,0,0c0,0,0,0,0.1,0c0,0,0,0,0,0c0,0,0,0,0,0
		c0,0,0,0,0,0l0,0c0,0,0,0,0,0c0,0,0,0,0,0c0,0,0,0,0,0c0,0,0.1,0.1,0.1,0.1c0,0,0,0,0,0c0,0,0,0,0,0c0,0,0,0,0,0c0,0,0,0,0,0
		c0,0,0,0,0,0c0,0,0,0,0,0c0,0,0,0,0,0c0,0,0.1,0.1,0.1,0.1c0,0,0,0,0,0c0,0,0,0,0,0c0,0,0,0,0,0c0,0,0,0,0.1,0c0,0,0,0,0,0
		c0,0,0.1,0.1,0.1,0.1c0,0,0,0,0,0c0,0,0,0,0,0c0,0,0,0,0,0c0,0,0,0,0,0c0,0,0,0,0,0c0,0,0,0,0,0c0,0,0,0,0,0c0,0,0,0,0.1,0l0,0
		c0,0,0,0,0.1,0c0,0,0,0,0,0c0,0,0,0,0,0c0,0,0,0,0,0c0,0,0,0,0,0c0,0,0,0,0,0l0.1,0.1c0,0,0,0,0,0c0,0,0,0,0,0c0,0,0,0,0,0
		c0,0,0,0,0,0c0,0,0,0,0,0c0,0,0,0,0,0c0,0,0,0,0,0c0,0,0,0,0.1,0c0,0,0,0,0,0c0,0,0,0,0,0c0,0,0,0,0,0c0,0,0,0,0,0c0,0,0,0,0,0
		c0,0,0,0,0,0c0,0,0,0,0,0c0,0,0,0,0,0c0,0,0,0,0,0c0,0,0,0,0,0c0,0,0,0,0,0c0,0,0,0,0,0c0,0,0,0,0,0c0,0,0,0,0,0c0,0,0,0,0,0
		c0,0,0,0,0,0c0,0,0,0,0,0c0,0,0,0,0.1,0c0,0,0,0,0,0c0,0,0,0,0,0c0,0,0,0,0,0c0,0,0,0,0,0c0,0,0,0,0,0c0,0,0,0,0,0c0,0,0,0,0,0
		c0,0,0,0,0.1,0c0,0,0,0,0,0c0,0,0,0,0,0c0,0,0,0,0,0c0,0,0,0,0,0c0,0,0,0,0,0c0,0,0,0,0,0c0,0,0,0,0,0c0,0,0,0,0,0c0,0,0,0,0,0
		c0,0,0,0,0.1,0c0,0,0,0,0,0c0,0,0,0,0,0c0,0,0,0,0,0c0,0,0,0,0,0c0,0,0,0,0,0c0,0,0,0,0,0c0,0,0,0,0,0c0,0,0,0,0,0c0,0,0,0,0,0
		c0,0,0,0,0,0l0,0l0,0c0,0,0,0,0,0c0,0,0,0,0,0c0,0,0,0,0,0c0,0,0,0,0,0c0,0,0,0,0,0c0,0,0,0,0,0c0,0,0,0,0,0c0,0,0,0,0,0
		c0,0,0,0,0,0c0,0,0,0,0,0c0,0,0,0,0,0c0,0,0,0,0,0c0,0,0,0,0,0c0,0,0,0,0.1,0c0,0,0,0,0,0c0,0,0,0,0,0c0,0,0,0,0,0c0,0,0,0,0,0
		c0,0,0,0,0,0c0,0,0,0,0,0c0,0,0,0,0,0c0,0,0,0,0,0c0,0,0,0,0,0c0,0,0,0,0,0c0,0,0,0,0,0l1-1.3C391.3,908.8,388.8,906.7,386.4,904.5
		 M399.1,914.9l-1,1.3c1.3,1,2.6,1.9,4,2.9l0,0c0,0,0,0,0.1,0l0,0c0.1,0.1,0.2,0.1,0.3,0.2c0,0,0,0,0,0c0,0,0,0,0,0c0,0,0,0,0,0
		c0,0,0,0,0,0c0,0,0,0,0,0c0,0,0,0,0,0c0,0,0,0,0,0c0,0,0,0,0,0c0,0,0,0,0,0c0,0,0,0,0,0c0,0,0,0,0,0c0,0,0,0,0,0c0,0,0,0,0,0
		c0,0,0,0,0,0c0,0,0,0,0,0c0,0,0,0,0,0c0,0,0,0,0,0c0,0,0,0,0,0c0,0,0,0,0,0c0,0,0,0,0,0c0,0,0,0,0,0c0,0,0,0,0,0
		c1.1,0.7,2.2,1.5,3.3,2.2l0.9-1.4C404.5,918.8,401.8,916.9,399.1,914.9 M412.8,924.1l-0.9,1.4c1.5,0.9,3,1.8,4.5,2.6c0,0,0,0,0,0
		c0.1,0.1,0.2,0.1,0.4,0.2c0,0,0,0,0,0c0,0,0,0,0,0c0,0,0,0,0,0c0,0,0,0,0,0c0,0,0,0,0,0c0,0,0,0,0,0c0,0,0,0,0,0c0,0,0,0,0,0
		c0,0,0,0,0,0c0,0,0,0,0,0l0,0c0,0,0,0,0,0c0,0,0,0,0,0c0,0,0,0,0,0c0,0,0,0,0.1,0c0,0,0,0,0,0c0.1,0,0.1,0.1,0.2,0.1l0,0
		c0,0,0,0,0.1,0c0,0,0,0,0,0c0,0,0,0,0.1,0l0,0c0,0,0,0,0.1,0l0,0c0.7,0.4,1.3,0.7,2,1.1v0c0,0,0,0,0.1,0c0,0,0,0,0,0c0,0,0,0,0.1,0
		c0,0,0,0,0,0c0,0,0,0,0.1,0c0,0,0,0,0,0c0,0,0,0,0.1,0c0,0,0,0,0,0c0,0,0,0,0.1,0c0,0,0,0,0,0c0,0,0.1,0,0.1,0.1c0,0,0,0,0,0
		c0,0,0,0,0,0c0,0,0,0,0,0c0,0,0,0,0,0c0,0,0,0,0,0c0,0,0,0,0,0c0,0,0,0,0.1,0c0,0,0,0,0,0c0,0,0,0,0.1,0c0,0,0,0,0,0
		c0,0,0.1,0,0.1,0.1l0.8-1.5C418.5,927.4,415.6,925.8,412.8,924.1 M427.4,931.9l-0.7,1.5c3,1.4,6,2.8,9.1,4l0.6-1.5
		C433.4,934.7,430.3,933.3,427.4,931.9 M442.6,938.3l-0.6,1.6c3.1,1.1,6.3,2.2,9.5,3.1l0.5-1.6C448.8,940.5,445.7,939.4,442.6,938.3
		 M458.3,943.2l-0.4,1.6c0.6,0.2,1.3,0.3,1.9,0.5c0,0,0,0,0,0c0,0,0,0,0.1,0c0,0,0,0,0,0c0,0,0,0,0.1,0c0,0,0,0,0,0c0,0,0,0,0.1,0
		c0,0,0,0,0,0c0,0,0,0,0.1,0c0,0,0,0,0,0c0,0,0,0,0,0c0,0,0,0,0,0c0,0,0,0,0,0c0,0,0,0,0,0c0,0,0,0,0,0c0,0,0,0,0,0c0,0,0,0,0,0
		c0,0,0,0,0.1,0c0,0,0,0,0,0c1.9,0.5,3.7,0.9,5.6,1.3c0,0,0,0,0,0c0.1,0,0.2,0,0.3,0.1c0,0,0,0,0,0c0,0,0,0,0.1,0l0,0
		c0.1,0,0.2,0,0.3,0.1c0,0,0,0,0.1,0c0,0,0,0,0,0c0,0,0,0,0,0l0,0c0,0,0,0,0,0c0,0,0,0,0,0c0,0,0,0,0.1,0c0,0,0,0,0,0c0,0,0,0,0.1,0
		c0,0,0,0,0,0c0,0,0,0,0.1,0c0,0,0,0,0,0c0,0,0,0,0.1,0l0,0c0,0,0,0,0.1,0c0,0,0,0,0,0c0,0,0,0,0.1,0c0,0,0,0,0,0c0.1,0,0.1,0,0.2,0
		c0,0,0,0,0,0c0,0,0,0,0,0l0.3-1.6C464.8,944.8,461.5,944,458.3,943.2 M474.5,946.6l-0.3,1.6c3.2,0.5,6.5,1,9.9,1.3l0.2-1.7
		C481,947.6,477.7,947.1,474.5,946.6 M490.9,948.5l-0.1,1.7c0.6,0,1.1,0.1,1.7,0.1c0,0,0,0,0.1,0c0,0,0,0,0,0c0,0,0,0,0.1,0
		c0,0,0,0,0,0c0,0,0,0,0.1,0c0,0,0,0,0,0l0.1,0c0,0,0,0,0,0c0,0,0,0,0.1,0c0,0,0,0,0,0l0.1,0c0,0,0,0,0.1,0c0,0,0,0,0,0c0,0,0,0,0,0
		l0,0c0,0,0,0,0.1,0c0,0,0,0,0,0c0,0,0,0,0.1,0c0,0,0,0,0,0c0,0,0,0,0.1,0c0,0,0,0,0,0c0,0,0,0,0.1,0c0,0,0,0,0,0c0.1,0,0.1,0,0.2,0
		c0,0,0,0,0,0c0,0,0.1,0,0.1,0c0,0,0,0,0,0c0,0,0,0,0.1,0c0,0,0,0,0,0c0,0,0,0,0.1,0c0,0,0,0,0,0c0,0,0.1,0,0.1,0c0,0,0,0,0,0
		c0,0,0.1,0,0.1,0c0,0,0,0,0,0c0.1,0,0.2,0,0.3,0c0,0,0,0,0,0c0,0,0.1,0,0.1,0c0,0,0,0,0,0c0,0,0.1,0,0.1,0c0,0,0,0,0,0
		c0,0,0.1,0,0.1,0c0,0,0,0,0,0c0.1,0,0.2,0,0.3,0c0,0,0,0,0,0c0,0,0.1,0,0.1,0c0,0,0,0,0,0c0,0,0.1,0,0.1,0c0,0,0,0,0,0
		c0,0,0.1,0,0.1,0c0,0,0,0,0,0c0,0,0.1,0,0.1,0h0c0.1,0,0.1,0,0.2,0c0,0,0,0,0,0c0,0,0.1,0,0.1,0c0,0,0,0,0,0c0,0,0,0,0.1,0
		c0,0,0,0,0,0c0,0,0,0,0.1,0c0,0,0,0,0,0c0,0,0,0,0.1,0c0,0,0,0,0,0c0,0,0,0,0.1,0c0,0,0,0,0,0c0.1,0,0.1,0,0.2,0c0,0,0,0,0,0
		c0,0,0,0,0.1,0c0,0,0,0,0,0c0,0,0,0,0.1,0c0,0,0,0,0,0c0,0,0,0,0.1,0c0,0,0,0,0,0c0,0,0,0,0.1,0c0,0,0,0,0,0c0,0,0,0,0.1,0
		c0,0,0,0,0,0c0.1,0,0.1,0,0.2,0c0,0,0,0,0,0c0,0,0,0,0.1,0c0,0,0,0,0,0c0,0,0,0,0.1,0c0,0,0,0,0,0c0,0,0,0,0.1,0c0,0,0,0,0,0
		c0,0,0,0,0.1,0c0,0,0,0,0,0c0,0,0.1,0,0.1,0c0,0,0,0,0,0c0.1,0,0.1,0,0.2,0c0,0,0,0,0,0c0,0,0,0,0.1,0c0,0,0,0,0,0c0,0,0,0,0.1,0
		c0,0,0,0,0,0c0,0,0,0,0.1,0c0,0,0,0,0,0c0,0,0,0,0.1,0c0,0,0,0,0,0c0.1,0,0.2,0,0.3,0c0,0,0,0,0,0c0,0,0.1,0,0.1,0h0
		c0,0,0.1,0,0.1,0c0.9,0,1.7,0.1,2.6,0.1l0-1.7C497.5,948.9,494.2,948.7,490.9,948.5 M517.3,948.6c-3.3,0.2-6.6,0.4-9.9,0.4l0,1.7
		c0.6,0,1.2,0,1.7,0c0,0,0,0,0,0c0,0,0,0,0,0c0,0,0,0,0,0c0,0,0,0,0,0c0,0,0,0,0,0c0,0,0,0,0,0c0,0,0,0,0.1,0c0,0,0,0,0,0
		c0,0,0,0,0.1,0c0,0,0,0,0,0c0.1,0,0.2,0,0.3,0c0,0,0,0,0,0c0,0,0.1,0,0.1,0h0c0,0,0.1,0,0.1,0c0,0,0,0,0,0c0.9,0,1.7-0.1,2.6-0.1h0
		c0,0,0.1,0,0.1,0h0c0.1,0,0.2,0,0.4,0c0,0,0,0,0,0c0,0,0.1,0,0.1,0c0,0,0,0,0,0c0,0,0,0,0.1,0c0,0,0,0,0,0c0,0,0,0,0.1,0
		c0,0,0,0,0,0c0,0,0,0,0.1,0c0,0,0,0,0,0c0,0,0,0,0,0c0.1,0,0.1,0,0.2,0c0,0,0,0,0,0l0.1,0c0,0,0,0,0,0c0,0,0,0,0.1,0c0,0,0,0,0,0
		c0,0,0,0,0.1,0c0,0,0,0,0,0c1.2-0.1,2.4-0.1,3.5-0.2L517.3,948.6z M533.7,946.6c-3.2,0.6-6.5,1-9.8,1.4l0.2,1.7
		c0.4,0,0.8-0.1,1.2-0.1c0,0,0,0,0,0c0,0,0,0,0.1,0c0,0,0,0,0,0c0,0,0,0,0.1,0c0,0,0,0,0,0c0,0,0,0,0.1,0c0,0,0,0,0,0c0,0,0,0,0,0
		c0,0,0,0,0,0c0,0,0,0,0,0c0,0,0,0,0,0c0,0,0,0,0,0c0,0,0,0,0,0c0,0,0,0,0,0c0,0,0,0,0,0c0,0,0,0,0,0c0,0,0,0,0.1,0c0,0,0,0,0,0
		c0.2,0,0.4,0,0.5-0.1h0c0,0,0,0,0.1,0c0,0,0,0,0,0c0,0,0,0,0.1,0l0,0c0,0,0,0,0.1,0c0,0,0,0,0,0c0,0,0,0,0.1,0c0,0,0,0,0,0
		c0,0,0,0,0.1,0l0,0c0,0,0,0,0.1,0c0,0,0,0,0,0c0,0,0.1,0,0.1,0l0,0c0.3,0,0.5-0.1,0.8-0.1c0,0,0,0,0,0c0,0,0,0,0.1,0l0,0
		c0,0,0,0,0.1,0c0,0,0,0,0,0c0,0,0,0,0.1,0c0,0,0,0,0,0c0,0,0,0,0.1,0c0,0,0,0,0,0c0,0,0,0,0,0c0,0,0,0,0,0l0,0c0,0,0,0,0,0
		c0,0,0,0,0,0c0,0,0,0,0,0c0,0,0,0,0,0c0,0,0,0,0,0c0,0,0,0,0,0c0,0,0,0,0,0c0,0,0,0,0,0c0,0,0,0,0.1,0c0,0,0,0,0,0c0,0,0,0,0.1,0
		c0,0,0,0,0,0c1.8-0.2,3.5-0.5,5.2-0.8L533.7,946.6z M549.8,943c-3.2,0.9-6.4,1.7-9.6,2.4l0.3,1.6c2.7-0.6,5.4-1.2,8-1.9l0,0
		c0,0,0,0,0.1,0c0,0,0,0,0,0c0,0,0,0,0.1,0c0,0,0,0,0,0c0,0,0,0,0,0c0,0,0,0,0,0c0,0,0,0,0,0c0,0,0,0,0,0c0,0,0,0,0,0c0,0,0,0,0,0
		c0,0,0,0,0,0c0,0,0,0,0.1,0c0,0,0,0,0,0c0,0,0,0,0.1,0c0,0,0,0,0,0c0.4-0.1,0.8-0.2,1.2-0.3L549.8,943z M565.4,937.8
		c-3.1,1.2-6.2,2.3-9.3,3.3l0.5,1.6c1.8-0.6,3.6-1.2,5.3-1.8c0,0,0,0,0,0c0,0,0,0,0.1,0c0,0,0,0,0,0c0,0,0,0,0.1,0c0,0,0,0,0,0
		c0,0,0,0,0.1,0c0,0,0,0,0,0c0.1,0,0.1-0.1,0.2-0.1c0,0,0,0,0,0c0,0,0,0,0,0c0,0,0,0,0,0c0,0,0,0,0,0c0,0,0,0,0,0c0,0,0,0,0,0
		c0,0,0,0,0,0c0,0,0,0,0,0c0,0,0,0,0.1,0c0,0,0,0,0,0c1.1-0.4,2.3-0.8,3.4-1.3L565.4,937.8z M580.5,931c-2.9,1.5-5.9,2.9-9,4.2
		l0.7,1.5c0.5-0.2,1-0.4,1.5-0.7c0,0,0,0,0,0c0,0,0,0,0,0c0,0,0,0,0,0c0.1,0,0.1,0,0.1-0.1c0,0,0,0,0,0c0,0,0,0,0,0c0,0,0,0,0,0
		c0,0,0,0,0,0c0,0,0,0,0,0c0,0,0,0,0,0c0,0,0,0,0.1,0c0,0,0,0,0,0c0,0,0,0,0,0c0,0,0,0,0,0c0,0,0,0,0,0c0,0,0,0,0,0c0,0,0,0,0,0
		c0,0,0,0,0,0c0,0,0,0,0.1,0c0,0,0,0,0,0c0,0,0,0,0.1,0c0,0,0,0,0,0c0,0,0,0,0.1,0c0,0,0,0,0,0l0.1-0.1c0,0,0,0,0,0c0,0,0,0,0.1,0
		c0,0,0,0,0,0c0,0,0,0,0.1,0c0,0,0,0,0,0c0,0,0.1,0,0.1-0.1l0,0c0,0,0,0,0.1,0c0,0,0,0,0,0c0,0,0,0,0.1,0l0,0c0,0,0.1,0,0.1-0.1l0,0
		c0,0,0,0,0.1,0c0,0,0,0,0,0c0,0,0,0,0.1,0l0,0c0,0,0.1,0,0.1-0.1c0,0,0,0,0,0c0,0,0,0,0.1,0c0,0,0,0,0,0c0,0,0,0,0.1,0c0,0,0,0,0,0
		c0,0,0.1,0,0.1-0.1c0,0,0,0,0,0c0,0,0,0,0.1,0c0,0,0,0,0,0c0.1,0,0.1-0.1,0.2-0.1c0,0,0,0,0,0c0,0,0,0,0.1,0c0,0,0,0,0,0
		c0,0,0.1,0,0.1-0.1l0,0c0,0,0,0,0.1,0c0,0,0,0,0,0c0,0,0,0,0.1,0c0,0,0,0,0,0c0,0,0,0,0.1,0c0,0,0,0,0,0c0,0,0,0,0.1,0c0,0,0,0,0,0
		c0,0,0,0,0,0c0,0,0,0,0,0c0,0,0,0,0,0c0,0,0,0,0,0c0,0,0,0,0,0c0,0,0,0,0,0c0,0,0,0,0.1,0c0,0,0,0,0,0c0,0,0,0,0,0c0,0,0,0,0,0l0,0
		c0,0,0,0,0,0c0,0,0,0,0.1,0l0,0c0,0,0,0,0.1,0c0,0,0,0,0,0c0,0,0,0,0,0c0,0,0,0,0,0c0,0,0,0,0,0c0,0,0,0,0,0c0,0,0,0,0.1,0
		c0,0,0,0,0,0c0,0,0,0,0,0c0,0,0,0,0,0c0,0,0,0,0,0c0,0,0,0,0,0c0,0,0,0,0,0c0,0,0,0,0,0c0,0,0,0,0.1,0c0,0,0,0,0,0c0,0,0,0,0,0
		c0,0,0,0,0,0c0,0,0,0,0,0c0,0,0,0,0,0c0,0,0,0,0,0c0,0,0,0,0,0c0,0,0,0,0.1,0c0,0,0,0,0,0c0,0,0,0,0,0c0,0,0,0,0,0l0,0c0,0,0,0,0,0
		c0,0,0,0,0,0c0,0,0,0,0,0c0,0,0,0,0.1,0c0,0,0,0,0,0c0,0,0,0,0,0c0,0,0,0,0,0c0,0,0,0,0,0c0,0,0,0,0,0c0,0,0,0,0,0c0,0,0,0,0,0
		c0,0,0,0,0,0c0,0,0,0,0,0c0,0,0,0,0,0c0,0,0,0,0,0c0,0,0,0,0,0c0,0,0,0,0,0c0,0,0,0,0,0c0,0,0,0,0,0c0,0,0,0,0.1,0c0,0,0,0,0,0
		c0,0,0,0,0,0c0,0,0,0,0,0c0,0,0,0,0,0c0,0,0,0,0,0c0,0,0,0,0.1,0c0,0,0,0,0,0c0,0,0,0,0.1,0c0,0,0,0,0,0c0,0,0,0,0.1,0c0,0,0,0,0,0
		c0,0,0,0,0.1,0c0,0,0,0,0,0c0.1,0,0.1-0.1,0.2-0.1l0,0c0.6-0.3,1.2-0.6,1.8-0.9L580.5,931z M594.8,922.8c-2.8,1.8-5.6,3.5-8.5,5.1
		l0.8,1.5c0.8-0.5,1.7-0.9,2.5-1.4c0,0,0,0,0,0c0,0,0,0,0.1,0c0,0,0,0,0,0c0,0,0,0,0,0l0,0c0,0,0,0,0,0c0,0,0,0,0,0c0,0,0,0,0.1,0
		c0,0,0,0,0,0c0,0,0,0,0,0c0,0,0,0,0,0c0,0,0,0,0,0c0,0,0,0,0,0c0,0,0,0,0,0c0,0,0,0,0,0c0,0,0,0,0,0c0,0,0,0,0,0c0,0,0,0,0,0
		c0,0,0,0,0,0c0,0,0,0,0,0c0,0,0,0,0,0c0,0,0,0,0,0c0,0,0,0,0,0c0,0,0,0,0,0c0,0,0,0,0,0c0,0,0,0,0,0c0,0,0,0,0,0c0,0,0,0,0,0
		c0,0,0,0,0,0c0,0,0,0,0,0c0,0,0,0,0,0c0,0,0,0,0,0c0,0,0,0,0,0c0,0,0,0,0,0c0,0,0,0,0,0c0,0,0,0,0,0c0,0,0,0,0,0c0,0,0,0,0,0
		c0,0,0.1,0,0.1-0.1c0,0,0,0,0,0c0,0,0.1,0,0.1-0.1c0,0,0,0,0,0c0,0,0,0,0,0c0,0,0,0,0,0c0,0,0,0,0,0c0,0,0,0,0,0c0,0,0,0,0,0
		c0,0,0,0,0,0c0,0,0,0,0,0c0,0,0,0,0,0c0,0,0.1,0,0.1,0c0,0,0,0,0,0c0,0,0,0,0,0c0,0,0,0,0,0c0,0,0,0,0,0c0,0,0,0,0,0c0,0,0,0,0,0
		c0,0,0,0,0,0c0,0,0,0,0,0c0,0,0,0,0,0c0,0,0.1,0,0.1-0.1c0,0,0,0,0,0c0,0,0,0,0,0l0,0c0,0,0.1,0,0.1-0.1l0,0c0,0,0,0,0,0
		c0,0,0,0,0,0c0.1-0.1,0.2-0.1,0.4-0.2c0,0,0,0,0,0c0.2-0.1,0.4-0.2,0.5-0.3c0,0,0,0,0,0c0.1,0,0.1-0.1,0.2-0.1c0,0,0,0,0,0
		c0,0,0.1,0,0.1-0.1c0,0,0,0,0,0c1.1-0.7,2.1-1.3,3.2-2L594.8,922.8z M608.2,913.2c-2.7,2.1-5.3,4-8,5.9l1,1.4c1-0.7,1.9-1.3,2.8-2
		l0,0c0.1-0.1,0.2-0.1,0.2-0.2c0,0,0,0,0.1,0c0,0,0,0,0,0c0,0,0,0,0,0c0,0,0,0,0,0c0,0,0,0,0,0c0,0,0,0,0,0c0,0,0,0,0,0c0,0,0,0,0,0
		c0,0,0,0,0,0c0,0,0,0,0,0c0,0,0,0,0,0l0,0l0,0l0,0c0,0,0,0,0,0c0,0,0,0,0,0c0,0,0,0,0,0c0,0,0,0,0,0c0,0,0,0,0,0c0,0,0,0,0,0
		c0,0,0,0,0,0l0,0c0,0,0.1,0,0.1-0.1l0,0c1.7-1.2,3.2-2.4,4.6-3.5L608.2,913.2z M620.7,902.5c-2.9,2.9-5.3,5.1-7.3,6.6l1,1.3
		c2-1.6,4.6-3.9,7.4-6.7L620.7,902.5z M632.1,890.4c-2.3,2.5-4.5,5-6.7,7.3l1.2,1.1c0.7-0.8,1.5-1.5,2.2-2.3c0,0,0,0,0,0
		c0,0,0,0,0-0.1c0,0,0,0,0,0c0,0,0,0,0,0c0,0,0,0,0,0c0,0,0,0,0,0c0-0.1,0.1-0.1,0.1-0.2c0,0,0,0,0,0c1.4-1.5,2.9-3.1,4.3-4.7
		L632.1,890.4z M642.8,877.8c-1.9,2.4-4.1,5-6.3,7.7l1.3,1.1c2.2-2.6,4.4-5.2,6.4-7.7L642.8,877.8z M652.3,864.4
		c-1.1,1.7-2.1,3.2-2.9,4.4c-0.8,1.2-1.7,2.4-2.7,3.8l1.3,1c0.3-0.4,0.6-0.8,0.9-1.2c0,0,0,0,0,0c0,0,0,0,0,0c0,0,0,0,0,0
		c0,0,0,0,0,0c0,0,0,0,0,0l0,0c0,0,0,0,0,0l0,0c0,0,0,0,0,0c0,0,0,0,0,0c0,0,0,0,0,0c0,0,0,0,0,0c0.6-0.8,1.1-1.6,1.6-2.3
		c0,0,0,0,0,0l0,0c0,0,0,0,0,0c0,0,0,0,0,0c0,0,0,0,0,0c0.4-0.6,0.8-1.2,1.3-1.9c0,0,0,0,0,0c0,0,0,0,0,0c0,0,0,0,0,0c0,0,0,0,0,0
		c0.5-0.7,1-1.5,1.6-2.4L652.3,864.4z M661.4,850.4c-2,3.1-3.9,5.9-5.4,8.4l1.4,0.9c0.4-0.6,0.8-1.2,1.1-1.7c0,0,0,0,0,0
		c0,0,0,0,0-0.1c1.3-2.1,2.8-4.3,4.2-6.5c0,0,0-0.1,0.1-0.1L661.4,850.4z M670.5,836.4c-1.8,2.7-3.6,5.6-5.4,8.4l1.4,0.9
		c1.2-1.8,2.3-3.6,3.5-5.4c0,0,0,0,0-0.1c0,0,0,0,0-0.1c0.6-1,1.2-1.9,1.9-2.9L670.5,836.4z M679.5,822.4l-3.1,4.8l-2.3,3.6l1.4,0.9
		c0.2-0.4,0.5-0.8,0.7-1.1c0.5-0.8,1.1-1.6,1.6-2.4c0.2-0.3,0.4-0.6,0.5-0.8c0.9-1.4,1.8-2.7,2.6-4c0,0,0,0,0,0L679.5,822.4z
		 M688.5,808.4c-1.5,2.5-2.8,4.3-3.6,5.6l-0.4,0.6c-0.3,0.5-0.8,1.2-1.4,2.1l1.4,0.9c0.2-0.4,0.5-0.7,0.6-1c0.3-0.5,0.6-0.9,0.7-1.1
		c0.8-1.2,2.2-3.3,4-6.2L688.5,808.4z M696.9,794.1c-1.6,2.9-3.3,5.8-4.9,8.6l1.4,0.9c0.9-1.6,1.9-3.3,3-5.2c0,0,0,0,0,0
		c0,0,0,0,0,0l0,0c0,0,0,0,0-0.1c0,0,0,0,0,0c0,0,0,0,0,0c0,0,0,0,0,0c0,0,0,0,0,0c0,0,0,0,0,0c0,0,0,0,0,0c0,0,0,0,0,0c0,0,0,0,0,0
		c0,0,0,0,0,0c0,0,0,0,0,0c0,0,0,0,0-0.1c0,0,0,0,0,0c0,0,0-0.1,0.1-0.1v0c0.5-1,1.1-2,1.7-3L696.9,794.1z M704.5,779.4
		c-1.4,3-2.9,6-4.5,8.9l1.5,0.8c0.3-0.6,0.6-1.1,0.9-1.7c0,0,0,0,0,0c0,0,0,0,0,0c0,0,0,0,0,0c0,0,0,0,0,0c0,0,0,0,0,0c0,0,0,0,0,0
		c0,0,0,0,0-0.1c0,0,0,0,0,0c0.9-1.7,1.8-3.6,2.7-5.5c0,0,0,0,0,0c0,0,0,0,0-0.1c0,0,0,0,0,0c0,0,0,0,0,0c0,0,0,0,0-0.1c0,0,0,0,0,0
		c0.2-0.4,0.4-0.9,0.6-1.3L704.5,779.4z M711.3,764.3c-1.3,3.1-2.6,6.1-4,9.1l1.5,0.7c0.2-0.5,0.5-1,0.7-1.5c0,0,0,0,0,0
		c0,0,0,0,0-0.1c0,0,0,0,0,0c0,0,0,0,0-0.1c0,0,0,0,0,0c0,0,0,0,0,0c0,0,0,0,0,0c0,0,0,0,0,0c0-0.1,0.1-0.2,0.1-0.2c0,0,0,0,0,0
		c0,0,0,0,0-0.1c0,0,0,0,0,0c1-2.2,2-4.5,3-6.9c0,0,0,0,0,0c0,0,0,0,0-0.1c0,0,0,0,0,0L711.3,764.3z M717.7,748.9
		c-1.4,3.3-2.6,6.4-3.8,9.3l1.5,0.6c0.7-1.6,1.3-3.2,2-4.8c0.6-1.5,1.2-3,1.8-4.4L717.7,748.9z M724.1,733.5c-0.6,1.5-1.3,3-1.9,4.6
		c-0.6,1.5-1.3,3.1-1.9,4.7l1.5,0.6c0.7-1.6,1.3-3.1,1.9-4.7c0.6-1.4,1.2-2.9,1.8-4.3c0-0.1,0.1-0.2,0.1-0.3L724.1,733.5z
		 M730.4,718.1c-1.1,2.8-2.4,5.8-3.8,9.2l1.5,0.6c0.4-1,0.9-2.1,1.3-3.1c0,0,0,0,0,0c0,0,0-0.1,0-0.1c0,0,0,0,0-0.1c0,0,0,0,0-0.1
		c0,0,0-0.1,0-0.1c0,0,0,0,0,0c0,0,0-0.1,0.1-0.1c0.5-1.3,1.1-2.6,1.6-3.9v0l0.1-0.1c0,0,0,0,0,0c0,0,0-0.1,0-0.1c0,0,0-0.1,0-0.1
		c0,0,0,0,0,0c0.2-0.5,0.4-0.9,0.6-1.4L730.4,718.1z M736.5,702.6c-1.2,3-2.3,6.1-3.6,9.3l1.5,0.6c1-2.6,2.1-5.2,3.1-7.9
		c0.2-0.5,0.4-0.9,0.5-1.4L736.5,702.6z M742.3,687c-1.1,3.1-2.2,6.3-3.4,9.4l1.6,0.6c0.3-0.8,0.6-1.5,0.8-2.3c0,0,0,0,0-0.1
		c0,0,0,0,0,0c0,0,0,0,0,0c0,0,0,0,0,0c0,0,0,0,0,0c0.8-2.3,1.7-4.6,2.5-6.9L742.3,687z M747.6,671.3c-0.5,1.6-1,3.1-1.5,4.4
		c-0.6,1.7-1.1,3.4-1.7,5l1.6,0.5c0.2-0.5,0.3-0.9,0.5-1.4c0,0,0,0,0,0c0,0,0,0,0,0c0.4-1.2,0.8-2.4,1.2-3.6
		c0.4-1.4,0.9-2.8,1.5-4.4L747.6,671.3z M752.7,655.4c-1.1,3.4-2.1,6.6-3.1,9.5l1.6,0.5c1-2.9,2-6.1,3.1-9.5L752.7,655.4z
		 M757.9,639.6c-1.1,3.3-2.1,6.5-3.1,9.5l1.6,0.5c0.4-1.3,0.8-2.6,1.3-3.9c0.6-1.8,1.2-3.7,1.8-5.6L757.9,639.6z M763,623.7
		l-3.1,9.5l1.6,0.5c0.4-1.2,0.8-2.4,1.2-3.7c0.4-1.1,0.7-2.2,1.1-3.3c0.3-0.8,0.6-1.7,0.8-2.6L763,623.7z M768.1,607.8l-3.1,9.5
		l1.6,0.5c0.7-2.1,1.4-4.3,2.1-6.5c0.3-1,0.7-2,1-3.1L768.1,607.8z M773.2,592c-1,3.1-2,6.3-3.1,9.5l1.6,0.5c1-3,1.9-5.9,2.8-8.8
		c0.1-0.2,0.2-0.5,0.2-0.7L773.2,592z M778.4,576.1c-1,3.1-2,6.3-3.1,9.5l1.6,0.5c0.3-0.9,0.6-1.7,0.8-2.6c0,0,0,0,0-0.1
		c0,0,0,0,0,0c0.7-2.3,1.5-4.6,2.2-6.8L778.4,576.1z M783.5,560.3c-1,3-2,6.2-3.1,9.5l1.6,0.5c0.8-2.3,1.5-4.6,2.2-6.8
		c0.3-0.9,0.6-1.8,0.9-2.7L783.5,560.3z M788.7,544.4c-0.9,2.8-2,6-3.1,9.5l1.6,0.5c0-0.1,0.1-0.2,0.1-0.4c0.3-1,0.7-2,1-3
		c0.7-2.2,1.4-4.2,2-6.1L788.7,544.4z M794.3,528.6c-0.1,0.2-0.2,0.4-0.2,0.6c-0.5,1.1-1.6,4.1-3.2,8.9l1.6,0.5
		c1.5-4.5,2.6-7.6,3.1-8.8c0,0,0,0,0,0v0c0.1-0.2,0.2-0.4,0.3-0.6L794.3,528.6z M799.7,513c-1.2,3.8-2.3,6.9-3.2,9.5l1.6,0.5
		c0.2-0.5,0.4-1.1,0.6-1.6c0.8-2.3,1.7-5,2.6-7.9L799.7,513z M804.9,497.1c-1.1,3.4-2.1,6.6-3.1,9.5l1.6,0.5
		c0.4-1.1,0.7-2.2,1.1-3.3l0,0c0,0,0-0.1,0-0.1c0,0,0,0,0,0c0,0,0,0,0,0c0,0,0-0.1,0-0.1c0,0,0,0,0,0c0,0,0,0,0,0c0,0,0-0.1,0-0.1
		c0.1-0.4,0.3-0.9,0.4-1.3c0,0,0,0,0,0c0-0.1,0-0.1,0.1-0.2c0,0,0,0,0,0c0,0,0,0,0-0.1c0,0,0,0,0-0.1c0,0,0,0,0,0c0,0,0,0,0,0
		c0,0,0,0,0,0c0,0,0,0,0-0.1c0,0,0,0,0,0c0.4-1.3,0.8-2.6,1.3-3.9L804.9,497.1z M810,481.3c-1,3.1-2,6.3-3,9.5l1.6,0.5
		c0.6-2,1.3-4,1.9-5.9c0.4-1.2,0.8-2.4,1.1-3.6L810,481.3z M815,465.4c-0.9,3-2,6.2-3,9.5l1.6,0.5c0.3-0.8,0.5-1.6,0.8-2.4
		c0,0,0,0,0,0c0,0,0,0,0,0c0.2-0.7,0.5-1.5,0.7-2.2c0,0,0,0,0,0l0,0c0,0,0,0,0,0c0,0,0,0,0,0c0.5-1.6,1-3.2,1.5-4.7L815,465.4z
		 M820,449.5c-0.6,1.9-1.7,5.3-3,9.5l1.6,0.5c1.3-4.2,2.4-7.6,3-9.5L820,449.5z M824.9,433.6l-3,9.6l1.6,0.5l0.2-0.5c0,0,0,0,0,0
		l0-0.1c0,0,0,0,0,0l0,0c0,0,0,0,0,0l0,0c0.7-2.2,2.8-8.9,2.8-8.9L824.9,433.6z M829.8,417.6l-3,9.6l1.6,0.5c0,0,0.3-1,0.7-2.3l0,0
		c0,0,0,0,0,0l0,0l0,0l2.2-7.2L829.8,417.6z M834.8,401.7l-3,9.6l1.6,0.5l2.7-8.9c0,0,0,0,0,0l0-0.1c0,0,0,0,0,0l0-0.1l0,0l0,0
		c0,0,0,0,0,0l0,0c0,0,0,0,0,0l0,0c0,0,0,0,0,0l0,0c0.1-0.3,0.1-0.4,0.1-0.4L834.8,401.7z"/>
</g>
<g>
	<path class="st2" d="M342.7,99.3c0.1,3.7,0.1,6.9,0.1,8.2c-0.2,5,3.1,153.1,14,204.7l0.2,0.8l14,13.1h4.7h0.4l0.3-0.1
		c0.6-0.2,56.1-15.7,119.6-15.7c57.6,0,101.9,5.7,122.4,10.6l1.4,0.3l1-1c8.3-8,12.6-12.3,12.7-12.4l0.6-0.6l0.1-0.8
		c0.1-0.5,7.7-49.3,6.1-139.6c-0.3-15.5-0.4-28.9-0.5-40.8l0-0.5c-0.2-29-0.4-48.1-2.6-62.6c-1.1-7.3-2.7-13.2-5-18.6
		c-2.3-5.3-5.3-10.2-9.4-15.2c-19.9-24-48.9-27.4-145.5-27.4c-46,0-78.8,5.5-100.1,16.8c-18,9.5-28.5,23.3-33.1,43.3l0,0l0,0
		c-1.8,6.9-1.7,22.3-1.4,37.4L342.7,99.3z"/>
	<path class="st2" d="M496,311.9c-63.2,0-118.6,15.5-119.2,15.6l-0.6,0.2l-0.6,0c16.1,2.9,75.4,9.3,120.9,9.3
		c47.6,0,122.4-14,123.2-14.1l0.1,0l-1.9-0.5C597.6,317.6,553.5,311.9,496,311.9z"/>
	<path class="st2" d="M496.7,338.7c-48.9,0-113.6-7.4-124.1-9.9l-1.4-0.3l-1,1.1c-9.4,10-11.5,12.6-11.6,12.7l-0.7,0.9l0.2,1.1
		c7.2,40.8,43.2,245.4,48,261.3l0,0.1l0,0.1c0.4,2,2.2,4.4,6.1,4.4c0.3,0,0.7,0,1,0c0.7-0.1,2.6-0.3,6.3-0.8
		c15.4-2.1,56.5-7.6,81.4-7.6c20.3,0,53.9,2.4,74,3.9c10,0.7,15.3,1.1,17,1.1c0.3,0,0.6,0,0.9-0.1c3.1-0.7,3.7-3.1,4-5.7l0.1-0.6
		l0,0l0,0c0-0.3,0.3-1.7,0.8-4.3l0.1-0.7c8.6-48.4,15.8-94.1,21.3-135.6c9.3-69.5,15.5-115.2,16.2-120.2l0-0.1l0.2-1.3l-14.1-13.8
		l-1.3,0.2C619.4,324.7,544.4,338.7,496.7,338.7z"/>
	<path class="st2" d="M855.2,384.7c-1.7,0-5.2,0.9-10.7,2.9c-0.7,0.2-1.7,0.6-3,1l-0.2,0.1c-71.6,23.8-111.5,52.1-132.3,71.6
		c-48.8,45.8-82.6,106.4-89.3,123.3c-8.7,21.8-14.5,36.7-17.7,45.8l0,0l0,0c-0.2,0.5-0.4,1-0.6,1.4l-3,6.1l-0.2-6.8
		c0-0.2,0-0.4,0-0.6l0,0l0,0l0-0.1L599,614l-2.3-0.3c-0.6-0.1-58.8-6.9-95.6-6.9c-36.6,0-94.6,8.2-95.1,8.3l-2.2,0.3l0.4,15.7
		l0.2,7.4l-3.3-6.6c-0.8-1.6-1.6-3.7-2-4.7c-1.4-3.8-5-14.8-6-18.1c-1.1-3.5-15.8-33.5-19.5-40.2l-0.8-1.5
		c-4.4-8.2-14.8-27.3-36.5-55.9c-22.7-29.9-44.8-52.8-91-80.9c-17.6-10.7-38.6-20.6-62.2-29.2c-18.3-6.7-32.1-10.4-35.9-11.3
		l-0.2-0.1l-0.2-0.1c-0.5-0.3-1.1-0.4-1.7-0.4c-2.2,0-4.2,1.9-5.5,3.3c-3.4,3.7-21.8,23-22,23.2l-1.1,1.1l0.5,1.5
		c0,0.1,0.6,1.8,1.6,4.8c20.6,60.4,32.8,96,36.1,105.9c3,8.6,11,34.8,18.8,60.2l0,0.1c7.8,25.4,15.9,51.6,18.9,60.3
		c6.6,19.2,32.6,91.3,44.9,118.2c11.7,25.6,31.8,66.5,39.2,74.1l0.6,0.6l0.9,0.1c3.7,0.5,7.5,0.7,11.4,0.7c2.3,0,4.4-0.1,6-0.1
		l0.1,0c1.2,0,2.1-0.1,3-0.1c0.7,0,1.3,0,1.6,0.1c0.7,0.1,1.3,0.3,1.9,0.5l1.4,0.6l-0.5,1.5c-0.3,0.8-0.7,1.8-1.2,2.9l0,0.1
		c-1.7,4.2-4.1,9.9-4.9,15.4c-0.9,6.4-1,8-1,8.3v0.8l0.5,0.7l0.1,0.2c4.8,6.4,20.7,27.5,22.9,30.4l0.9,1.1l1.4-0.1
		c7.6-0.7,13-2,16.5-2.8c1.9-0.4,3.4-0.8,4.4-0.9c0.1,0,0.2,0,0.3,0c1.1,0,1.8,0.4,2.1,0.6l0.7,0.6l-0.1,0.9
		c-0.1,0.6-0.3,1.5-0.7,2.8l0,0.1c-0.8,2.9-2,7.3-2.1,12.8c-0.2,8.3,0.3,11.1,0.3,11.4l0.1,0.8l0.6,0.6c0.4,0.4,9.2,9.1,18.8,17.6
		c8.6,7.6,12.9,10.4,14,11.1l0.1,0l0.1,0c0.6,0.4,1.4,0.7,2.2,0.7c1.5,0,3.4-0.6,6-2c2-1.1,4.6-2.6,7.1-4.2c3.2-2,6.2-3.8,7.5-4.3
		l0.3-0.1l0.3,0l0.1,0c0.1,0,0.2,0,0.3,0l1,0.1l0.4,0.9c0.1,0.3,0.3,0.6,0.3,1.1c0.3,1.3,0.4,3,0.5,4.9c0.2,2.9,0.4,6.4,1.4,10.1
		c0.2,0.6,0.3,1.2,0.5,1.8l0.1,0.2c1.2,4.7,2.1,8.1,5.9,10.1c3.5,1.9,27,9.8,29.6,10.2c0.6,0.1,1.1,0.1,1.6,0.1c2.6,0,4.4-1.4,6.5-3
		c2.3-1.7,8.3-7.8,13.2-12.8c0.6-0.6,1-1,1.2-1.3c0.4-0.4,0.9-0.7,1.2-0.8l1.2-0.5l0.8,1c0.1,0.1,0.1,0.2,0.2,0.3
		c0.8,1.3,1.5,3.3,2.2,5.5c1.1,3.3,2.4,7.3,4.9,10.8c3.7,5.1,4.9,6.3,5.3,6.6l0.6,0.5l0.8,0.1c0.4,0,9.6,0.8,15.3,0.8
		c3.4,0,4.7-0.2,5.6-1c0.3-0.2,0.8-0.7,1.6-1.9l1.4-2l1.3,2.1c1.5,2.4,2.1,2.5,2.9,2.7c0.3,0.1,0.7,0.1,1.3,0.1
		c3.5,0,18.6-0.9,19.5-1c1.2-0.2,1.9-0.8,4.6-4.9c0.8-1.2,2.8-4.4,3.9-6.8c0.5-1.1,1.1-2.7,1.7-4.4l0,0c1.1-3.2,2.3-6.4,3.2-7.7
		l0.2-0.3l0.3-0.2l0.2-0.1l0.1-0.1l0.9-0.5l0.9,0.6c0.3,0.2,0.7,0.5,1,0.8c1.5,1.3,3,3,4.5,4.6l0,0c1.8,2,3.5,3.8,5.3,5.2
		c0.8,0.6,1.7,1.4,2.6,2.2c2.7,2.4,4.9,4.3,7,4.3c0.2,0,0.4,0,0.6-0.1c1.7-0.3,16-3.8,24.5-7.6c2.5-1.1,4.2-1.8,5.4-2.3
		c2.8-1.1,4-1.6,4.9-4.3c0.1-0.4,0.3-0.8,0.5-1.3l0,0c1-2.2,2.4-5.4,3.4-13.4c0.5-4.3,0.6-6.9,0.7-8.4c0-0.2,0-0.5,0-0.7l0-0.8
		l0.6-0.5c0.2-0.2,0.4-0.3,0.6-0.4l0.8-0.5l0.8,0.4c1,0.5,3.2,1.8,4.9,2.7l0.1,0.1c3.3,1.9,6.6,3.8,8.4,4.6c0.6,0.3,1.2,0.6,1.7,0.8
		l0.1,0c1.7,0.9,3.3,1.7,5,1.7c0.8,0,1.6-0.2,2.4-0.5c1-0.5,8.2-6.2,16.6-13.7c11-9.6,15.7-14.7,16.4-16.2l0.2-0.5l0-0.6
		c0-1.7,0.1-2.9,0.1-3.9l0-0.3c0-1.8,0.1-3,0.1-5.2c0.1-3.9-0.9-10-2.5-14.8c-0.4-1.3-0.5-2.5-0.2-3.5l0.4-1.4l1.4,0.1
		c0.7,0.1,1.9,0.2,3.7,0.8c2.5,0.7,9.2,1.7,13.2,2.1c1.2,0.1,2.3,0.2,3.3,0.2c1.9,0,2.9-0.3,3.3-0.4l0.7-0.3l0.4-0.6
		c9.3-12.7,20.6-28.3,21.9-30.8l0.3-0.6v-0.7c0-5.8-0.9-10.7-3.1-17c-0.8-2.4-1.9-4.5-2.8-6.3c-0.7-1.5-1.4-2.8-1.7-3.6l-0.4-1.3
		l1.2-0.7c0.6-0.3,1.4-0.5,2.2-0.5c0.1,0,0.2,0,0.3,0c0.8,0,3.4,0.1,6.7,0.1c7.1,0,11.9-0.3,14.5-0.9c1.9-0.4,2.3-0.9,2.8-1.5
		c2-2.4,15.8-23.9,29-53.8c13-29.4,23.6-57.6,30.7-76.2l0.5-1.2c6.9-18.3,43.9-133,49.2-155.9c5-21.7,42.7-132.6,44.3-137.3l0,0
		l0.5-1.5l-26.3-26.3C856.8,385,856.1,384.7,855.2,384.7z"/>
	<path d="M858.6,384.4c-0.6-0.6-1.7-1.3-3.4-1.3c-1.2,0-3.7,0.3-11.2,3c-0.7,0.3-1.8,0.6-3.2,1.1c-71.9,23.9-112,52.3-133,72
		c-49,46-82.9,106.9-89.7,123.9c-8.7,21.8-14.5,36.8-17.7,45.9c-0.2,0.5-0.4,0.9-0.5,1.3c0-0.1,0-0.2,0-0.3l0-0.2l0.7-17.1l-3.9-0.5
		c-0.6-0.1-59.1-6.9-95.8-6.9c-36.7,0-94.8,8.2-95.4,8.3l-3.7,0.5l0.4,17.2c-0.7-1.4-1.5-3.5-1.9-4.6c-1.4-3.8-5-14.7-6-18.1
		c-1.2-3.7-15.8-33.5-19.6-40.5l-0.8-1.5c-4.5-8.2-14.9-27.4-36.6-56.1c-22.8-30.1-45.1-53.1-91.5-81.3
		c-42.1-25.7-91.7-39-98.5-40.7c-0.7-0.4-1.6-0.6-2.5-0.6c-2.9,0-5.2,2.2-6.7,3.9c-3.3,3.6-21.8,22.9-22,23.1l-1.8,1.8l0.8,2.4
		c0.3,0.9,31.9,93.5,37.8,110.7c2.9,8.6,11,34.8,18.8,60.1c7.8,25.4,15.9,51.7,18.9,60.5c6.6,19.2,32.6,91.4,44.9,118.3
		c10.1,22.2,31.4,66.3,39.5,74.5l1,1.1l1.5,0.2c3.8,0.5,7.6,0.7,11.7,0.7c2.4,0,4.4-0.1,6.1-0.1c1.2,0,2.2-0.1,3.1-0.1
		c0.9,0,1.2,0,1.3,0.1c0.7,0.1,1.2,0.3,1.5,0.4c-0.3,0.8-0.7,1.8-1.2,2.9c-1.8,4.3-4.2,10.1-5,15.9c-1.1,7.5-1.1,8.3-1.1,8.5v1.4
		l0.8,1.1c0.8,1.1,20.6,27.4,23,30.6l1.4,1.9l2.3-0.2c7.7-0.7,13.2-2,16.8-2.8c1.8-0.4,3.3-0.8,4.1-0.8c0.1,0,0.1,0,0.2,0
		c0.6,0,0.9,0.2,1,0.3c-0.1,0.5-0.4,1.7-0.6,2.6c-0.8,3-2,7.5-2.2,13.2c-0.2,8.3,0.3,11.2,0.3,11.7l0.2,1.3l0.9,0.9
		c0.1,0.1,9,9,18.9,17.7c8.6,7.6,12.9,10.4,14.2,11.2c0.9,0.6,2,1,3.2,1c1.8,0,3.9-0.7,6.8-2.2c2.1-1.1,4.7-2.7,7.2-4.2
		c2.4-1.5,6-3.6,7.2-4.1c0,0,0,0,0,0c0,0,0.1,0,0.2,0c0.1,0.1,0.1,0.3,0.2,0.7c0.3,1.2,0.4,2.8,0.5,4.6c0.2,2.9,0.4,6.6,1.4,10.5
		c0.2,0.7,0.4,1.3,0.5,2c1.3,4.9,2.3,8.8,6.7,11.2c3.6,2,27.3,10,30.1,10.4c0.7,0.1,1.2,0.1,1.8,0.1c3.1,0,5.3-1.6,7.5-3.3
		c2.3-1.8,8.1-7.6,13.4-13c0.6-0.6,1-1,1.2-1.3c0.2-0.2,0.5-0.4,0.7-0.4c0,0,0.1,0.1,0.1,0.2c0.7,1.1,1.3,3,2,5.1
		c1.1,3.4,2.4,7.6,5.2,11.2c1.9,2.6,4.5,5.9,5.5,6.9l1,0.9l1.4,0.1c0.4,0,9.7,0.8,15.4,0.8c3.4,0,5.2-0.2,6.7-1.4
		c0.5-0.5,1.2-1.2,1.8-2.2c1.9,3,2.8,3.2,3.9,3.5c0.5,0.1,1,0.2,1.7,0.2c3.5,0,18.9-0.9,19.7-1.1c2-0.3,3-1.4,5.7-5.7
		c0.8-1.3,2.9-4.5,4-7c0.5-1.2,1.1-2.8,1.7-4.6c0.8-2.2,2.1-6.1,3-7.3c0.1,0,0.3-0.2,0.3-0.2c0.2,0.2,0.5,0.4,0.9,0.7
		c1.5,1.3,3,2.9,4.4,4.5c1.9,2,3.6,3.9,5.5,5.4c0.8,0.6,1.7,1.4,2.5,2.2c3,2.6,5.3,4.7,8.1,4.7c0.3,0,0.6,0,0.9-0.1
		c1.7-0.3,16.3-3.8,24.9-7.7c2.5-1.1,4.1-1.8,5.4-2.3c2.9-1.2,4.7-1.9,5.8-5.3c0.1-0.3,0.3-0.7,0.5-1.2c1-2.3,2.5-5.7,3.5-13.9
		c0.5-4.4,0.6-7,0.7-8.6c0-0.2,0-0.5,0-0.7c0.2-0.1,0.3-0.2,0.4-0.3c1,0.5,3.2,1.8,4.9,2.8c3.3,1.9,6.7,3.8,8.5,4.7
		c0.6,0.3,1.2,0.6,1.7,0.8c1.8,0.9,3.6,1.8,5.8,1.8c1.1,0,2.1-0.2,3.1-0.7c2.4-1.1,31.3-25.5,33.8-30.6l0.4-0.8l0-0.9
		c0-1.8,0.1-3.1,0.1-4.2c0-1.8,0.1-3,0.1-5.2c0.1-4.1-1-10.4-2.5-15.4c-0.4-1.3-0.3-2.1-0.2-2.6c0.6,0.1,1.7,0.2,3.4,0.7
		c2.7,0.8,9.7,1.7,13.4,2.2c1.3,0.1,2.4,0.2,3.5,0.2c2.1,0,3.3-0.3,3.9-0.6l1.1-0.5l0.7-1c3.4-4.6,20.3-27.7,22-30.9l0.5-1v-1.1
		c0-6-0.9-11.1-3.2-17.6c-0.9-2.5-2-4.7-2.9-6.5c-0.6-1.1-1.3-2.6-1.5-3.4c0.3-0.1,0.8-0.3,1.4-0.3c0.1,0,0.1,0,0.2,0
		c0.8,0,3.5,0.1,6.8,0.1c16.2,0,17.3-1.4,18.6-2.9c2-2.4,16-24.1,29.2-54.2c13-29.4,23.7-57.6,30.7-76.3l0.5-1.2
		c6.9-18.3,44-133.2,49.2-156.1c5-22,43.8-136,44.2-137.2l0.8-2.5L858.6,384.4z M883.2,413.4L883.2,413.4
		c-1.6,4.8-39.3,115.7-44.3,137.4c-5.2,22.9-42.3,137.6-49.2,155.9l-0.5,1.2c-7.1,18.6-17.7,46.8-30.7,76.2
		c-13.2,29.9-27,51.4-29,53.8c-0.5,0.6-0.9,1-2.8,1.5c-2.6,0.6-7.4,0.9-14.5,0.9c-3.3,0-5.9-0.1-6.7-0.1c-0.1,0-0.2,0-0.3,0
		c-0.8,0-1.6,0.2-2.2,0.5l-1.2,0.7l0.4,1.3c0.3,0.9,0.9,2.2,1.7,3.6c0.9,1.7,2,3.9,2.8,6.3c2.2,6.3,3.1,11.3,3.1,17v0.7l-0.3,0.6
		c-1.4,2.4-12.7,18.1-21.9,30.8l-0.4,0.6l-0.7,0.3c-0.4,0.2-1.4,0.4-3.3,0.4c-1,0-2.1-0.1-3.3-0.2c-4-0.5-10.7-1.4-13.2-2.1
		c-1.8-0.5-3-0.7-3.7-0.8l-1.4-0.1l-0.4,1.4c-0.3,1-0.2,2.2,0.2,3.5c1.5,4.8,2.5,10.9,2.5,14.8c0,2.2-0.1,3.4-0.1,5.2l0,0.3
		c0,1-0.1,2.3-0.1,3.9l0,0.6l-0.2,0.5c-0.7,1.5-5.4,6.5-16.4,16.2c-8.5,7.4-15.6,13.1-16.6,13.7c-0.8,0.3-1.6,0.5-2.4,0.5
		c-1.8,0-3.4-0.8-5-1.7l-0.1,0c-0.5-0.3-1.1-0.5-1.7-0.8c-1.8-0.8-5.2-2.8-8.4-4.6l-0.1-0.1c-1.7-1-3.9-2.2-4.9-2.7l-0.8-0.4
		l-0.8,0.5c-0.2,0.1-0.4,0.3-0.6,0.4l-0.6,0.5l0,0.8c0,0.2,0,0.5,0,0.7c-0.1,1.5-0.1,4.1-0.7,8.4c-1,8-2.4,11.3-3.4,13.4l0,0
		c-0.2,0.5-0.4,0.9-0.5,1.3c-0.9,2.7-2.1,3.2-4.9,4.3c-1.2,0.5-2.9,1.2-5.4,2.3c-8.5,3.8-22.8,7.3-24.5,7.6c-0.2,0-0.4,0.1-0.6,0.1
		c-2.2,0-4.3-1.9-7-4.3c-0.9-0.8-1.8-1.6-2.6-2.2c-1.7-1.4-3.5-3.2-5.3-5.2l0,0c-1.5-1.6-3-3.3-4.5-4.6c-0.4-0.3-0.7-0.6-1-0.8
		l-0.9-0.6l-0.9,0.5l-0.1,0.1l-0.2,0.1l-0.3,0.2l-0.2,0.3c-0.9,1.3-2.1,4.5-3.2,7.7l0,0c-0.6,1.7-1.2,3.3-1.7,4.4
		c-1.1,2.4-3.1,5.5-3.9,6.8c-2.7,4.2-3.4,4.8-4.6,4.9c-0.9,0.1-15.9,1-19.5,1c-0.6,0-1,0-1.3-0.1c-0.8-0.2-1.3-0.3-2.9-2.7l-1.3-2.1
		l-1.4,2c-0.8,1.1-1.3,1.6-1.6,1.9c-0.9,0.8-2.2,1-5.6,1c-5.7,0-14.9-0.8-15.3-0.8l-0.8-0.1l-0.6-0.5c-0.3-0.3-1.5-1.5-5.3-6.6
		c-2.5-3.4-3.9-7.5-4.9-10.8c-0.7-2.2-1.4-4.2-2.2-5.5c-0.1-0.1-0.1-0.2-0.2-0.3l-0.8-1l-1.2,0.5c-0.4,0.1-0.9,0.4-1.2,0.8
		c-0.2,0.2-0.7,0.7-1.2,1.3c-5,5.1-11,11.1-13.2,12.8c-2.1,1.6-3.9,3-6.5,3c-0.5,0-1,0-1.6-0.1c-2.6-0.4-26.1-8.3-29.6-10.2
		c-3.8-2-4.6-5.4-5.9-10.1l-0.1-0.2c-0.1-0.6-0.3-1.1-0.5-1.8c-1-3.7-1.2-7.2-1.4-10.1c-0.1-1.9-0.2-3.6-0.5-4.9
		c-0.1-0.4-0.2-0.8-0.3-1.1l-0.4-0.9l-1-0.1c0,0-0.2,0-0.3,0l-0.1,0l-0.3,0l-0.3,0.1c-1.3,0.5-4.3,2.3-7.5,4.3
		c-2.5,1.5-5.1,3.1-7.1,4.2c-2.6,1.3-4.5,2-6,2c-0.9,0-1.6-0.2-2.2-0.7l-0.1,0l-0.1,0c-1.1-0.7-5.4-3.5-14-11.1
		c-9.7-8.5-18.5-17.2-18.8-17.6l-0.6-0.6l-0.1-0.8c-0.1-0.3-0.5-3-0.3-11.4c0.1-5.5,1.3-9.9,2.1-12.8l0-0.1c0.3-1.3,0.6-2.2,0.7-2.8
		l0.1-0.9l-0.7-0.6c-0.3-0.2-1-0.6-2.1-0.6c-0.1,0-0.2,0-0.3,0c-1,0.1-2.5,0.4-4.4,0.9c-3.5,0.8-8.9,2.1-16.5,2.8l-1.4,0.1l-0.9-1.1
		c-2.2-2.9-18.1-24-22.9-30.4l-0.1-0.2l-0.5-0.7v-0.8c0-0.4,0.1-1.9,1-8.3c0.8-5.5,3.2-11.3,4.9-15.4l0-0.1c0.5-1.1,0.9-2.1,1.2-2.9
		l0.5-1.5l-1.4-0.6c-0.5-0.2-1.2-0.4-1.9-0.5c-0.3-0.1-0.9-0.1-1.6-0.1c-0.9,0-1.9,0-3,0.1l-0.1,0c-1.7,0.1-3.7,0.1-6,0.1
		c-4,0-7.7-0.2-11.4-0.7l-0.9-0.1l-0.6-0.6c-7.4-7.5-27.5-48.4-39.2-74.1c-12.3-26.9-38.3-99-44.9-118.2c-3-8.7-11.1-34.9-18.9-60.3
		l0-0.1c-7.8-25.4-15.9-51.6-18.8-60.2c-3.4-9.9-15.5-45.5-36.1-105.9c-1-2.9-1.6-4.6-1.6-4.8l-0.5-1.5l1.1-1.1
		c0.2-0.2,18.6-19.5,22-23.2c1.3-1.4,3.3-3.3,5.5-3.3c0.6,0,1.2,0.1,1.7,0.4l0.2,0.1l0.2,0.1c3.8,1,17.6,4.7,35.9,11.3
		c23.7,8.6,44.6,18.4,62.2,29.2c46.2,28.1,68.3,51,91,80.9c21.7,28.6,32.1,47.8,36.5,55.9l0.8,1.5c3.7,6.8,18.4,36.7,19.5,40.2
		c1.1,3.4,4.6,14.3,6,18.1c0.4,1,1.2,3.2,2,4.7l3.3,6.6l-0.2-7.4l-0.4-15.7l2.2-0.3c0.6-0.1,58.5-8.3,95.1-8.3
		c36.7,0,95,6.8,95.6,6.9l2.3,0.3l-0.7,15.4l0,0.1l0,0l0,0c0,0.2,0,0.4,0,0.6l0.2,6.8l3-6.1c0.2-0.4,0.4-0.9,0.6-1.4l0,0l0,0
		c3.2-9.1,9-24.1,17.7-45.8c6.8-16.9,40.5-77.5,89.3-123.3c20.8-19.5,60.7-47.8,132.3-71.6l0.2-0.1c1.3-0.4,2.3-0.8,3-1
		c5.5-1.9,9-2.9,10.7-2.9c0.9,0,1.7,0.3,2.2,0.8l26.3,26.3L883.2,413.4z"/>
	<path d="M341.1,107.4c-0.2,5,3.1,153.4,14.1,205.1l0.3,1.3l14.5,13.5l-1,1c-9.5,10.1-11.6,12.7-11.7,12.8l-1.2,1.5l0.3,1.9
		c7.3,41.5,43.2,245.5,48,261.5c0.5,2.5,2.8,5.8,7.8,5.8h0c0.4,0,0.7,0,1.1-0.1c0.8-0.1,2.6-0.3,6.4-0.8c15.4-2.1,56.4-7.6,81.2-7.6
		c20.3,0,53.8,2.4,73.9,3.9c10,0.7,15.3,1.1,17.1,1.1c0.4,0,0.8,0,1.3-0.1c4.5-1,5-5,5.3-7.1l0.1-0.6c0-0.3,0.4-2.4,0.9-5
		c8.6-48.5,15.8-94.1,21.4-135.7C630.5,387,637,340.1,637,339.6l0.3-2.1l-15.3-15l-1.6,0.3l1.5-1.4c8.3-8,12.6-12.3,12.7-12.4l1-1
		l0.2-1.4c0.1-0.5,7.7-49.5,6.1-139.9c-0.3-15.7-0.4-29.3-0.5-41.3c-0.5-57.8-0.6-77.3-17.3-97.4C603.7,3.5,574.5,0,477.3,0
		C431,0,398,5.5,376.4,16.9c-18.5,9.8-29.3,23.9-33.9,44.4c-1.8,7.1-1.7,22.6-1.5,37.8C341.1,102.9,341.1,106.1,341.1,107.4z
		 M635.6,338.1l-0.2,1.3l0,0.1c-0.7,5-7,50.7-16.2,120.2c-5.5,41.5-12.7,87.2-21.3,135.6l-0.1,0.7c-0.5,2.6-0.7,4-0.8,4.3l0,0l0,0
		l-0.1,0.6c-0.3,2.6-0.9,5-4,5.7c-0.3,0.1-0.6,0.1-0.9,0.1c-1.7,0-7-0.4-17-1.1c-20.1-1.5-53.7-3.9-74-3.9c-24.9,0-66,5.5-81.4,7.6
		c-3.7,0.5-5.6,0.7-6.3,0.8c-0.3,0-0.7,0-1,0c-3.9,0-5.8-2.4-6.1-4.4l0-0.1l0-0.1c-4.8-16-40.8-220.5-48-261.3l-0.2-1.1l0.7-0.9
		c0.1-0.1,2.2-2.7,11.6-12.7l1-1.1l1.4,0.3c10.5,2.5,75.2,9.9,124.1,9.9c47.7,0,122.7-14,123.5-14.2l1.3-0.2L635.6,338.1z
		 M619.8,322.9c-0.8,0.1-75.6,14.1-123.2,14.1c-45.6,0-104.8-6.5-120.9-9.3l0.6,0l0.6-0.2c0.6-0.2,56-15.6,119.2-15.6
		c57.4,0,101.6,5.7,122,10.5l1.9,0.5L619.8,322.9z M344.1,61.8L344.1,61.8L344.1,61.8c4.6-20.1,15.1-33.9,33.1-43.4
		C398.5,7.1,431.3,1.7,477.3,1.7c96.6,0,125.6,3.4,145.5,27.4c4.2,5,7.2,9.8,9.4,15.2c2.3,5.3,3.9,11.2,5,18.6
		c2.2,14.5,2.3,33.6,2.6,62.6l0,0.5c0.1,11.9,0.2,25.3,0.5,40.8c1.5,90.4-6,139.2-6.1,139.6l-0.1,0.8l-0.6,0.6
		c0,0-4.3,4.3-12.7,12.4l-1,1l-1.4-0.3c-20.5-4.9-64.8-10.6-122.4-10.6c-63.5,0-119.1,15.5-119.6,15.7L376,326h-0.4H371l-14-13.1
		l-0.2-0.8c-10.9-51.7-14.2-199.7-14-204.7c0.1-1.3,0-4.5-0.1-8.2l0-0.1C342.4,84,342.3,68.7,344.1,61.8z"/>
</g>
</svg>
